<svg xmlns="http://www.w3.org/2000/svg" xmlns:xlink="http://www.w3.org/1999/xlink" width="320" zoomAndPan="magnify" viewBox="0 0 240 74.999997" height="100" preserveAspectRatio="xMidYMid meet" version="1.0"><defs><g/><clipPath id="c51926428e"><path d="M 0 0 L 74 0 L 74 75 L 0 75 Z M 0 0 " clip-rule="nonzero"/></clipPath><clipPath id="9bd92a5723"><path d="M -12.3125 -33.484375 L 73.144531 -13.558594 L 44.707031 108.417969 L -40.75 88.496094 Z M -12.3125 -33.484375 " clip-rule="nonzero"/></clipPath><clipPath id="67fade501d"><path d="M 16.175781 25.015625 L 40.925781 25.015625 L 40.925781 49.765625 L 16.175781 49.765625 Z M 16.175781 25.015625 " clip-rule="nonzero"/></clipPath></defs><rect x="-24" width="288" fill="#ffffff" y="-7.5" height="89.999996" fill-opacity="1"/><rect x="-24" width="288" fill="#ffffff" y="-7.5" height="89.999996" fill-opacity="1"/><rect x="-24" width="288" fill="#6c4892" y="-7.5" height="89.999996" fill-opacity="1"/><g clip-path="url(#c51926428e)"><g clip-path="url(#9bd92a5723)"><path fill="#4daddf" d="M -12.316406 -33.476562 L 73.144531 -13.554688 L 44.707031 108.414062 L -40.75 88.488281 L -12.316406 -33.476562 " fill-opacity="1" fill-rule="nonzero"/></g></g><g clip-path="url(#67fade501d)"><path fill="#6c4892" d="M 40.925781 37.390625 C 40.925781 44.230469 35.390625 49.765625 28.550781 49.765625 C 21.714844 49.765625 16.175781 44.230469 16.175781 37.390625 C 16.175781 30.554688 21.714844 25.015625 28.550781 25.015625 C 35.390625 25.015625 40.925781 30.554688 40.925781 37.390625 Z M 26.289062 43.917969 C 31.777344 43.917969 34.777344 39.371094 34.777344 35.429688 C 34.777344 35.300781 34.777344 35.171875 34.769531 35.046875 C 35.351562 34.625 35.859375 34.101562 36.261719 33.5 C 35.730469 33.734375 35.152344 33.894531 34.546875 33.96875 C 35.167969 33.597656 35.636719 33.015625 35.859375 32.316406 C 35.285156 32.65625 34.648438 32.90625 33.964844 33.042969 C 33.421875 32.460938 32.648438 32.101562 31.789062 32.101562 C 30.140625 32.101562 28.804688 33.4375 28.804688 35.082031 C 28.804688 35.320312 28.832031 35.546875 28.886719 35.765625 C 26.40625 35.640625 24.207031 34.453125 22.734375 32.644531 C 22.480469 33.085938 22.332031 33.597656 22.332031 34.144531 C 22.332031 35.175781 22.859375 36.09375 23.664062 36.625 C 23.175781 36.613281 22.71875 36.476562 22.316406 36.253906 C 22.316406 36.265625 22.316406 36.277344 22.316406 36.289062 C 22.316406 37.738281 23.34375 38.9375 24.710938 39.21875 C 24.460938 39.285156 24.195312 39.320312 23.925781 39.320312 C 23.730469 39.320312 23.546875 39.304688 23.359375 39.265625 C 23.738281 40.453125 24.839844 41.3125 26.144531 41.339844 C 25.125 42.136719 23.835938 42.613281 22.4375 42.613281 C 22.199219 42.613281 21.960938 42.601562 21.726562 42.570312 C 23.03125 43.425781 24.605469 43.917969 26.289062 43.917969 " fill-opacity="1" fill-rule="nonzero"/></g><g fill="#4daddf" fill-opacity="1"><g transform="translate(95.984462, 51.374995)"><g><path d="M 0.453125 0 L 6.0625 -24.296875 L 2.484375 -24.296875 L 3.8125 -30.0625 L 16.96875 -30.0625 L 15.640625 -24.296875 L 12.078125 -24.296875 L 6.46875 0 Z M 0.453125 0 "/></g></g></g><g fill="#4daddf" fill-opacity="1"><g transform="translate(109.841333, 51.374995)"><g><path d="M 0.203125 0 L 3.921875 -30.0625 L 9.796875 -30.0625 L 7.109375 -11.09375 L 13.15625 -30.0625 L 18.765625 -30.0625 L 16 -11.09375 L 21.984375 -30.0625 L 27.9375 -30.0625 L 17.703125 0 L 10.5 0 L 12.3125 -14.484375 L 7.5625 0 Z M 0.203125 0 "/></g></g></g><g fill="#4daddf" fill-opacity="1"><g transform="translate(134.755703, 51.374995)"><g><path d="M -2.390625 0 L 4.546875 -30.0625 L 10.359375 -30.0625 L 3.421875 0 Z M -2.390625 0 "/></g></g></g><g fill="#4daddf" fill-opacity="1"><g transform="translate(142.698909, 51.374995)"><g><path d="M 0.453125 0 L 6.0625 -24.296875 L 2.484375 -24.296875 L 3.8125 -30.0625 L 16.96875 -30.0625 L 15.640625 -24.296875 L 12.078125 -24.296875 L 6.46875 0 Z M 0.453125 0 "/></g></g></g><g fill="#4daddf" fill-opacity="1"><g transform="translate(156.55578, 51.374995)"><g><path d="M 0.453125 0 L 6.0625 -24.296875 L 2.484375 -24.296875 L 3.8125 -30.0625 L 16.96875 -30.0625 L 15.640625 -24.296875 L 12.078125 -24.296875 L 6.46875 0 Z M 0.453125 0 "/></g></g></g><g fill="#4daddf" fill-opacity="1"><g transform="translate(170.412651, 51.374995)"><g><path d="M -2.109375 0 L 4.828125 -30.0625 L 16.859375 -30.0625 L 15.53125 -24.25 L 9.625 -24.25 L 8.25 -18.40625 L 13.921875 -18.40625 L 12.625 -12.734375 L 6.96875 -12.734375 L 5.34375 -5.84375 L 11.65625 -5.84375 L 10.328125 0 Z M -2.109375 0 "/></g></g></g><g fill="#4daddf" fill-opacity="1"><g transform="translate(184.829391, 51.374995)"><g><path d="M 4.828125 -30.0625 L 14.0625 -30.0625 C 15.53125 -30.0625 16.59375 -29.726562 17.25 -29.0625 C 17.90625 -28.394531 18.234375 -27.460938 18.234375 -26.265625 C 18.234375 -25.066406 18.019531 -23.535156 17.59375 -21.671875 C 17.195312 -19.960938 16.664062 -18.628906 16 -17.671875 C 15.34375 -16.710938 14.414062 -16.050781 13.21875 -15.6875 C 14.082031 -15.5 14.632812 -15.039062 14.875 -14.3125 C 15.125 -13.59375 15.113281 -12.613281 14.84375 -11.375 L 12.140625 0 L 6.265625 0 L 8.953125 -11.765625 C 9.160156 -12.597656 9.125 -13.128906 8.84375 -13.359375 C 8.570312 -13.597656 8.003906 -13.71875 7.140625 -13.71875 L 3.984375 0 L -2.109375 0 Z M 9.828125 -18.9375 C 10.671875 -18.9375 11.300781 -19.847656 11.71875 -21.671875 C 11.90625 -22.460938 12.003906 -23.054688 12.015625 -23.453125 C 12.023438 -23.847656 11.953125 -24.117188 11.796875 -24.265625 C 11.648438 -24.421875 11.40625 -24.5 11.0625 -24.5 L 9.65625 -24.5 L 8.390625 -18.9375 Z M 9.828125 -18.9375 "/></g></g></g></svg>