<svg xmlns="http://www.w3.org/2000/svg" xmlns:xlink="http://www.w3.org/1999/xlink" width="320" zoomAndPan="magnify" viewBox="0 0 240 74.999997" height="100" preserveAspectRatio="xMidYMid meet" version="1.0"><defs><g/><clipPath id="7b3c833c2f"><path d="M 0 0 L 74 0 L 74 75 L 0 75 Z M 0 0 " clip-rule="nonzero"/></clipPath><clipPath id="97070c1345"><path d="M -12.3125 -33.484375 L 73.144531 -13.558594 L 44.707031 108.417969 L -40.75 88.496094 Z M -12.3125 -33.484375 " clip-rule="nonzero"/></clipPath><clipPath id="b9c69f3439"><path d="M 16.175781 24.972656 L 40.925781 24.972656 L 40.925781 49.722656 L 16.175781 49.722656 Z M 16.175781 24.972656 " clip-rule="nonzero"/></clipPath></defs><rect x="-24" width="288" fill="#ffffff" y="-7.5" height="89.999996" fill-opacity="1"/><rect x="-24" width="288" fill="#6c4892" y="-7.5" height="89.999996" fill-opacity="1"/><g clip-path="url(#7b3c833c2f)"><g clip-path="url(#97070c1345)"><path fill="#4daddf" d="M -12.316406 -33.476562 L 73.144531 -13.554688 L 44.707031 108.414062 L -40.75 88.488281 L -12.316406 -33.476562 " fill-opacity="1" fill-rule="nonzero"/></g></g><path fill="#6c4892" d="M 28.550781 34.605469 C 27.042969 34.605469 25.808594 35.835938 25.808594 37.347656 C 25.808594 38.859375 27.042969 40.089844 28.550781 40.089844 C 30.0625 40.089844 31.296875 38.859375 31.296875 37.347656 C 31.296875 35.835938 30.0625 34.605469 28.550781 34.605469 Z M 28.550781 34.605469 " fill-opacity="1" fill-rule="nonzero"/><path fill="#6c4892" d="M 32.238281 30.617188 L 24.867188 30.617188 C 23.195312 30.617188 21.824219 31.980469 21.824219 33.660156 L 21.824219 41.03125 C 21.824219 42.703125 23.183594 44.074219 24.867188 44.074219 L 32.238281 44.074219 C 33.910156 44.074219 35.28125 42.714844 35.28125 41.03125 L 35.28125 33.660156 C 35.269531 31.980469 33.910156 30.617188 32.238281 30.617188 Z M 28.550781 41.472656 C 26.269531 41.472656 24.417969 39.617188 24.417969 37.335938 C 24.417969 35.054688 26.269531 33.199219 28.550781 33.199219 C 30.835938 33.199219 32.6875 35.054688 32.6875 37.335938 C 32.675781 39.617188 30.824219 41.472656 28.550781 41.472656 Z M 32.976562 33.898438 C 32.429688 33.898438 31.980469 33.449219 31.980469 32.902344 C 31.980469 32.355469 32.429688 31.90625 32.976562 31.90625 C 33.523438 31.90625 33.972656 32.355469 33.972656 32.902344 C 33.972656 33.457031 33.535156 33.898438 32.976562 33.898438 Z M 32.976562 33.898438 " fill-opacity="1" fill-rule="nonzero"/><g clip-path="url(#b9c69f3439)"><path fill="#6c4892" d="M 28.550781 24.972656 C 21.714844 24.972656 16.175781 30.511719 16.175781 37.347656 C 16.175781 44.183594 21.714844 49.722656 28.550781 49.722656 C 35.386719 49.722656 40.925781 44.183594 40.925781 37.347656 C 40.917969 30.511719 35.378906 24.972656 28.550781 24.972656 Z M 36.664062 41.03125 C 36.664062 43.476562 34.671875 45.46875 32.226562 45.46875 L 24.867188 45.46875 C 22.421875 45.46875 20.429688 43.476562 20.429688 41.03125 L 20.429688 33.660156 C 20.429688 31.21875 22.421875 29.226562 24.867188 29.226562 L 32.238281 29.226562 C 34.679688 29.226562 36.671875 31.21875 36.671875 33.660156 L 36.671875 41.03125 Z M 36.664062 41.03125 " fill-opacity="1" fill-rule="nonzero"/></g><g fill="#4daddf" fill-opacity="1"><g transform="translate(73.121725, 51.374995)"><g><path d="M -2.390625 0 L 4.546875 -30.0625 L 10.359375 -30.0625 L 3.421875 0 Z M -2.390625 0 "/></g></g></g><g fill="#4daddf" fill-opacity="1"><g transform="translate(81.064931, 51.374995)"><g><path d="M -2.109375 0 L 4.828125 -30.0625 L 11.015625 -30.0625 L 10.46875 -15.6875 L 13.78125 -30.0625 L 19.59375 -30.0625 L 12.671875 0 L 6.78125 0 L 7.234375 -15.046875 L 3.78125 0 Z M -2.109375 0 "/></g></g></g><g fill="#4daddf" fill-opacity="1"><g transform="translate(98.490997, 51.374995)"><g><path d="M 4.96875 0.28125 C 2.238281 0.28125 0.425781 -0.394531 -0.46875 -1.75 C -1.375 -3.101562 -1.476562 -5.285156 -0.78125 -8.296875 L -0.109375 -11.234375 L 5.8125 -11.234375 L 4.9375 -7.484375 C 4.582031 -5.992188 4.882812 -5.25 5.84375 -5.25 C 6.375 -5.25 6.785156 -5.40625 7.078125 -5.71875 C 7.367188 -6.03125 7.597656 -6.5625 7.765625 -7.3125 C 7.992188 -8.289062 8.0625 -9.097656 7.96875 -9.734375 C 7.882812 -10.378906 7.710938 -10.914062 7.453125 -11.34375 C 7.191406 -11.78125 6.703125 -12.457031 5.984375 -13.375 L 3.984375 -15.953125 C 2.441406 -17.921875 1.941406 -20.09375 2.484375 -22.46875 C 3.066406 -25.03125 4.101562 -26.984375 5.59375 -28.328125 C 7.09375 -29.671875 8.972656 -30.34375 11.234375 -30.34375 C 13.941406 -30.34375 15.722656 -29.625 16.578125 -28.1875 C 17.441406 -26.757812 17.515625 -24.515625 16.796875 -21.453125 L 10.671875 -21.453125 L 11.125 -23.515625 C 11.21875 -23.910156 11.179688 -24.222656 11.015625 -24.453125 C 10.859375 -24.691406 10.582031 -24.8125 10.1875 -24.8125 C 9.71875 -24.8125 9.332031 -24.679688 9.03125 -24.421875 C 8.726562 -24.171875 8.53125 -23.820312 8.4375 -23.375 C 8.195312 -22.394531 8.519531 -21.378906 9.40625 -20.328125 L 12.140625 -16.96875 C 12.773438 -16.175781 13.273438 -15.425781 13.640625 -14.71875 C 14.015625 -14.007812 14.253906 -13.171875 14.359375 -12.203125 C 14.460938 -11.234375 14.363281 -10.082031 14.0625 -8.75 C 13.363281 -5.789062 12.296875 -3.546875 10.859375 -2.015625 C 9.429688 -0.484375 7.46875 0.28125 4.96875 0.28125 Z M 4.96875 0.28125 "/></g></g></g><g fill="#4daddf" fill-opacity="1"><g transform="translate(114.622359, 51.374995)"><g><path d="M 0.453125 0 L 6.0625 -24.296875 L 2.484375 -24.296875 L 3.8125 -30.0625 L 16.96875 -30.0625 L 15.640625 -24.296875 L 12.078125 -24.296875 L 6.46875 0 Z M 0.453125 0 "/></g></g></g><g fill="#4daddf" fill-opacity="1"><g transform="translate(128.47923, 51.374995)"><g><path d="M -2.90625 0 L 6.921875 -30.0625 L 17.109375 -30.0625 L 13.046875 0 L 7.34375 0 L 8.046875 -4.859375 L 4.40625 -4.859375 L 2.9375 0 Z M 5.984375 -9.65625 L 8.71875 -9.65625 L 10.875 -24.953125 L 10.59375 -24.953125 Z M 5.984375 -9.65625 "/></g></g></g><g fill="#4daddf" fill-opacity="1"><g transform="translate(145.450394, 51.374995)"><g><path d="M 4.015625 0.28125 C 1.847656 0.28125 0.410156 -0.484375 -0.296875 -2.015625 C -1.015625 -3.546875 -1.007812 -5.859375 -0.28125 -8.953125 L 2.6875 -21.90625 C 3.34375 -24.6875 4.453125 -26.785156 6.015625 -28.203125 C 7.578125 -29.628906 9.582031 -30.34375 12.03125 -30.34375 C 14.019531 -30.34375 15.46875 -29.945312 16.375 -29.15625 C 17.28125 -28.363281 17.769531 -27.207031 17.84375 -25.6875 C 17.914062 -24.175781 17.679688 -22.226562 17.140625 -19.84375 L 11.265625 -19.84375 L 11.890625 -22.546875 C 12.054688 -23.265625 12.085938 -23.820312 11.984375 -24.21875 C 11.878906 -24.613281 11.570312 -24.8125 11.0625 -24.8125 C 9.914062 -24.8125 9.164062 -24.066406 8.8125 -22.578125 L 5.453125 -8.015625 C 5.242188 -7.109375 5.195312 -6.421875 5.3125 -5.953125 C 5.425781 -5.484375 5.773438 -5.25 6.359375 -5.25 C 6.941406 -5.25 7.410156 -5.484375 7.765625 -5.953125 C 8.117188 -6.421875 8.398438 -7.109375 8.609375 -8.015625 L 9.59375 -12.3125 L 7.96875 -12.3125 L 9.171875 -17.5 L 16.515625 -17.5 L 12.484375 0 L 10.078125 0 L 9.625 -2.515625 C 8.125 -0.648438 6.253906 0.28125 4.015625 0.28125 Z M 4.015625 0.28125 "/></g></g></g><g fill="#4daddf" fill-opacity="1"><g transform="translate(162.421557, 51.374995)"><g><path d="M 4.828125 -30.0625 L 14.0625 -30.0625 C 15.53125 -30.0625 16.59375 -29.726562 17.25 -29.0625 C 17.90625 -28.394531 18.234375 -27.460938 18.234375 -26.265625 C 18.234375 -25.066406 18.019531 -23.535156 17.59375 -21.671875 C 17.195312 -19.960938 16.664062 -18.628906 16 -17.671875 C 15.34375 -16.710938 14.414062 -16.050781 13.21875 -15.6875 C 14.082031 -15.5 14.632812 -15.039062 14.875 -14.3125 C 15.125 -13.59375 15.113281 -12.613281 14.84375 -11.375 L 12.140625 0 L 6.265625 0 L 8.953125 -11.765625 C 9.160156 -12.597656 9.125 -13.128906 8.84375 -13.359375 C 8.570312 -13.597656 8.003906 -13.71875 7.140625 -13.71875 L 3.984375 0 L -2.109375 0 Z M 9.828125 -18.9375 C 10.671875 -18.9375 11.300781 -19.847656 11.71875 -21.671875 C 11.90625 -22.460938 12.003906 -23.054688 12.015625 -23.453125 C 12.023438 -23.847656 11.953125 -24.117188 11.796875 -24.265625 C 11.648438 -24.421875 11.40625 -24.5 11.0625 -24.5 L 9.65625 -24.5 L 8.390625 -18.9375 Z M 9.828125 -18.9375 "/></g></g></g><g fill="#4daddf" fill-opacity="1"><g transform="translate(179.112786, 51.374995)"><g><path d="M -2.90625 0 L 6.921875 -30.0625 L 17.109375 -30.0625 L 13.046875 0 L 7.34375 0 L 8.046875 -4.859375 L 4.40625 -4.859375 L 2.9375 0 Z M 5.984375 -9.65625 L 8.71875 -9.65625 L 10.875 -24.953125 L 10.59375 -24.953125 Z M 5.984375 -9.65625 "/></g></g></g><g fill="#4daddf" fill-opacity="1"><g transform="translate(196.08395, 51.374995)"><g><path d="M -2.109375 0 L 4.828125 -30.0625 L 14 -30.0625 L 12.28125 -11.71875 L 19.03125 -30.0625 L 28.28125 -30.0625 L 21.34375 0 L 15.84375 0 L 20.859375 -21.671875 L 12.390625 0 L 7 0 L 8.328125 -21.671875 L 3.328125 0 Z M -2.109375 0 "/></g></g></g></svg>