<svg xmlns="http://www.w3.org/2000/svg" xmlns:xlink="http://www.w3.org/1999/xlink" width="320" zoomAndPan="magnify" viewBox="0 0 240 74.999997" height="100" preserveAspectRatio="xMidYMid meet" version="1.0"><defs><g/><clipPath id="0f48eead3d"><path d="M 0 0 L 74 0 L 74 75 L 0 75 Z M 0 0 " clip-rule="nonzero"/></clipPath><clipPath id="69155206e3"><path d="M -12.3125 -33.484375 L 73.144531 -13.558594 L 44.707031 108.417969 L -40.75 88.496094 Z M -12.3125 -33.484375 " clip-rule="nonzero"/></clipPath><clipPath id="d9428605b1"><path d="M 16.175781 25.191406 L 40.925781 25.191406 L 40.925781 49.941406 L 16.175781 49.941406 Z M 16.175781 25.191406 " clip-rule="nonzero"/></clipPath><clipPath id="aeb1a23542"><path d="M 16.175781 25.191406 L 40.925781 25.191406 L 40.925781 49.941406 L 16.175781 49.941406 Z M 16.175781 25.191406 " clip-rule="nonzero"/></clipPath><clipPath id="cc1d2f490f"><path d="M 28.550781 25.199219 C 21.730469 25.199219 16.183594 30.75 16.183594 37.566406 C 16.183594 40.273438 17.058594 42.78125 18.539062 44.816406 L 17 49.414062 L 21.753906 47.894531 C 23.707031 49.1875 26.042969 49.9375 28.558594 49.9375 C 35.378906 49.9375 40.925781 44.386719 40.925781 37.570312 C 40.925781 30.75 35.378906 25.203125 28.558594 25.203125 L 28.550781 25.203125 Z M 28.550781 25.199219 " clip-rule="nonzero"/></clipPath></defs><rect x="-24" width="288" fill="#ffffff" y="-7.5" height="89.999996" fill-opacity="1"/><rect x="-24" width="288" fill="#6c4892" y="-7.5" height="89.999996" fill-opacity="1"/><g clip-path="url(#0f48eead3d)"><g clip-path="url(#69155206e3)"><path fill="#4daddf" d="M -12.316406 -33.476562 L 73.144531 -13.554688 L 44.707031 108.414062 L -40.75 88.488281 L -12.316406 -33.476562 " fill-opacity="1" fill-rule="nonzero"/></g></g><g clip-path="url(#d9428605b1)"><path fill="#4daddf" d="M 28.550781 49.933594 C 26.078125 49.9375 23.8125 49.253906 21.746094 47.894531 L 16.992188 49.410156 L 18.53125 44.816406 C 17.765625 43.765625 17.179688 42.621094 16.777344 41.378906 C 16.375 40.140625 16.175781 38.871094 16.175781 37.566406 C 16.175781 30.746094 21.726562 25.199219 28.542969 25.199219 C 35.363281 25.199219 40.910156 30.746094 40.910156 37.566406 C 40.910156 44.386719 35.367188 49.933594 28.542969 49.933594 Z M 28.550781 49.933594 " fill-opacity="1" fill-rule="nonzero"/></g><g clip-path="url(#aeb1a23542)"><g clip-path="url(#cc1d2f490f)"><path fill="#6c4892" d="M 16.183594 25.199219 L 16.183594 49.9375 L 40.925781 49.9375 L 40.925781 25.199219 Z M 16.183594 25.199219 " fill-opacity="1" fill-rule="nonzero"/></g></g><path fill="#4daddf" d="M 25.097656 31.484375 C 24.867188 30.90625 24.675781 30.886719 24.3125 30.863281 L 23.898438 30.847656 C 23.425781 30.847656 22.933594 30.988281 22.632812 31.292969 C 22.269531 31.664062 21.367188 32.527344 21.367188 34.300781 C 21.367188 36.078125 22.664062 37.792969 22.839844 38.03125 C 23.019531 38.265625 25.359375 41.964844 28.996094 43.472656 C 31.839844 44.648438 32.683594 44.539062 33.332031 44.402344 C 34.277344 44.199219 35.460938 43.5 35.757812 42.65625 C 36.058594 41.8125 36.058594 41.09375 35.96875 40.941406 C 35.882812 40.785156 35.640625 40.707031 35.277344 40.519531 C 34.914062 40.328125 33.148438 39.464844 32.8125 39.347656 C 32.488281 39.222656 32.175781 39.265625 31.925781 39.617188 C 31.578125 40.101562 31.234375 40.597656 30.960938 40.894531 C 30.742188 41.128906 30.386719 41.160156 30.085938 41.035156 C 29.6875 40.867188 28.566406 40.476562 27.1875 39.246094 C 26.117188 38.292969 25.390625 37.109375 25.179688 36.753906 C 24.96875 36.386719 25.160156 36.175781 25.324219 35.980469 C 25.507812 35.753906 25.679688 35.597656 25.863281 35.386719 C 26.046875 35.175781 26.148438 35.066406 26.261719 34.820312 C 26.386719 34.585938 26.300781 34.332031 26.210938 34.148438 C 26.125 33.96875 25.398438 32.191406 25.101562 31.472656 Z M 25.097656 31.484375 " fill-opacity="1" fill-rule="nonzero"/><g fill="#4daddf" fill-opacity="1"><g transform="translate(79.030815, 51.374995)"><g><path d="M 0.203125 0 L 3.921875 -30.0625 L 9.796875 -30.0625 L 7.109375 -11.09375 L 13.15625 -30.0625 L 18.765625 -30.0625 L 16 -11.09375 L 21.984375 -30.0625 L 27.9375 -30.0625 L 17.703125 0 L 10.5 0 L 12.3125 -14.484375 L 7.5625 0 Z M 0.203125 0 "/></g></g></g><g fill="#4daddf" fill-opacity="1"><g transform="translate(103.945185, 51.374995)"><g><path d="M -2.109375 0 L 4.828125 -30.0625 L 10.8125 -30.0625 L 8.328125 -19.3125 L 11.15625 -19.3125 L 13.640625 -30.0625 L 19.625 -30.0625 L 12.703125 0 L 6.71875 0 L 9.859375 -13.65625 L 7.03125 -13.65625 L 3.875 0 Z M -2.109375 0 "/></g></g></g><g fill="#4daddf" fill-opacity="1"><g transform="translate(121.406235, 51.374995)"><g><path d="M -2.90625 0 L 6.921875 -30.0625 L 17.109375 -30.0625 L 13.046875 0 L 7.34375 0 L 8.046875 -4.859375 L 4.40625 -4.859375 L 2.9375 0 Z M 5.984375 -9.65625 L 8.71875 -9.65625 L 10.875 -24.953125 L 10.59375 -24.953125 Z M 5.984375 -9.65625 "/></g></g></g><g fill="#4daddf" fill-opacity="1"><g transform="translate(138.377399, 51.374995)"><g><path d="M 0.453125 0 L 6.0625 -24.296875 L 2.484375 -24.296875 L 3.8125 -30.0625 L 16.96875 -30.0625 L 15.640625 -24.296875 L 12.078125 -24.296875 L 6.46875 0 Z M 0.453125 0 "/></g></g></g><g fill="#4daddf" fill-opacity="1"><g transform="translate(152.23427, 51.374995)"><g><path d="M 4.96875 0.28125 C 2.238281 0.28125 0.425781 -0.394531 -0.46875 -1.75 C -1.375 -3.101562 -1.476562 -5.285156 -0.78125 -8.296875 L -0.109375 -11.234375 L 5.8125 -11.234375 L 4.9375 -7.484375 C 4.582031 -5.992188 4.882812 -5.25 5.84375 -5.25 C 6.375 -5.25 6.785156 -5.40625 7.078125 -5.71875 C 7.367188 -6.03125 7.597656 -6.5625 7.765625 -7.3125 C 7.992188 -8.289062 8.0625 -9.097656 7.96875 -9.734375 C 7.882812 -10.378906 7.710938 -10.914062 7.453125 -11.34375 C 7.191406 -11.78125 6.703125 -12.457031 5.984375 -13.375 L 3.984375 -15.953125 C 2.441406 -17.921875 1.941406 -20.09375 2.484375 -22.46875 C 3.066406 -25.03125 4.101562 -26.984375 5.59375 -28.328125 C 7.09375 -29.671875 8.972656 -30.34375 11.234375 -30.34375 C 13.941406 -30.34375 15.722656 -29.625 16.578125 -28.1875 C 17.441406 -26.757812 17.515625 -24.515625 16.796875 -21.453125 L 10.671875 -21.453125 L 11.125 -23.515625 C 11.21875 -23.910156 11.179688 -24.222656 11.015625 -24.453125 C 10.859375 -24.691406 10.582031 -24.8125 10.1875 -24.8125 C 9.71875 -24.8125 9.332031 -24.679688 9.03125 -24.421875 C 8.726562 -24.171875 8.53125 -23.820312 8.4375 -23.375 C 8.195312 -22.394531 8.519531 -21.378906 9.40625 -20.328125 L 12.140625 -16.96875 C 12.773438 -16.175781 13.273438 -15.425781 13.640625 -14.71875 C 14.015625 -14.007812 14.253906 -13.171875 14.359375 -12.203125 C 14.460938 -11.234375 14.363281 -10.082031 14.0625 -8.75 C 13.363281 -5.789062 12.296875 -3.546875 10.859375 -2.015625 C 9.429688 -0.484375 7.46875 0.28125 4.96875 0.28125 Z M 4.96875 0.28125 "/></g></g></g><g fill="#4daddf" fill-opacity="1"><g transform="translate(168.365632, 51.374995)"><g><path d="M -2.90625 0 L 6.921875 -30.0625 L 17.109375 -30.0625 L 13.046875 0 L 7.34375 0 L 8.046875 -4.859375 L 4.40625 -4.859375 L 2.9375 0 Z M 5.984375 -9.65625 L 8.71875 -9.65625 L 10.875 -24.953125 L 10.59375 -24.953125 Z M 5.984375 -9.65625 "/></g></g></g><g fill="#4daddf" fill-opacity="1"><g transform="translate(185.336796, 51.374995)"><g><path d="M 4.828125 -30.0625 L 12.765625 -30.0625 C 15.171875 -30.0625 16.707031 -29.285156 17.375 -27.734375 C 18.039062 -26.179688 18.035156 -23.914062 17.359375 -20.9375 C 16.660156 -17.945312 15.679688 -15.691406 14.421875 -14.171875 C 13.160156 -12.660156 11.347656 -11.90625 8.984375 -11.90625 L 6.546875 -11.90625 L 3.8125 0 L -2.109375 0 Z M 8.15625 -17.328125 C 8.875 -17.328125 9.429688 -17.457031 9.828125 -17.71875 C 10.222656 -17.988281 10.53125 -18.375 10.75 -18.875 C 10.976562 -19.382812 11.207031 -20.101562 11.4375 -21.03125 C 11.71875 -22.289062 11.78125 -23.203125 11.625 -23.765625 C 11.476562 -24.328125 10.984375 -24.609375 10.140625 -24.609375 L 9.484375 -24.609375 L 7.796875 -17.328125 Z M 8.15625 -17.328125 "/></g></g></g><g fill="#4daddf" fill-opacity="1"><g transform="translate(201.853068, 51.374995)"><g><path d="M 4.828125 -30.0625 L 12.765625 -30.0625 C 15.171875 -30.0625 16.707031 -29.285156 17.375 -27.734375 C 18.039062 -26.179688 18.035156 -23.914062 17.359375 -20.9375 C 16.660156 -17.945312 15.679688 -15.691406 14.421875 -14.171875 C 13.160156 -12.660156 11.347656 -11.90625 8.984375 -11.90625 L 6.546875 -11.90625 L 3.8125 0 L -2.109375 0 Z M 8.15625 -17.328125 C 8.875 -17.328125 9.429688 -17.457031 9.828125 -17.71875 C 10.222656 -17.988281 10.53125 -18.375 10.75 -18.875 C 10.976562 -19.382812 11.207031 -20.101562 11.4375 -21.03125 C 11.71875 -22.289062 11.78125 -23.203125 11.625 -23.765625 C 11.476562 -24.328125 10.984375 -24.609375 10.140625 -24.609375 L 9.484375 -24.609375 L 7.796875 -17.328125 Z M 8.15625 -17.328125 "/></g></g></g></svg>