<svg xmlns="http://www.w3.org/2000/svg" xmlns:xlink="http://www.w3.org/1999/xlink" width="320" zoomAndPan="magnify" viewBox="0 0 240 74.999997" height="100" preserveAspectRatio="xMidYMid meet" version="1.0"><defs><g/><clipPath id="f1c5363c1e"><path d="M 0 0 L 74 0 L 74 75 L 0 75 Z M 0 0 " clip-rule="nonzero"/></clipPath><clipPath id="e0cec231fd"><path d="M -12.3125 -33.484375 L 73.144531 -13.558594 L 44.707031 108.417969 L -40.75 88.496094 Z M -12.3125 -33.484375 " clip-rule="nonzero"/></clipPath><clipPath id="863d4285ae"><path d="M 16.175781 25.0625 L 40.925781 25.0625 L 40.925781 49.8125 L 16.175781 49.8125 Z M 16.175781 25.0625 " clip-rule="nonzero"/></clipPath></defs><rect x="-24" width="288" fill="#ffffff" y="-7.5" height="89.999996" fill-opacity="1"/><rect x="-24" width="288" fill="#6c4892" y="-7.5" height="89.999996" fill-opacity="1"/><g clip-path="url(#f1c5363c1e)"><g clip-path="url(#e0cec231fd)"><path fill="#4daddf" d="M -12.316406 -33.476562 L 73.144531 -13.554688 L 44.707031 108.414062 L -40.75 88.488281 L -12.316406 -33.476562 " fill-opacity="1" fill-rule="nonzero"/></g></g><g clip-path="url(#863d4285ae)"><path fill="#6c4892" d="M 28.527344 25.046875 C 21.710938 25.046875 16.164062 30.59375 16.164062 37.410156 C 16.164062 44.226562 21.710938 49.773438 28.527344 49.773438 C 35.34375 49.773438 40.890625 44.226562 40.890625 37.410156 C 40.890625 30.59375 35.34375 25.046875 28.527344 25.046875 Z M 31.601562 37.847656 L 29.589844 37.847656 C 29.589844 41.058594 29.589844 45.015625 29.589844 45.015625 L 26.609375 45.015625 C 26.609375 45.015625 26.609375 41.097656 26.609375 37.847656 L 25.191406 37.847656 L 25.191406 35.3125 L 26.609375 35.3125 L 26.609375 33.671875 C 26.609375 32.5 27.167969 30.664062 29.617188 30.664062 L 31.824219 30.675781 L 31.824219 33.132812 C 31.824219 33.132812 30.484375 33.132812 30.222656 33.132812 C 29.960938 33.132812 29.589844 33.265625 29.589844 33.824219 L 29.589844 35.3125 L 31.863281 35.3125 Z M 31.601562 37.847656 " fill-opacity="1" fill-rule="nonzero"/></g><g fill="#4daddf" fill-opacity="1"><g transform="translate(86.001019, 51.374995)"><g><path d="M -2.109375 0 L 4.828125 -30.0625 L 16.859375 -30.0625 L 15.53125 -24.21875 L 9.546875 -24.21875 L 8.4375 -19.421875 L 14.09375 -19.421875 L 12.765625 -13.65625 L 7.09375 -13.65625 L 3.953125 0 Z M -2.109375 0 "/></g></g></g><g fill="#4daddf" fill-opacity="1"><g transform="translate(99.962867, 51.374995)"><g><path d="M -2.90625 0 L 6.921875 -30.0625 L 17.109375 -30.0625 L 13.046875 0 L 7.34375 0 L 8.046875 -4.859375 L 4.40625 -4.859375 L 2.9375 0 Z M 5.984375 -9.65625 L 8.71875 -9.65625 L 10.875 -24.953125 L 10.59375 -24.953125 Z M 5.984375 -9.65625 "/></g></g></g><g fill="#4daddf" fill-opacity="1"><g transform="translate(116.934031, 51.374995)"><g><path d="M 4.828125 0.28125 C 2.628906 0.28125 1.03125 -0.40625 0.03125 -1.78125 C -0.96875 -3.15625 -1.191406 -5.046875 -0.640625 -7.453125 L 2.546875 -21.3125 C 3.242188 -24.300781 4.363281 -26.550781 5.90625 -28.0625 C 7.445312 -29.582031 9.488281 -30.34375 12.03125 -30.34375 C 14.25 -30.34375 15.894531 -29.734375 16.96875 -28.515625 C 18.039062 -27.304688 18.3125 -25.5625 17.78125 -23.28125 L 16.59375 -18.09375 L 10.59375 -18.09375 L 11.65625 -22.546875 C 11.84375 -23.398438 11.867188 -23.988281 11.734375 -24.3125 C 11.609375 -24.644531 11.289062 -24.8125 10.78125 -24.8125 C 10.238281 -24.8125 9.820312 -24.625 9.53125 -24.25 C 9.238281 -23.875 9.007812 -23.328125 8.84375 -22.609375 L 5.34375 -7.53125 C 5.1875 -6.726562 5.175781 -6.144531 5.3125 -5.78125 C 5.457031 -5.425781 5.757812 -5.25 6.21875 -5.25 C 7.15625 -5.25 7.800781 -6.007812 8.15625 -7.53125 L 9.40625 -12.953125 L 15.46875 -12.953125 L 14.171875 -7.28125 C 13.003906 -2.238281 9.890625 0.28125 4.828125 0.28125 Z M 4.828125 0.28125 "/></g></g></g><g fill="#4daddf" fill-opacity="1"><g transform="translate(133.520283, 51.374995)"><g><path d="M -2.109375 0 L 4.828125 -30.0625 L 16.859375 -30.0625 L 15.53125 -24.25 L 9.625 -24.25 L 8.25 -18.40625 L 13.921875 -18.40625 L 12.625 -12.734375 L 6.96875 -12.734375 L 5.34375 -5.84375 L 11.65625 -5.84375 L 10.328125 0 Z M -2.109375 0 "/></g></g></g><g fill="#4daddf" fill-opacity="1"><g transform="translate(147.937023, 51.374995)"><g><path d="M 4.828125 -30.0625 L 12.984375 -30.0625 C 15.171875 -30.0625 16.640625 -29.523438 17.390625 -28.453125 C 18.140625 -27.378906 18.234375 -25.628906 17.671875 -23.203125 L 17.359375 -21.875 C 16.703125 -19 15.28125 -17.285156 13.09375 -16.734375 C 14.28125 -16.398438 14.988281 -15.640625 15.21875 -14.453125 C 15.457031 -13.265625 15.351562 -11.691406 14.90625 -9.734375 C 14.15625 -6.535156 13.113281 -4.113281 11.78125 -2.46875 C 10.457031 -0.820312 8.546875 0 6.046875 0 L -2.109375 0 Z M 9.34375 -18.765625 C 9.851562 -18.765625 10.242188 -18.957031 10.515625 -19.34375 C 10.785156 -19.726562 11 -20.269531 11.15625 -20.96875 L 11.859375 -23.96875 C 12.097656 -24.945312 11.785156 -25.4375 10.921875 -25.4375 L 9.65625 -25.4375 L 8.109375 -18.765625 Z M 5.59375 -5.28125 C 7.15625 -5.28125 8.101562 -6.03125 8.4375 -7.53125 L 9.3125 -11.265625 C 9.519531 -12.179688 9.539062 -12.867188 9.375 -13.328125 C 9.207031 -13.796875 8.785156 -14.03125 8.109375 -14.03125 L 7 -14.03125 L 5 -5.3125 Z M 5.59375 -5.28125 "/></g></g></g><g fill="#4daddf" fill-opacity="1"><g transform="translate(164.698233, 51.374995)"><g><path d="M 5 0.28125 C 2.570312 0.28125 0.898438 -0.457031 -0.015625 -1.9375 C -0.941406 -3.425781 -1.085938 -5.507812 -0.453125 -8.1875 L 2.828125 -22.5 C 3.429688 -25.09375 4.515625 -27.046875 6.078125 -28.359375 C 7.648438 -29.679688 9.648438 -30.34375 12.078125 -30.34375 C 14.503906 -30.34375 16.191406 -29.679688 17.140625 -28.359375 C 18.097656 -27.046875 18.273438 -25.09375 17.671875 -22.5 L 14.375 -8.1875 C 13.75 -5.476562 12.632812 -3.390625 11.03125 -1.921875 C 9.4375 -0.453125 7.425781 0.28125 5 0.28125 Z M 6.265625 -5.25 C 6.796875 -5.25 7.210938 -5.484375 7.515625 -5.953125 C 7.816406 -6.421875 8.0625 -7.070312 8.25 -7.90625 L 11.65625 -22.609375 C 11.789062 -23.265625 11.820312 -23.796875 11.75 -24.203125 C 11.6875 -24.609375 11.382812 -24.8125 10.84375 -24.8125 C 9.84375 -24.8125 9.164062 -24.054688 8.8125 -22.546875 L 5.421875 -7.875 C 5.210938 -7.007812 5.160156 -6.351562 5.265625 -5.90625 C 5.367188 -5.46875 5.703125 -5.25 6.265625 -5.25 Z M 6.265625 -5.25 "/></g></g></g><g fill="#4daddf" fill-opacity="1"><g transform="translate(181.704393, 51.374995)"><g><path d="M 5 0.28125 C 2.570312 0.28125 0.898438 -0.457031 -0.015625 -1.9375 C -0.941406 -3.425781 -1.085938 -5.507812 -0.453125 -8.1875 L 2.828125 -22.5 C 3.429688 -25.09375 4.515625 -27.046875 6.078125 -28.359375 C 7.648438 -29.679688 9.648438 -30.34375 12.078125 -30.34375 C 14.503906 -30.34375 16.191406 -29.679688 17.140625 -28.359375 C 18.097656 -27.046875 18.273438 -25.09375 17.671875 -22.5 L 14.375 -8.1875 C 13.75 -5.476562 12.632812 -3.390625 11.03125 -1.921875 C 9.4375 -0.453125 7.425781 0.28125 5 0.28125 Z M 6.265625 -5.25 C 6.796875 -5.25 7.210938 -5.484375 7.515625 -5.953125 C 7.816406 -6.421875 8.0625 -7.070312 8.25 -7.90625 L 11.65625 -22.609375 C 11.789062 -23.265625 11.820312 -23.796875 11.75 -24.203125 C 11.6875 -24.609375 11.382812 -24.8125 10.84375 -24.8125 C 9.84375 -24.8125 9.164062 -24.054688 8.8125 -22.546875 L 5.421875 -7.875 C 5.210938 -7.007812 5.160156 -6.351562 5.265625 -5.90625 C 5.367188 -5.46875 5.703125 -5.25 6.265625 -5.25 Z M 6.265625 -5.25 "/></g></g></g><g fill="#4daddf" fill-opacity="1"><g transform="translate(198.710552, 51.374995)"><g><path d="M -2.109375 0 L 4.828125 -30.0625 L 10.78125 -30.0625 L 8.015625 -18.03125 L 13.578125 -30.0625 L 19.625 -30.0625 L 13.09375 -16.3125 L 13.40625 0 L 7.171875 0 L 7.234375 -14.5625 L 3.875 0 Z M -2.109375 0 "/></g></g></g></svg>