<svg xmlns="http://www.w3.org/2000/svg" width="9216" viewBox="0 0 6912 1728" height="2304" version="1.0"><defs><clipPath id="q"><path d="m-771.79 3625.422 159.911-2573.54 2176.05 135.212-159.905 2573.535Zm0 0"/></clipPath><clipPath id="a"><path d="M5211 0h1701v1728H5211Zm0 0"/></clipPath><clipPath id="c"><path d="M5516.04 1728 5152.644 0H6912v1728Zm0 0" clip-rule="evenodd"/></clipPath><clipPath id="d"><path d="M5547.078-361.121c-224.043 66.672-366.152 293.258-330.312 523.836 27.152 178.336 149.257 316 304.996 372.972 77.32 28.602 123.793 107.403 114.68 189.84-7.317 63.657-4.66 130.965 9.238 197.063 40.773 193.879 167.453 347.836 333.156 430.316 96.27 47.625 155.957 145.5 161.21 252.524 1.79 46.789 9.548 94.62 22.813 141.293 85.559 302.941 389.2 494.453 699.254 443.054 352.371-58 581.215-397.152 508.473-743.05-30.113-143.204-107.242-263.872-210.52-350.282-104.609-87.277-131.246-235.816-62.886-353.722 79.203-137.438 107.113-305.5 62.629-473.29-82.082-308.273-390.645-506.804-704.875-453.374-36.579 6.543-70.489 14.824-104.805 26.64-114.602 40.203-240.262 11.418-324.352-76.726-116.89-123.809-299.117-180.961-478.699-127.094Zm0 0"/></clipPath><clipPath id="F"><path d="M4739 462.25h692v375h-692Zm0 0"/></clipPath><clipPath id="f"><path d="M5813 1498h269v230h-269Zm0 0"/></clipPath><clipPath id="g"><path d="M5516.04 1728 5152.644 0H6912v1728Zm0 0" clip-rule="evenodd"/></clipPath><clipPath id="h"><path d="M5516.04 1728 5152.644 0H6912v1728Zm0 0" clip-rule="evenodd"/></clipPath><clipPath id="i"><path d="M5920.266 1500.96c2.148-.452 4.3-.847 6.464-1.194a135.15 135.15 0 0 1 13.067-1.43c2.187-.133 4.379-.211 6.57-.234 2.192-.024 4.383.007 6.57.09 2.192.085 4.38.222 6.563.413 2.184.192 4.36.434 6.531.735 2.172.297 4.336.648 6.489 1.05 2.156.407 4.296.864 6.43 1.372 2.132.511 4.25 1.07 6.355 1.683a134.026 134.026 0 0 1 12.422 4.297c2.035.817 4.046 1.68 6.039 2.598 1.992.914 3.96 1.879 5.902 2.89a132.733 132.733 0 0 1 11.348 6.637c1.836 1.2 3.64 2.442 5.414 3.727a129.853 129.853 0 0 1 5.226 3.988 133.422 133.422 0 0 1 5.028 4.238 137.149 137.149 0 0 1 9.394 9.196 140.496 140.496 0 0 1 4.348 4.93 132.83 132.83 0 0 1 7.945 10.477 131.74 131.74 0 0 1 3.578 5.514 136.954 136.954 0 0 1 3.301 5.684 135.068 135.068 0 0 1 5.75 11.82 134.022 134.022 0 0 1 9.09 31.512c.347 2.164.637 4.336.879 6.516.238 2.18.422 4.363.554 6.55a136.53 136.53 0 0 1 .145 13.145 136.308 136.308 0 0 1-1.145 13.098 134.336 134.336 0 0 1-10.996 37.738 132.788 132.788 0 0 1-6.07 11.66 134.355 134.355 0 0 1-3.453 5.594 138.6 138.6 0 0 1-3.727 5.418 139.728 139.728 0 0 1-3.988 5.226 133.766 133.766 0 0 1-8.719 9.836 130.33 130.33 0 0 1-4.71 4.582 133.434 133.434 0 0 1-26.598 19.176 130.911 130.911 0 0 1-5.84 3.02c-1.973.96-3.965 1.87-5.98 2.73-2.016.86-4.051 1.672-6.106 2.434a134.022 134.022 0 0 1-64.7 7.086 134.385 134.385 0 0 1-19.27-4.11 129.687 129.687 0 0 1-6.264-1.996 132.286 132.286 0 0 1-12.196-4.898 133.08 133.08 0 0 1-17.25-9.528 127.96 127.96 0 0 1-5.418-3.726 131.792 131.792 0 0 1-5.226-3.988 136.482 136.482 0 0 1-5.024-4.239 137.29 137.29 0 0 1-4.808-4.48 130.459 130.459 0 0 1-4.586-4.715 132.778 132.778 0 0 1-8.45-10.07 134.35 134.35 0 0 1-7.422-10.848 135.27 135.27 0 0 1-9.05-17.508 132.508 132.508 0 0 1-2.434-6.11 129.567 129.567 0 0 1-2.129-6.218c-.66-2.09-1.27-4.2-1.824-6.316a137.234 137.234 0 0 1-1.512-6.403 138.38 138.38 0 0 1-1.195-6.464 135.15 135.15 0 0 1-1.43-13.067c-.132-2.187-.21-4.379-.234-6.57-.023-2.192.008-4.383.09-6.574.082-2.192.219-4.38.41-6.563a135.867 135.867 0 0 1 1.785-13.023 138.26 138.26 0 0 1 1.371-6.43 134.132 134.132 0 0 1 3.676-12.621 135.05 135.05 0 0 1 7.79-18.105 135.062 135.062 0 0 1 3.175-5.755c1.11-1.89 2.258-3.757 3.457-5.593 1.2-1.836 2.441-3.64 3.727-5.414a126.32 126.32 0 0 1 3.988-5.227 129.834 129.834 0 0 1 4.238-5.027 130.197 130.197 0 0 1 4.48-4.809 127.215 127.215 0 0 1 4.712-4.586 126.855 126.855 0 0 1 4.93-4.347c1.679-1.41 3.39-2.778 5.136-4.102a127.924 127.924 0 0 1 5.332-3.844 130.368 130.368 0 0 1 5.516-3.578 132.772 132.772 0 0 1 11.523-6.324 135.46 135.46 0 0 1 5.98-2.73c2.016-.86 4.051-1.672 6.106-2.434a138.791 138.791 0 0 1 6.219-2.129c2.09-.66 4.195-1.266 6.316-1.82 2.117-.559 4.25-1.063 6.395-1.512Zm0 0"/></clipPath><clipPath id="E"><path d="M4608 1051.832h691.707v375H4608Zm0 0"/></clipPath><clipPath id="k"><path d="M5362 911h161v161h-161Zm0 0"/></clipPath><clipPath id="l"><path d="M5516.04 1728 5152.644 0H6912v1728Zm0 0" clip-rule="evenodd"/></clipPath><clipPath id="m"><path d="M5516.04 1728 5152.644 0H6912v1728Zm0 0" clip-rule="evenodd"/></clipPath><clipPath id="n"><path d="M5426.402 913.488a80.769 80.769 0 0 1 3.86-.715 80.742 80.742 0 0 1 3.886-.523 81.825 81.825 0 0 1 7.829-.469 82.067 82.067 0 0 1 3.921.055c1.305.05 2.61.133 3.914.246 1.301.113 2.602.258 3.899.438a80.661 80.661 0 0 1 7.707 1.445c1.27.305 2.535.64 3.789 1.004a81.535 81.535 0 0 1 7.414 2.562 79.393 79.393 0 0 1 7.125 3.277 81.408 81.408 0 0 1 3.434 1.895 78.978 78.978 0 0 1 6.566 4.29 76.313 76.313 0 0 1 3.117 2.378 80.15 80.15 0 0 1 3 2.527 84.43 84.43 0 0 1 2.867 2.676 77.497 77.497 0 0 1 2.739 2.813c.886.957 1.75 1.937 2.593 2.941a80.139 80.139 0 0 1 4.738 6.25 83.071 83.071 0 0 1 2.137 3.29 79.382 79.382 0 0 1 5.398 10.445 78.346 78.346 0 0 1 2.723 7.355 78.411 78.411 0 0 1 1.09 3.77 80.769 80.769 0 0 1 1.613 7.676c.208 1.292.38 2.585.524 3.886a81.988 81.988 0 0 1 .469 7.828 82.228 82.228 0 0 1-.05 3.926 82.203 82.203 0 0 1-.247 3.914 87.454 87.454 0 0 1-.437 3.898 80.662 80.662 0 0 1-1.446 7.707 79.714 79.714 0 0 1-1.008 3.793 79.77 79.77 0 0 1-2.558 7.414 81.256 81.256 0 0 1-3.274 7.125 81.486 81.486 0 0 1-3.957 6.77 76.5 76.5 0 0 1-2.226 3.234 76.314 76.314 0 0 1-2.38 3.118 80.148 80.148 0 0 1-2.526 3 80.529 80.529 0 0 1-8.426 8.199c-1 .84-2.024 1.656-3.067 2.445a76.238 76.238 0 0 1-3.18 2.293 78.886 78.886 0 0 1-3.288 2.137 81.506 81.506 0 0 1-3.395 1.969 81.422 81.422 0 0 1-3.48 1.804 84.025 84.025 0 0 1-3.57 1.63 83.013 83.013 0 0 1-3.641 1.448 78.347 78.347 0 0 1-3.711 1.27c-1.25.394-2.504.758-3.77 1.09-1.265.332-2.539.633-3.816.898-1.281.27-2.567.508-3.856.715-1.293.207-2.59.379-3.89.523a81.4 81.4 0 0 1-7.825.47 77.18 77.18 0 0 1-3.921-.055 72.565 72.565 0 0 1-3.914-.247 76.235 76.235 0 0 1-3.899-.437 76.05 76.05 0 0 1-3.871-.629 75.184 75.184 0 0 1-3.836-.816 84.633 84.633 0 0 1-3.793-1.004 79.825 79.825 0 0 1-7.41-2.563 79.253 79.253 0 0 1-7.125-3.277 78.892 78.892 0 0 1-6.77-3.957 80.258 80.258 0 0 1-3.234-2.223 80.11 80.11 0 0 1-3.117-2.383 77 77 0 0 1-2.996-2.527 80.592 80.592 0 0 1-5.605-5.484 77.207 77.207 0 0 1-2.594-2.946 80.008 80.008 0 0 1-4.742-6.246 81.597 81.597 0 0 1-4.106-6.683 79.382 79.382 0 0 1-3.43-7.055 86.285 86.285 0 0 1-1.453-3.645 83.035 83.035 0 0 1-1.27-3.71 78.369 78.369 0 0 1-1.085-3.77 79.591 79.591 0 0 1-2.47-15.473 81.856 81.856 0 0 1-.14-3.918 81.997 81.997 0 0 1 .055-3.922c.05-1.308.133-2.613.246-3.918a81.436 81.436 0 0 1 1.063-7.77 80.7 80.7 0 0 1 .82-3.835c.3-1.273.637-2.535 1.004-3.793.363-1.254.761-2.5 1.187-3.738a79.462 79.462 0 0 1 4.648-10.8 78.892 78.892 0 0 1 3.957-6.77 76.286 76.286 0 0 1 2.223-3.231 76.434 76.434 0 0 1 2.38-3.121 77 77 0 0 1 2.527-2.996 80.592 80.592 0 0 1 8.426-8.203 80.056 80.056 0 0 1 6.245-4.739 78.91 78.91 0 0 1 6.684-4.105 77.24 77.24 0 0 1 3.484-1.8 75.135 75.135 0 0 1 3.567-1.63c1.203-.515 2.418-1 3.644-1.453a76.864 76.864 0 0 1 3.711-1.27 78.26 78.26 0 0 1 7.582-1.988Zm0 0"/></clipPath><clipPath id="D"><path d="M1785 1051.832h691v375h-691Zm0 0"/></clipPath><clipPath id="p"><path d="M0 1120h1414v608H0Zm0 0"/></clipPath><clipPath id="b"><path d="M5516.04 1728 5152.644 0H6912v1728Zm0 0" clip-rule="evenodd"/></clipPath><clipPath id="r"><path d="m-771.79 3625.422 159.911-2573.54 2176.05 135.212-159.905 2573.535Zm0 0"/></clipPath><clipPath id="s"><path d="M-312.188 1774.723c-10.433 111.484 5.098 218.738 41.063 316.75 29.922 82.453-5.027 174.894-83.484 215.57-155.895 83.758-267.473 243.852-279.258 433.508-7.664 123.336 28.304 240.039 93.722 334.039 106.239 151.437 286.922 232.746 472.227 220.902l180.652-12.137c22.254-.953 41.098 15.403 42.051 37.653 8.438 202.594 167.41 370.156 374.543 383.027 176.875 10.988 335.383-95.965 396.488-252.187 5.668-16 20.426-27.934 36.934-30.41 243.328-43.282 433.582-247.547 449.559-504.688 12.148-195.477-79.63-372.879-228.395-479.066-104.027-74.211-147.133-207.707-100.047-326.258 27.61-68.367 43.946-143.274 48.79-221.23 24.581-395.602-273.145-736.477-666.102-766.735-392.813-32.586-741.578 259.945-778.743 651.262Zm0 0"/></clipPath><clipPath id="t"><path d="M0 0h1186v679H0Zm0 0"/></clipPath><clipPath id="u"><path d="m-50.762-457.086 1319.2 367.746-248.72 892.23-1319.202-367.742Zm0 0"/></clipPath><clipPath id="v"><path d="m-50.762-457.086 1319.2 367.746-248.72 892.23-1319.202-367.742Zm0 0"/></clipPath><clipPath id="w"><path d="M1181.86 118.14c21.39-111.261-44.297-223.011-151.462-259.113-82.757-28.168-169.238-6.406-228.535 47.852-29.574 26.867-73.843 29.25-107.258 6.91-25.738-17.367-55.277-31.266-86.804-40.055-92.485-25.78-186.996-5.691-259.489 47.153-41.988 30.765-97.414 34.57-144.613 12.918-20.52-9.684-42.82-17.032-65.855-21.754-149.39-30.887-299.59 56.926-346.762 201.773-53.789 164.52 40.922 338.723 205.922 384.719 68.312 19.043 137.434 12.828 197.668-12.285 60.906-25.496 130.734-3.766 166.16 51.98 41.406 64.774 107.441 114.328 189.535 132.684 150.906 33.574 305.223-54.79 352.457-201.883 5.36-17.195 9.375-33.629 11.961-51.031 8.317-58.274 48.774-105.89 105.465-122.367 79.36-22.614 144.652-88.223 161.61-177.5Zm0 0"/></clipPath><clipPath id="B"><path d="M1117.258 453.496a60.721 60.721 0 0 1-1.895 5.692 61.171 61.171 0 0 1-2.437 5.476 61.244 61.244 0 0 1-6.426 10.106 60.98 60.98 0 0 1-3.926 4.53 60.327 60.327 0 0 1-4.351 4.13 61.843 61.843 0 0 1-4.735 3.68 61.277 61.277 0 0 1-10.43 5.883 61.398 61.398 0 0 1-17.288 4.75 62.53 62.53 0 0 1-5.98.429 60.877 60.877 0 0 1-11.941-.906 59.7 59.7 0 0 1-5.849-1.325 60.696 60.696 0 0 1-11.168-4.332 61.097 61.097 0 0 1-22.445-19.434 61.468 61.468 0 0 1-3.2-5.07 60.238 60.238 0 0 1-2.683-5.363 61.4 61.4 0 0 1-3.738-11.379 60.43 60.43 0 0 1-1.012-5.91 61.395 61.395 0 0 1-.273-11.973c.152-1.996.398-3.976.746-5.949a60.218 60.218 0 0 1 1.324-5.847 60.712 60.712 0 0 1 4.332-11.164 61.162 61.162 0 0 1 6.426-10.11 60.98 60.98 0 0 1 3.925-4.531 61.933 61.933 0 0 1 4.348-4.125 61.408 61.408 0 0 1 4.734-3.68 61.535 61.535 0 0 1 5.075-3.199 59.645 59.645 0 0 1 5.359-2.684 60.99 60.99 0 0 1 23.27-5.18c2-.046 3.996.009 5.992.157 1.996.152 3.98.402 5.949.746 1.973.348 3.922.79 5.848 1.324 1.93.54 3.824 1.168 5.691 1.89a62.338 62.338 0 0 1 5.477 2.442 61.097 61.097 0 0 1 31.281 70.926Zm0 0"/></clipPath><clipPath id="y"><path d="M997 375h123v124H997Zm0 0"/></clipPath><clipPath id="z"><path d="m-50.762-457.086 1319.2 367.746-248.72 892.23-1319.202-367.742Zm0 0"/></clipPath><clipPath id="A"><path d="m-50.762-457.086 1319.2 367.746-248.72 892.23-1319.202-367.742Zm0 0"/></clipPath><clipPath id="G"><path d="M1132 462.25h691.71v375H1132Zm0 0"/></clipPath><linearGradient x1="31.388" gradientTransform="matrix(5.25473 1.46482 -1.46479 5.2546 -50.367 -456.974)" y1="86.114" x2="278.54" gradientUnits="userSpaceOnUse" y2="86.114" id="x"><stop stop-color="#2548A8" offset="0"/><stop stop-color="#2648A8" offset=".008"/><stop stop-color="#2648A8" offset=".016"/><stop stop-color="#2748A7" offset=".023"/><stop stop-color="#2848A7" offset=".031"/><stop stop-color="#2848A7" offset=".039"/><stop stop-color="#2948A7" offset=".047"/><stop stop-color="#2A48A7" offset=".055"/><stop stop-color="#2A48A6" offset=".063"/><stop stop-color="#2B48A6" offset=".07"/><stop stop-color="#2B48A6" offset=".078"/><stop stop-color="#2C48A6" offset=".086"/><stop stop-color="#2D48A6" offset=".094"/><stop stop-color="#2D48A5" offset=".102"/><stop stop-color="#2E48A5" offset=".109"/><stop stop-color="#2F48A5" offset=".117"/><stop stop-color="#2F48A5" offset=".125"/><stop stop-color="#3048A5" offset=".133"/><stop stop-color="#3148A4" offset=".141"/><stop stop-color="#3148A4" offset=".148"/><stop stop-color="#3248A4" offset=".156"/><stop stop-color="#3248A4" offset=".164"/><stop stop-color="#3348A4" offset=".172"/><stop stop-color="#3448A4" offset=".18"/><stop stop-color="#3448A3" offset=".188"/><stop stop-color="#3548A3" offset=".195"/><stop stop-color="#3648A3" offset=".203"/><stop stop-color="#3648A3" offset=".211"/><stop stop-color="#3748A3" offset=".219"/><stop stop-color="#3848A2" offset=".227"/><stop stop-color="#3848A2" offset=".234"/><stop stop-color="#3948A2" offset=".242"/><stop stop-color="#3948A2" offset=".25"/><stop stop-color="#3A48A2" offset=".258"/><stop stop-color="#3B48A1" offset=".266"/><stop stop-color="#3B48A1" offset=".273"/><stop stop-color="#3C48A1" offset=".281"/><stop stop-color="#3D48A1" offset=".289"/><stop stop-color="#3D48A1" offset=".297"/><stop stop-color="#3E48A0" offset=".305"/><stop stop-color="#3F48A0" offset=".313"/><stop stop-color="#3F48A0" offset=".32"/><stop stop-color="#4048A0" offset=".328"/><stop stop-color="#4048A0" offset=".336"/><stop stop-color="#41489F" offset=".344"/><stop stop-color="#42489F" offset=".352"/><stop stop-color="#42489F" offset=".359"/><stop stop-color="#43489F" offset=".367"/><stop stop-color="#44489F" offset=".375"/><stop stop-color="#44489E" offset=".383"/><stop stop-color="#45489E" offset=".391"/><stop stop-color="#45489E" offset=".398"/><stop stop-color="#46489E" offset=".406"/><stop stop-color="#47489E" offset=".414"/><stop stop-color="#47489D" offset=".422"/><stop stop-color="#48489D" offset=".43"/><stop stop-color="#49489D" offset=".438"/><stop stop-color="#49489D" offset=".445"/><stop stop-color="#4A489D" offset=".453"/><stop stop-color="#4B489C" offset=".461"/><stop stop-color="#4B489C" offset=".469"/><stop stop-color="#4C489C" offset=".477"/><stop stop-color="#4C489C" offset=".484"/><stop stop-color="#4D489C" offset=".492"/><stop stop-color="#4E489B" offset=".5"/><stop stop-color="#4E489B" offset=".508"/><stop stop-color="#4F489B" offset=".516"/><stop stop-color="#50489B" offset=".523"/><stop stop-color="#50489B" offset=".531"/><stop stop-color="#51489A" offset=".539"/><stop stop-color="#52489A" offset=".547"/><stop stop-color="#52489A" offset=".555"/><stop stop-color="#53489A" offset=".563"/><stop stop-color="#53489A" offset=".57"/><stop stop-color="#54489A" offset=".578"/><stop stop-color="#554899" offset=".586"/><stop stop-color="#554899" offset=".594"/><stop stop-color="#564899" offset=".602"/><stop stop-color="#574899" offset=".609"/><stop stop-color="#574899" offset=".617"/><stop stop-color="#584898" offset=".625"/><stop stop-color="#594898" offset=".633"/><stop stop-color="#594898" offset=".641"/><stop stop-color="#5A4898" offset=".648"/><stop stop-color="#5A4898" offset=".656"/><stop stop-color="#5B4897" offset=".664"/><stop stop-color="#5C4897" offset=".672"/><stop stop-color="#5C4897" offset=".68"/><stop stop-color="#5D4897" offset=".688"/><stop stop-color="#5E4897" offset=".695"/><stop stop-color="#5E4896" offset=".703"/><stop stop-color="#5F4896" offset=".711"/><stop stop-color="#604896" offset=".719"/><stop stop-color="#604896" offset=".727"/><stop stop-color="#614896" offset=".734"/><stop stop-color="#614895" offset=".742"/><stop stop-color="#624895" offset=".75"/><stop stop-color="#634895" offset=".758"/><stop stop-color="#634895" offset=".766"/><stop stop-color="#644895" offset=".773"/><stop stop-color="#654894" offset=".781"/><stop stop-color="#654894" offset=".789"/><stop stop-color="#664894" offset=".797"/><stop stop-color="#674894" offset=".805"/><stop stop-color="#674894" offset=".813"/><stop stop-color="#684893" offset=".82"/><stop stop-color="#684893" offset=".828"/><stop stop-color="#694893" offset=".836"/><stop stop-color="#6A4893" offset=".844"/><stop stop-color="#6A4893" offset=".852"/><stop stop-color="#6B4892" offset=".859"/><stop stop-color="#6C4892" offset=".875"/><stop stop-color="#6C4892" offset="1"/></linearGradient><linearGradient x1="225.997" gradientTransform="matrix(5.25473 1.46482 -1.46479 5.2546 -50.367 -456.974)" y1="86.114" x2="253.603" gradientUnits="userSpaceOnUse" y2="86.114" id="C"><stop stop-color="#654894" offset="0"/><stop stop-color="#664894" offset=".063"/><stop stop-color="#664894" offset=".125"/><stop stop-color="#674894" offset=".188"/><stop stop-color="#674894" offset=".25"/><stop stop-color="#684893" offset=".313"/><stop stop-color="#694893" offset=".375"/><stop stop-color="#694893" offset=".438"/><stop stop-color="#6A4893" offset=".5"/><stop stop-color="#6A4893" offset=".563"/><stop stop-color="#6B4892" offset=".625"/><stop stop-color="#6C4892" offset=".75"/><stop stop-color="#6C4892" offset="1"/></linearGradient><linearGradient x1="121.79" gradientTransform="matrix(-2.3166 -11.01585 11.01351 -2.31612 5666.279 2442.408)" y1="86.114" x2="138.61" gradientUnits="userSpaceOnUse" y2="86.114" id="o"><stop stop-color="#43489F" offset="0"/><stop stop-color="#44489F" offset=".125"/><stop stop-color="#44489E" offset=".25"/><stop stop-color="#45489E" offset=".375"/><stop stop-color="#46489E" offset=".5"/><stop stop-color="#46489E" offset=".625"/><stop stop-color="#47489E" offset=".75"/><stop stop-color="#48489D" offset=".875"/><stop stop-color="#48489D" offset="1"/></linearGradient><linearGradient x1="54.51" gradientTransform="matrix(-2.3166 -11.01585 11.01351 -2.31612 5666.279 2442.408)" y1="86.114" x2="79.395" gradientUnits="userSpaceOnUse" y2="86.114" id="j"><stop stop-color="#2D48A6" offset="0"/><stop stop-color="#2D48A5" offset=".063"/><stop stop-color="#2E48A5" offset=".125"/><stop stop-color="#2E48A5" offset=".188"/><stop stop-color="#2F48A5" offset=".25"/><stop stop-color="#2F48A5" offset=".313"/><stop stop-color="#3048A5" offset=".375"/><stop stop-color="#3048A5" offset=".438"/><stop stop-color="#3148A4" offset=".5"/><stop stop-color="#3148A4" offset=".563"/><stop stop-color="#3248A4" offset=".625"/><stop stop-color="#3248A4" offset=".688"/><stop stop-color="#3348A4" offset=".75"/><stop stop-color="#3348A4" offset=".813"/><stop stop-color="#3448A3" offset=".875"/><stop stop-color="#3448A3" offset=".938"/><stop stop-color="#3548A3" offset="1"/></linearGradient><linearGradient x1="39.332" gradientTransform="matrix(-2.3166 -11.01585 11.01351 -2.31612 5666.279 2442.408)" y1="86.114" x2="221.201" gradientUnits="userSpaceOnUse" y2="86.114" id="e"><stop stop-color="#2848A7" offset="0"/><stop stop-color="#2848A7" offset=".016"/><stop stop-color="#2948A7" offset=".031"/><stop stop-color="#2A48A6" offset=".047"/><stop stop-color="#2B48A6" offset=".063"/><stop stop-color="#2C48A6" offset=".078"/><stop stop-color="#2D48A6" offset=".094"/><stop stop-color="#2E48A5" offset=".109"/><stop stop-color="#2F48A5" offset=".125"/><stop stop-color="#3048A5" offset=".141"/><stop stop-color="#3148A4" offset=".156"/><stop stop-color="#3248A4" offset=".172"/><stop stop-color="#3348A4" offset=".188"/><stop stop-color="#3448A4" offset=".203"/><stop stop-color="#3548A3" offset=".219"/><stop stop-color="#3648A3" offset=".234"/><stop stop-color="#3748A3" offset=".25"/><stop stop-color="#3748A2" offset=".266"/><stop stop-color="#3848A2" offset=".281"/><stop stop-color="#3948A2" offset=".297"/><stop stop-color="#3A48A1" offset=".313"/><stop stop-color="#3B48A1" offset=".328"/><stop stop-color="#3C48A1" offset=".344"/><stop stop-color="#3D48A1" offset=".359"/><stop stop-color="#3E48A0" offset=".375"/><stop stop-color="#3F48A0" offset=".391"/><stop stop-color="#4048A0" offset=".406"/><stop stop-color="#41489F" offset=".422"/><stop stop-color="#42489F" offset=".438"/><stop stop-color="#43489F" offset=".453"/><stop stop-color="#44489F" offset=".469"/><stop stop-color="#45489E" offset=".484"/><stop stop-color="#45489E" offset=".5"/><stop stop-color="#46489E" offset=".516"/><stop stop-color="#47489D" offset=".531"/><stop stop-color="#48489D" offset=".547"/><stop stop-color="#49489D" offset=".563"/><stop stop-color="#4A489D" offset=".578"/><stop stop-color="#4B489C" offset=".594"/><stop stop-color="#4C489C" offset=".609"/><stop stop-color="#4D489C" offset=".625"/><stop stop-color="#4E489B" offset=".641"/><stop stop-color="#4F489B" offset=".656"/><stop stop-color="#50489B" offset=".672"/><stop stop-color="#51489B" offset=".688"/><stop stop-color="#52489A" offset=".703"/><stop stop-color="#53489A" offset=".719"/><stop stop-color="#54489A" offset=".734"/><stop stop-color="#544899" offset=".75"/><stop stop-color="#554899" offset=".766"/><stop stop-color="#564899" offset=".781"/><stop stop-color="#574899" offset=".797"/><stop stop-color="#584898" offset=".813"/><stop stop-color="#594898" offset=".828"/><stop stop-color="#5A4898" offset=".844"/><stop stop-color="#5B4897" offset=".859"/><stop stop-color="#5C4897" offset=".875"/><stop stop-color="#5D4897" offset=".891"/><stop stop-color="#5E4897" offset=".906"/><stop stop-color="#5F4896" offset=".922"/><stop stop-color="#604896" offset=".938"/><stop stop-color="#614896" offset=".953"/><stop stop-color="#624895" offset=".969"/><stop stop-color="#634895" offset=".984"/><stop stop-color="#634895" offset="1"/></linearGradient></defs><path fill="#fff" d="M-691.2-172.8h8294.4v2073.6H-691.2z"/><path fill="#fff" d="M-691.2-172.8h8294.4v2073.6H-691.2z"/><path fill="#4daddf" d="M-691.2-172.8h8294.4v2073.6H-691.2z"/><g clip-path="url(#a)"><g clip-path="url(#b)"><g clip-path="url(#c)"><g clip-path="url(#d)"><path fill="url(#e)" d="m5254.242 2076.621 2005.762-421.805-421.32-2003.437L4832.922 73.184Zm0 0"/></g></g></g></g><g clip-path="url(#f)"><g clip-path="url(#g)"><g clip-path="url(#h)"><g clip-path="url(#i)"><path fill="url(#j)" d="m5825.234 1781.95 302.848-63.688-57.648-274.133-302.848 63.687Zm0 0"/></g></g></g></g><g clip-path="url(#k)"><g clip-path="url(#l)"><g clip-path="url(#m)"><g clip-path="url(#n)"><path fill="url(#o)" d="m5369.703 1103.82 185.262-38.96L5516 879.577l-185.258 38.961Zm0 0"/></g></g></g></g><g clip-path="url(#p)"><g clip-path="url(#q)"><g clip-path="url(#r)"><g clip-path="url(#s)"><path fill="#6c4892" d="m-39.438 1725.55 1458.415 90.618 44.914-722.84L5.48 1002.707Zm0 0"/></g></g></g></g><g clip-path="url(#t)"><g clip-path="url(#u)"><g clip-path="url(#v)"><g clip-path="url(#w)"><path fill="url(#x)" d="m86.762-311.234-268.989 964.93 1298.715 362.034 268.985-964.933Zm0 0"/></g></g></g></g><g clip-path="url(#y)"><g clip-path="url(#z)"><g clip-path="url(#A)"><g clip-path="url(#B)"><path fill="url(#C)" d="m1006.094 344.344-40.438 145.058 145.059 40.438 40.437-145.059Zm0 0"/></g></g></g></g><g clip-path="url(#D)"><path fill="#6c4892" d="M1785.004 1051.832v97.5l116.27 90-116.27 90v97.5l242.293-187.5Zm4.875 279.75 119.273-92.25-119.273-92.625v-85.125l229.543 177.375-229.543 177.75Zm219.418-279.75v97.5l116.27 90-116.27 90v97.5l242.293-187.5Zm4.875 279.75 119.27-92.25-119.27-92.625v-85.125l229.543 177.375-229.543 177.75Zm219.414-279.75v97.5l116.273 90-116.273 90v97.5l242.297-187.5Zm4.875 279.75 119.273-92.25-119.273-92.25v-85.5l229.543 177.375-229.543 177.375Zm0 0"/></g><path d="M125.107 879.303h56.781v11.828h-56.781ZM205.551 815.413h85.329c7.05 0 13.003.308 17.859.922 4.852.617 8.86 1.542 12.016 2.78 3.156 1.231 5.582 2.759 7.28 4.579 1.696 1.824 2.942 3.969 3.735 6.437.79 2.461 1.242 5.22 1.36 8.282.125 3.054.187 6.43.187 10.125 0 3.843-.09 7.398-.266 10.656-.168 3.25-.73 6.195-1.687 8.828-.961 2.637-2.492 4.953-4.594 6.953-2.094 2-5.078 3.668-8.953 5-3.867 1.324-8.766 2.336-14.703 3.031-5.938.688-13.246 1.032-21.922 1.032H219.74v44.953H205.55Zm14.188 56.78h61.453c6.313 0 11.625-.108 15.938-.327 4.312-.219 7.867-.625 10.671-1.219 2.813-.594 4.985-1.43 6.516-2.516 1.531-1.082 2.649-2.507 3.36-4.28.718-1.782 1.14-3.915 1.265-6.407.125-2.488.188-5.457.188-8.906 0-3.196-.063-5.953-.188-8.266-.125-2.32-.547-4.27-1.266-5.844-.71-1.582-1.828-2.843-3.359-3.781-1.531-.937-3.703-1.66-6.516-2.172-2.804-.52-6.359-.851-10.671-1-4.313-.156-9.625-.234-15.938-.234H219.74ZM345.13 886.553c0-5.914.297-11.14.891-15.672.594-4.539 1.64-8.488 3.14-11.843 1.509-3.352 3.532-6.149 6.063-8.391 2.54-2.238 5.742-4.047 9.61-5.422 3.875-1.383 8.472-2.375 13.797-2.969 5.32-.593 11.535-.89 18.64-.89 9.457 0 17.242.586 23.36 1.75 6.113 1.156 10.94 2.933 14.484 5.328 3.55 2.387 6.016 5.418 7.39 9.094 1.383 3.668 2.079 8.039 2.079 13.109h-14.188c0-1.82-.055-3.52-.156-5.094-.094-1.582-.45-3.015-1.063-4.297-.617-1.28-1.59-2.425-2.921-3.437-1.336-1.008-3.235-1.86-5.704-2.547-2.46-.687-5.574-1.203-9.343-1.547-3.774-.351-8.418-.531-13.938-.531-6.312 0-11.625.226-15.937.672-4.313.437-7.875 1.164-10.688 2.172-2.812 1.011-4.984 2.37-6.515 4.078-1.524 1.699-2.633 3.781-3.329 6.25-.687 2.46-1.093 5.355-1.218 8.687-.118 3.324-.172 7.157-.172 11.5 0 4.242.054 8 .172 11.282.125 3.273.53 6.125 1.218 8.562.696 2.438 1.805 4.496 3.329 6.172 1.53 1.68 3.703 3.039 6.515 4.078 2.813 1.031 6.375 1.773 10.688 2.219 4.312.437 9.625.656 15.937.656 5.52 0 10.164-.191 13.938-.578 3.77-.395 6.882-.961 9.343-1.703 2.47-.739 4.368-1.649 5.704-2.735 1.332-1.093 2.304-2.336 2.921-3.734.614-1.406.97-2.957 1.063-4.656a93.07 93.07 0 0 0 .156-5.516h14.188c0 5.18-.696 9.664-2.078 13.453-1.375 3.793-3.84 6.914-7.391 9.36-3.543 2.437-8.371 4.25-14.484 5.437-6.118 1.176-13.903 1.766-23.36 1.766-7.105 0-13.32-.297-18.64-.89-5.325-.587-9.922-1.552-13.797-2.907-3.868-1.363-7.07-3.156-9.61-5.375-2.531-2.219-4.554-4.953-6.062-8.203-1.5-3.25-2.547-7.078-3.14-11.485-.595-4.414-.891-9.484-.891-15.203ZM539.823 865.1c7.781 0 14.457.324 20.031.969 5.57.637 10.266 1.586 14.079 2.844 3.82 1.261 6.867 2.828 9.14 4.703 2.27 1.867 4.02 3.996 5.25 6.39 1.227 2.387 2.024 5.059 2.39 8.016.376 2.96.563 6.164.563 9.61 0 3.46-.308 6.703-.922 9.734-.617 3.031-1.714 5.808-3.296 8.328-1.575 2.512-3.715 4.75-6.422 6.719-2.711 1.968-6.164 3.648-10.36 5.03-4.187 1.376-9.23 2.415-15.125 3.126-5.886.719-12.773 1.078-20.656 1.078h-18.937c-7.094 0-13.305-.273-18.625-.812-5.325-.543-9.915-1.368-13.766-2.47-3.844-1.113-7.024-2.519-9.531-4.218-2.512-1.695-4.524-3.691-6.032-5.984-1.5-2.29-2.546-4.907-3.14-7.844-.594-2.938-.89-6.176-.89-9.719h14.202c0 4.438.64 7.914 1.922 10.422 1.281 2.512 3.399 4.398 6.36 5.656 2.957 1.262 6.835 2.055 11.64 2.375 4.813.313 10.766.469 17.86.469h18.937c8.281 0 15.156-.39 20.625-1.172 5.477-.789 9.844-2.047 13.094-3.765 3.25-1.727 5.539-3.985 6.875-6.766 1.332-2.79 2-6.188 2-10.188 0-3.988-.461-7.312-1.375-9.968-.906-2.664-2.703-4.786-5.39-6.36-2.688-1.582-6.477-2.707-11.36-3.375-4.875-.664-11.258-1-19.14-1h-19.532c-8.68 0-16.11-.316-22.297-.953-6.18-.644-11.367-1.57-15.562-2.781-4.188-1.207-7.543-2.707-10.063-4.5-2.512-1.8-4.422-3.86-5.734-6.172-1.305-2.32-2.153-4.898-2.547-7.734-.387-2.832-.578-5.899-.578-9.203 0-3.446.304-6.649.922-9.61.613-2.957 1.757-5.629 3.437-8.015 1.676-2.395 3.969-4.532 6.875-6.407s6.64-3.437 11.203-4.687c4.563-1.258 10.047-2.207 16.453-2.844 6.407-.645 13.946-.969 22.625-.969h14.203c7.094 0 13.301.262 18.625.782 5.32.511 9.907 1.324 13.75 2.437 3.852 1.105 7.047 2.484 9.579 4.14 2.539 1.65 4.562 3.618 6.062 5.907 1.508 2.293 2.555 4.898 3.14 7.812.594 2.907.891 6.133.891 9.672H577.09c0-4.437-.64-7.91-1.922-10.422-1.281-2.507-3.402-4.394-6.36-5.656-2.96-1.258-6.855-2.047-11.687-2.36-4.836-.32-10.797-.484-17.89-.484h-14.204c-9.46 0-17.246.336-23.36 1-6.116.668-10.948 1.79-14.5 3.36-3.554 1.574-6.023 3.695-7.405 6.36-1.375 2.667-2.063 5.995-2.063 9.984 0 2.46.172 4.652.516 6.578.351 1.93 1.054 3.62 2.11 5.078 1.062 1.449 2.55 2.668 4.468 3.656 1.926.98 4.469 1.793 7.625 2.438 3.156.636 7.016 1.09 11.578 1.359 4.563.273 9.992.406 16.297.406ZM695.387 928.99v-48.062c0-5.125-.399-9.445-1.188-12.968-.793-3.532-2.371-6.38-4.734-8.547-2.367-2.164-5.719-3.727-10.063-4.688-4.336-.969-10.054-1.453-17.156-1.453-7.688 0-13.984.559-18.89 1.672-4.907 1.105-8.766 2.656-11.579 4.656-2.804 1.992-4.734 4.39-5.797 7.203-1.062 2.813-1.593 5.946-1.593 9.39v52.798h-14.188V815.413h14.188v41.859a17.238 17.238 0 0 1 4.218-6c1.82-1.676 3.926-3.102 6.313-4.281 2.394-1.188 4.973-2.133 7.734-2.844a74.132 74.132 0 0 1 8.39-1.672 100.52 100.52 0 0 1 8.36-.812 144.7 144.7 0 0 1 7.578-.22c6.313 0 11.743.388 16.297 1.157 4.563.762 8.43 1.89 11.61 3.39 3.187 1.5 5.738 3.36 7.656 5.579 1.926 2.219 3.422 4.797 4.484 7.734 1.063 2.93 1.766 6.203 2.11 9.828.343 3.625.515 7.559.515 11.797l-.078 48.063ZM726.195 885.803c0-8.718.938-15.937 2.813-21.656 1.875-5.719 4.879-10.254 9.015-13.61 4.145-3.35 9.52-5.706 16.125-7.062 6.602-1.351 14.641-2.031 24.11-2.031 9.468 0 17.504.68 24.11 2.031 6.6 1.356 11.972 3.711 16.108 7.063 4.145 3.355 7.157 7.89 9.032 13.609s2.812 12.938 2.812 21.656c0 8.73-.937 15.98-2.812 21.75-1.875 5.762-4.887 10.344-9.032 13.75-4.136 3.399-9.507 5.797-16.109 7.203-6.605 1.407-14.64 2.11-24.11 2.11-9.468 0-17.507-.703-24.109-2.11-6.605-1.406-11.98-3.804-16.125-7.203-4.136-3.406-7.14-7.988-9.015-13.75-1.875-5.77-2.813-13.02-2.813-21.75Zm14.203 0c0 4.742.172 8.86.516 12.36.344 3.5.992 6.507 1.953 9.015.969 2.512 2.313 4.559 4.031 6.14 1.727 1.575 4 2.829 6.813 3.767 2.812.937 6.223 1.578 10.234 1.921 4.02.344 8.79.516 14.313.516 4.726 0 8.953-.11 12.672-.328 3.726-.219 6.984-.723 9.765-1.516 2.79-.789 5.172-1.91 7.14-3.36 1.97-1.456 3.556-3.44 4.766-5.952 1.208-2.52 2.094-5.614 2.657-9.281.57-3.676.86-8.102.86-13.282 0-5.07-.29-9.394-.86-12.968-.563-3.57-1.45-6.567-2.657-8.985-1.21-2.414-2.796-4.328-4.765-5.734-1.969-1.406-4.352-2.461-7.14-3.172-2.782-.719-6.04-1.176-9.766-1.375-3.72-.195-7.946-.297-12.672-.297-4.73 0-8.961.102-12.688.297-3.719.2-6.976.656-9.765 1.375-2.782.71-5.157 1.766-7.125 3.172-1.97 1.406-3.559 3.32-4.766 5.734-1.21 2.418-2.102 5.414-2.672 8.985-.562 3.574-.844 7.898-.844 12.968ZM898.914 841.444c9.469 0 17.504.715 24.11 2.14 6.601 1.43 11.972 3.872 16.109 7.329 4.145 3.449 7.156 8.07 9.031 13.859 1.875 5.793 2.813 13.055 2.813 21.781 0 8.574-.938 15.696-2.813 21.36-1.875 5.668-4.886 10.18-9.031 13.53-4.137 3.356-9.508 5.727-16.11 7.11-6.605 1.375-14.64 2.063-24.109 2.063-6.75 0-12.398-.371-16.937-1.11-4.532-.738-8.242-1.66-11.125-2.765-2.875-1.114-5.07-2.313-6.578-3.594-1.5-1.281-2.575-2.488-3.22-3.625v37.86h-14.187V843.802h14.188v7.922c.644-.988 1.719-2.086 3.219-3.297 1.507-1.207 3.703-2.328 6.578-3.36 2.883-1.038 6.593-1.905 11.125-2.593 4.539-.687 10.187-1.031 16.937-1.031Zm0 11.828c-4.73 0-8.945.125-12.64.375-3.7.242-6.954.746-9.766 1.516-2.805.761-5.18 1.87-7.125 3.328-1.95 1.449-3.543 3.398-4.781 5.844-1.23 2.437-2.133 5.46-2.703 9.062-.563 3.594-.844 7.902-.844 12.922 0 5.086.281 9.45.844 13.094.57 3.648 1.472 6.695 2.703 9.14 1.238 2.438 2.832 4.387 4.781 5.844 1.945 1.45 4.32 2.559 7.125 3.328 2.812.762 6.066 1.25 9.766 1.469 3.695.219 7.91.328 12.64.328 5.52 0 10.29-.172 14.313-.516 4.02-.343 7.43-.957 10.234-1.843 2.813-.883 5.094-2.114 6.844-3.688 1.75-1.582 3.101-3.594 4.062-6.031.97-2.445 1.61-5.383 1.922-8.813.32-3.425.485-7.453.485-12.078 0-4.633-.164-8.676-.485-12.125-.312-3.457-.953-6.414-1.922-8.875-.96-2.468-2.312-4.488-4.062-6.062-1.75-1.582-4.031-2.844-6.844-3.781-2.805-.938-6.215-1.579-10.234-1.922-4.024-.344-8.793-.516-14.313-.516ZM967.53 879.303h56.782v11.828H967.53ZM5989.67 725.32c0 7.313-.7 14.246-2.094 20.797-1.387 6.543-3.715 13.594-6.985 21.156l-54.421 124.344h63.5v41.578h-120.954v-41.578l60.094-136.813c3.02-6.55 5.035-12.156 6.047-16.812 1.008-4.664 1.516-9.895 1.516-15.688v-43.468c0-5.04-.633-8.504-1.89-10.391-1.263-1.895-3.403-2.844-6.423-2.844-5.293 0-7.937 4.414-7.937 13.235v53.28h-52.157v-46.108c0-27.458 3.649-44.461 10.954-51.016 7.05-6.8 23.554-10.203 49.515-10.203 26.457 0 43.336 3.777 50.64 11.328 7.063 7.312 10.595 23.945 10.595 49.89ZM6064.107 880.664c0 8.562 2.894 12.844 8.687 12.844 3.02 0 5.098-.942 6.235-2.829 1.133-1.894 1.703-5.234 1.703-10.015V678.836c0-8.82-2.898-13.235-8.688-13.235-5.293 0-7.937 4.414-7.937 13.235Zm-52.156-194.656c0-27.208 3.648-44.211 10.953-51.016 7.05-6.8 23.555-10.203 49.515-10.203 26.207 0 42.836 3.527 49.891 10.578 7.3 7.312 10.953 24.195 10.953 50.64v187.47c0 26.96-3.652 43.84-10.953 50.64-7.312 6.812-23.695 10.219-49.14 10.219-26.461 0-43.215-3.407-50.266-10.22-7.305-7.3-10.953-24.179-10.953-50.64ZM6277.638 725.32c0 7.313-.7 14.246-2.094 20.797-1.386 6.543-3.715 13.594-6.984 21.156l-54.422 124.344h63.5v41.578h-120.953v-41.578l60.094-136.813c3.02-6.55 5.035-12.156 6.047-16.812 1.007-4.664 1.515-9.895 1.515-15.688v-43.468c0-5.04-.633-8.504-1.89-10.391-1.262-1.895-3.403-2.844-6.422-2.844-5.293 0-7.938 4.414-7.938 13.235v53.28h-52.156v-46.108c0-27.458 3.648-44.461 10.953-51.016 7.05-6.8 23.555-10.203 49.516-10.203 26.457 0 43.336 3.777 50.64 11.328 7.063 7.312 10.594 23.945 10.594 49.89ZM6421.622 725.32c0 7.313-.699 14.246-2.093 20.797-1.387 6.543-3.715 13.594-6.985 21.156l-54.422 124.344h63.5v41.578H6300.67v-41.578l60.094-136.813c3.02-6.55 5.035-12.156 6.047-16.812 1.008-4.664 1.515-9.895 1.515-15.688v-43.468c0-5.04-.632-8.504-1.89-10.391-1.262-1.895-3.403-2.844-6.422-2.844-5.293 0-7.938 4.414-7.938 13.235v53.28h-52.156v-46.108c0-27.458 3.649-44.461 10.953-51.016 7.051-6.8 23.555-10.203 49.516-10.203 26.457 0 43.336 3.777 50.64 11.328 7.063 7.312 10.594 23.945 10.594 49.89Zm0 0" fill="#fff"/><path d="M5936.387 1031.4v5.765h-27.656v49.563h-6.922v-49.563h-27.656v-5.765ZM5957.352 1045.228v23.062c0 2.563.191 4.73.578 6.5.383 1.762 1.148 3.184 2.297 4.266 1.156 1.086 2.789 1.867 4.906 2.344 2.113.48 4.899.719 8.36.719 3.738 0 6.8-.274 9.187-.829 2.395-.55 4.273-1.332 5.64-2.343 1.376-1.008 2.317-2.223 2.829-3.641.52-1.414.781-2.988.781-4.719v-25.36h6.922v41.5h-6.922v-6.921c-.336.75-.898 1.578-1.687 2.484-.793.899-1.985 1.73-3.579 2.5-1.586.762-3.632 1.407-6.14 1.938-2.512.531-5.625.797-9.344.797-3.094 0-5.758-.188-7.984-.563-2.22-.375-4.106-.926-5.657-1.656-1.543-.727-2.78-1.633-3.718-2.719a11.638 11.638 0 0 1-2.172-3.765c-.5-1.426-.836-3.016-1-4.766a60.918 60.918 0 0 1-.25-5.766l.031-23.062ZM6074.125 1068.29c0 3.532-.293 6.48-.875 8.844-.574 2.367-1.54 4.258-2.89 5.672-1.356 1.418-3.138 2.43-5.345 3.031-2.21.594-4.937.89-8.187.89-3.149 0-5.79-.237-7.922-.718-2.137-.476-3.867-1.297-5.187-2.453-1.313-1.156-2.262-2.691-2.844-4.61-.574-1.913-.86-4.316-.86-7.202v-20.813h-8.53v-5.703h8.53v-11.344h6.907v11.344h26.047v5.703h-26.047v20.813c0 2.304.172 4.078.515 5.328.352 1.25.914 2.168 1.688 2.75.77.574 1.785.906 3.047 1 1.257.093 2.8.14 4.625.14 1.437 0 2.722-.02 3.859-.062 1.145-.051 2.145-.203 3-.453.852-.25 1.578-.633 2.172-1.157.601-.52 1.094-1.242 1.469-2.171.375-.938.644-2.118.812-3.547.164-1.438.25-3.196.25-5.282ZM6090.443 1045.228h6.907v41.5h-6.907Zm6.907-6.906h-6.907v-6.922h6.907ZM6137.873 1087.525c-4.605 0-8.516-.32-11.734-.953-3.219-.633-5.84-1.735-7.86-3.297-2.023-1.563-3.492-3.649-4.406-6.266-.906-2.625-1.36-5.914-1.36-9.875 0-4.539.454-8.289 1.36-11.25.914-2.969 2.383-5.328 4.406-7.078 2.02-1.758 4.641-2.984 7.86-3.672 3.218-.695 7.129-1.047 11.734-1.047 3.29 0 6.14.242 8.547.719 2.414.48 4.484 1.18 6.203 2.094 1.719.906 3.11 2.011 4.172 3.312 1.07 1.293 1.914 2.653 2.531 4.078.614 1.43 1.031 3.106 1.25 5.032.227 1.918.344 3.945.344 6.078l-.563 2.312h-40.921c0 3.168.312 5.766.937 7.797.625 2.031 1.656 3.516 3.094 4.453 1.437.938 3.332 1.532 5.687 1.782 2.352.25 5.258.375 8.72.375 3.163 0 5.784-.086 7.858-.266 2.083-.188 3.735-.531 4.954-1.031 1.226-.5 2.086-1.196 2.578-2.094.5-.906.75-2.082.75-3.531h6.906c0 2.242-.39 4.148-1.172 5.718-.773 1.575-2.058 2.844-3.86 3.813-1.804.969-4.179 1.68-7.124 2.125-2.938.445-6.57.672-10.89.672Zm0-37.688c-2.305 0-4.36.055-6.172.157-1.812.093-3.402.304-4.765.625-1.356.324-2.512.792-3.47 1.406-.96.617-1.734 1.34-2.327 2.172-.586.824-1.016 1.984-1.297 3.484-.274 1.5-.406 3.309-.406 5.422h34.578c0-2.813-.305-5.016-.907-6.61-.593-1.593-1.542-2.906-2.843-3.937-1.293-1.039-2.961-1.754-5-2.14-2.043-.383-4.508-.579-7.39-.579ZM6216.434 1086.728v-23.047c0-2.57-.195-4.738-.578-6.5-.386-1.77-1.156-3.191-2.312-4.266-1.149-1.082-2.778-1.863-4.89-2.343-2.118-.489-4.903-.735-8.36-.735-3.75 0-6.82.282-9.203.844-2.387.555-4.266 1.336-5.64 2.344-1.368 1-2.31 2.21-2.83 3.625-.51 1.418-.765 2.992-.765 4.719v25.359h-6.922v-41.5h6.922v6.922a8.668 8.668 0 0 1 2.157-3.047 14.156 14.156 0 0 1 3.171-2.172 19.37 19.37 0 0 1 3.813-1.453 34.496 34.496 0 0 1 4.11-.86 43.038 43.038 0 0 1 3.968-.421c1.29-.07 2.461-.11 3.516-.11 3.082 0 5.734.196 7.953.578 2.219.375 4.097.938 5.64 1.688 1.551.742 2.797 1.664 3.735 2.766.937 1.105 1.66 2.386 2.172 3.843.52 1.45.863 3.07 1.03 4.86.177 1.793.267 3.746.267 5.859l-.047 23.047ZM6261.59 1087.525c-4.605 0-8.515-.336-11.734-1-3.219-.676-5.84-1.832-7.86-3.469-2.023-1.633-3.491-3.832-4.406-6.594-.906-2.758-1.359-6.226-1.359-10.406 0-4.32.453-7.898 1.36-10.734.914-2.832 2.382-5.078 4.406-6.735 2.02-1.656 4.64-2.816 7.86-3.484 3.218-.676 7.128-1.016 11.733-1.016 3.27 0 6.008.168 8.22.5 2.206.336 4.015.758 5.421 1.266 1.406.5 2.473 1.047 3.203 1.64.727.586 1.258 1.126 1.594 1.626v-17.72h6.922v55.329h-6.922v-6.156l-1.719 2.047a12.879 12.879 0 0 1-3.36 2.39c-1.218.594-2.933 1.164-5.14 1.703-2.21.54-4.949.813-8.219.813Zm0-5.406c2.301 0 4.352-.051 6.157-.157 1.8-.113 3.383-.347 4.75-.703 1.375-.363 2.535-.898 3.484-1.61.945-.706 1.719-1.648 2.313-2.827.601-1.176 1.039-2.633 1.312-4.375.281-1.739.422-3.832.422-6.282 0-2.55-.14-4.718-.422-6.5-.273-1.789-.71-3.289-1.312-4.5-.594-1.218-1.368-2.175-2.313-2.875-.95-.695-2.11-1.226-3.484-1.593-1.367-.375-2.95-.61-4.75-.703a110.396 110.396 0 0 0-6.157-.157c-2.687 0-5.011.09-6.968.266-1.961.168-3.625.469-5 .906-1.367.43-2.477 1.027-3.328 1.797-.844.762-1.5 1.746-1.97 2.953-.468 1.2-.78 2.649-.937 4.344-.156 1.687-.234 3.672-.234 5.953 0 2.262.078 4.227.234 5.89.157 1.669.47 3.094.938 4.282.469 1.187 1.125 2.168 1.969 2.937.851.774 1.96 1.375 3.328 1.813 1.375.43 3.039.726 5 .89 1.957.168 4.281.25 6.968.25ZM6342.27 1081.04c-.075.282-.618 1-1.626 2.157-.719.867-1.68 1.632-2.875 2.297-1.2.656-2.805 1.167-4.812 1.53-2 .376-4.637.563-7.907.563-4.343 0-8.054-.226-11.125-.672-3.074-.437-5.586-1.113-7.53-2.03-1.95-.927-3.372-2.11-4.266-3.548-.899-1.445-1.344-3.164-1.344-5.156 0-2.094.242-3.863.734-5.312.488-1.458 1.207-2.676 2.156-3.657.946-.988 2.094-1.758 3.438-2.312 1.344-.551 2.875-.969 4.594-1.25 1.718-.29 3.597-.473 5.64-.547 2.04-.07 4.211-.11 6.516-.11 3.289 0 6.039.141 8.25.422 2.207.274 4.016.621 5.422 1.047 1.406.418 2.469.867 3.187 1.344.719.48 1.235.922 1.547 1.328 0-2.687-.117-4.976-.344-6.875-.23-1.894-.605-3.476-1.125-4.75-.511-1.281-1.18-2.297-2-3.047-.812-.758-1.812-1.332-3-1.718-1.187-.383-2.574-.63-4.156-.735a77.078 77.078 0 0 0-5.437-.172c-3.168 0-5.797.078-7.891.235-2.086.156-3.742.464-4.969.922-1.23.46-2.093 1.093-2.593 1.906-.5.804-.75 1.851-.75 3.14h-6.922c0-2.187.39-4.035 1.172-5.546.78-1.508 2.078-2.739 3.89-3.688 1.813-.945 4.192-1.633 7.14-2.062 2.958-.438 6.598-.657 10.923-.657 4.226 0 7.804.352 10.734 1.047 2.926.688 5.297 1.914 7.11 3.672 1.812 1.75 3.117 4.11 3.921 7.078.813 2.961 1.219 6.711 1.219 11.25v19.594h-6.922Zm-16.063 1.079c3.05 0 5.601-.141 7.656-.422 2.05-.29 3.703-.723 4.953-1.297 1.25-.582 2.133-1.305 2.656-2.172.532-.863.797-1.875.797-3.031 0-1.145-.308-2.118-.922-2.922-.605-.813-1.625-1.469-3.062-1.969-1.43-.508-3.32-.875-5.672-1.094-2.356-.226-5.262-.343-8.719-.343-3.45 0-6.242.062-8.375.187-2.125.117-3.765.39-4.922.828-1.148.43-1.918 1.063-2.312 1.906-.399.836-.594 1.97-.594 3.407 0 1.449.207 2.625.625 3.53.426.9 1.285 1.595 2.578 2.095 1.3.5 3.172.843 5.61 1.03 2.437.18 5.671.267 9.703.267ZM6408.326 1087.525c-4.605 0-8.516-.336-11.734-1-3.22-.676-5.84-1.832-7.86-3.469-2.023-1.633-3.492-3.832-4.406-6.594-.906-2.758-1.36-6.226-1.36-10.406 0-4.32.454-7.898 1.36-10.734.914-2.832 2.383-5.078 4.406-6.735 2.02-1.656 4.64-2.816 7.86-3.484 3.218-.676 7.129-1.016 11.734-1.016 3.27 0 6.008.168 8.219.5 2.207.336 4.015.758 5.422 1.266 1.406.5 2.472 1.047 3.203 1.64.726.586 1.258 1.126 1.594 1.626v-17.72h6.921v55.329h-6.921v-6.156l-1.72 2.047a12.879 12.879 0 0 1-3.359 2.39c-1.218.594-2.933 1.164-5.14 1.703-2.211.54-4.95.813-8.219.813Zm0-5.406c2.3 0 4.352-.051 6.156-.157 1.801-.113 3.383-.347 4.75-.703 1.375-.363 2.535-.898 3.485-1.61.945-.706 1.718-1.648 2.312-2.827.602-1.176 1.04-2.633 1.313-4.375.28-1.739.422-3.832.422-6.282 0-2.55-.141-4.718-.422-6.5-.274-1.789-.711-3.289-1.313-4.5-.594-1.218-1.367-2.175-2.312-2.875-.95-.695-2.11-1.226-3.485-1.593-1.367-.375-2.949-.61-4.75-.703a110.396 110.396 0 0 0-6.156-.157c-2.687 0-5.012.09-6.969.266-1.96.168-3.625.469-5 .906-1.367.43-2.476 1.027-3.328 1.797-.844.762-1.5 1.746-1.969 2.953-.468 1.2-.78 2.649-.937 4.344-.156 1.687-.234 3.672-.234 5.953 0 2.262.078 4.227.234 5.89.156 1.669.469 3.094.937 4.282.47 1.187 1.125 2.168 1.97 2.937.85.774 1.96 1.375 3.327 1.813 1.375.43 3.04.726 5 .89 1.957.168 4.282.25 6.969.25ZM6471.895 1087.525c-4.605 0-8.515-.32-11.734-.953-3.219-.633-5.84-1.735-7.86-3.297-2.023-1.563-3.492-3.649-4.406-6.266-.906-2.625-1.359-5.914-1.359-9.875 0-4.539.453-8.289 1.36-11.25.913-2.969 2.382-5.328 4.406-7.078 2.02-1.758 4.64-2.984 7.859-3.672 3.219-.695 7.129-1.047 11.734-1.047 3.29 0 6.141.242 8.547.719 2.414.48 4.485 1.18 6.203 2.094 1.72.906 3.11 2.011 4.172 3.312 1.07 1.293 1.914 2.653 2.531 4.078.614 1.43 1.032 3.106 1.25 5.032.227 1.918.344 3.945.344 6.078l-.562 2.312h-40.922c0 3.168.312 5.766.937 7.797.625 2.031 1.657 3.516 3.094 4.453 1.438.938 3.332 1.532 5.688 1.782 2.351.25 5.257.375 8.718.375 3.164 0 5.785-.086 7.86-.266 2.082-.188 3.734-.531 4.953-1.031 1.226-.5 2.086-1.196 2.578-2.094.5-.906.75-2.082.75-3.531h6.906c0 2.242-.39 4.148-1.172 5.718-.773 1.575-2.058 2.844-3.859 3.813-1.805.969-4.18 1.68-7.125 2.125-2.938.445-6.57.672-10.89.672Zm0-37.688c-2.304 0-4.359.055-6.172.157-1.812.093-3.402.304-4.765.625-1.356.324-2.512.792-3.469 1.406-.96.617-1.734 1.34-2.328 2.172-.586.824-1.016 1.984-1.297 3.484-.273 1.5-.406 3.309-.406 5.422h34.578c0-2.813-.305-5.016-.906-6.61-.594-1.593-1.543-2.906-2.844-3.937-1.293-1.039-2.961-1.754-5-2.14-2.043-.383-4.508-.579-7.39-.579ZM5872.996 1167.647c0-2.883.145-5.43.438-7.64.289-2.208.8-4.126 1.531-5.75.727-1.633 1.711-3 2.953-4.094 1.239-1.094 2.801-1.973 4.688-2.64 1.883-.677 4.125-1.161 6.719-1.454 2.593-.29 5.613-.438 9.062-.438 4.613 0 8.41.29 11.39.86 2.977.562 5.333 1.43 7.063 2.594 1.727 1.156 2.926 2.632 3.594 4.421.676 1.793 1.016 3.922 1.016 6.391h-6.922c0-.883-.028-1.71-.078-2.484-.043-.77-.215-1.461-.516-2.078-.305-.625-.777-1.18-1.422-1.672-.648-.5-1.574-.914-2.781-1.25-1.2-.344-2.715-.598-4.547-.766-1.836-.164-4.102-.25-6.797-.25-3.074 0-5.664.11-7.766.328-2.093.219-3.828.574-5.203 1.063-1.367.492-2.422 1.152-3.172 1.984-.742.824-1.277 1.84-1.609 3.047-.336 1.2-.531 2.61-.594 4.234-.062 1.618-.093 3.48-.093 5.594 0 2.063.03 3.899.093 5.5.063 1.594.258 2.984.594 4.172.332 1.187.867 2.195 1.61 3.016.75.812 1.804 1.468 3.171 1.968 1.375.5 3.11.86 5.203 1.078 2.102.22 4.692.329 7.766.329 2.695 0 4.961-.094 6.797-.282 1.832-.195 3.348-.472 4.547-.828 1.207-.363 2.133-.812 2.781-1.344.645-.53 1.117-1.132 1.422-1.812.3-.688.473-1.441.516-2.266.05-.832.078-1.726.078-2.687h6.922c0 2.523-.34 4.71-1.016 6.562-.668 1.844-1.867 3.36-3.594 4.547-1.73 1.188-4.086 2.074-7.062 2.656-2.98.57-6.778.86-11.39.86-3.45 0-6.47-.149-9.063-.438-2.594-.293-4.836-.765-6.72-1.422-1.886-.656-3.448-1.523-4.687-2.609-1.242-1.082-2.226-2.414-2.953-4-.73-1.582-1.242-3.445-1.531-5.594-.293-2.156-.438-4.625-.438-7.406ZM5934.297 1167.288c0-4.25.453-7.766 1.36-10.547.913-2.79 2.382-5.004 4.406-6.64 2.02-1.634 4.64-2.782 7.859-3.438 3.219-.657 7.129-.985 11.734-.985 4.614 0 8.532.328 11.75.985 3.22.656 5.832 1.804 7.844 3.437 2.02 1.637 3.484 3.852 4.39 6.64.915 2.782 1.376 6.298 1.376 10.548s-.461 7.781-1.375 10.593c-.907 2.805-2.371 5.032-4.39 6.688-2.013 1.656-4.626 2.828-7.845 3.516-3.218.687-7.136 1.03-11.75 1.03-4.605 0-8.515-.343-11.734-1.03-3.219-.688-5.84-1.86-7.86-3.516-2.023-1.656-3.492-3.883-4.406-6.688-.906-2.812-1.36-6.343-1.36-10.593Zm6.922 0c0 2.304.082 4.308.25 6.015.164 1.7.484 3.164.953 4.391.469 1.23 1.117 2.23 1.953 3 .844.762 1.945 1.371 3.313 1.828 1.375.461 3.039.774 5 .938 1.957.168 4.28.25 6.968.25 2.301 0 4.36-.051 6.172-.157 1.82-.113 3.41-.363 4.766-.75 1.351-.382 2.508-.93 3.469-1.64.957-.707 1.726-1.672 2.312-2.89.594-1.227 1.024-2.735 1.297-4.517.281-1.789.422-3.945.422-6.468 0-2.477-.14-4.586-.422-6.328-.273-1.739-.703-3.196-1.297-4.375-.586-1.176-1.355-2.102-2.312-2.782-.961-.687-2.118-1.203-3.47-1.547-1.355-.351-2.944-.578-4.765-.671a111.195 111.195 0 0 0-6.172-.157c-2.304 0-4.36.055-6.172.157-1.812.093-3.402.32-4.765.671-1.356.344-2.512.86-3.469 1.547-.96.68-1.734 1.606-2.328 2.782-.586 1.18-1.016 2.636-1.297 4.375-.273 1.742-.406 3.851-.406 6.328ZM6039.37 1188.319v-23.047c0-2.57-.195-4.738-.578-6.5-.387-1.77-1.156-3.191-2.313-4.266-1.148-1.082-2.777-1.863-4.89-2.343-2.117-.489-4.903-.735-8.36-.735-3.75 0-6.82.282-9.203.844-2.386.555-4.265 1.336-5.64 2.344-1.367 1-2.309 2.21-2.828 3.625-.512 1.418-.766 2.992-.766 4.719v25.359h-6.922v-41.5h6.922v6.922a8.668 8.668 0 0 1 2.156-3.047 14.156 14.156 0 0 1 3.172-2.172 19.37 19.37 0 0 1 3.813-1.453 34.496 34.496 0 0 1 4.109-.86 43.038 43.038 0 0 1 3.969-.421c1.289-.07 2.46-.11 3.515-.11 3.082 0 5.735.196 7.953.578 2.22.375 4.098.938 5.641 1.688 1.55.742 2.797 1.664 3.734 2.766.938 1.105 1.66 2.386 2.172 3.843.52 1.45.864 3.07 1.032 4.86.175 1.793.265 3.746.265 5.86l-.047 23.046ZM6074.151 1152.085v36.234h-6.906v-36.234h-6.922v-5.266h6.922v-.36c0-2.8.312-5.14.937-7.015s1.657-3.375 3.094-4.5c1.438-1.133 3.336-1.938 5.703-2.406 2.364-.469 5.274-.703 8.735-.703h8.03v5.765h-8.062c-2.187 0-4.015.055-5.484.156-1.46.094-2.64.418-3.547.97-.898.554-1.539 1.429-1.922 2.624-.386 1.2-.578 2.903-.578 5.11v.359h19.594v5.266ZM6105.461 1146.819h6.906v41.5h-6.906Zm6.906-6.906h-6.906v-6.922h6.906ZM6170 1182.631c-.074.282-.617 1-1.625 2.157-.719.867-1.68 1.633-2.875 2.297-1.2.656-2.805 1.168-4.812 1.53-2 .376-4.637.563-7.907.563-4.343 0-8.054-.226-11.125-.672-3.074-.437-5.586-1.113-7.53-2.03-1.95-.927-3.372-2.11-4.266-3.548-.899-1.445-1.344-3.164-1.344-5.156 0-2.094.242-3.863.734-5.312.488-1.457 1.207-2.676 2.156-3.657.946-.988 2.094-1.757 3.438-2.312 1.344-.55 2.875-.969 4.594-1.25 1.718-.29 3.597-.473 5.64-.547 2.04-.07 4.211-.11 6.516-.11 3.289 0 6.039.141 8.25.422 2.207.274 4.016.622 5.422 1.047 1.406.418 2.469.868 3.187 1.344.719.48 1.235.922 1.547 1.328 0-2.687-.117-4.976-.344-6.875-.23-1.894-.605-3.476-1.125-4.75-.511-1.281-1.18-2.297-2-3.047-.812-.757-1.812-1.332-3-1.718-1.187-.383-2.574-.63-4.156-.735a77.078 77.078 0 0 0-5.437-.172c-3.168 0-5.797.078-7.891.235-2.086.156-3.742.465-4.969.922-1.23.46-2.093 1.093-2.593 1.906-.5.805-.75 1.851-.75 3.14h-6.922c0-2.187.39-4.035 1.172-5.546.78-1.508 2.078-2.739 3.89-3.688 1.813-.945 4.192-1.633 7.14-2.062 2.958-.438 6.598-.657 10.923-.657 4.226 0 7.804.352 10.734 1.047 2.926.688 5.297 1.914 7.11 3.672 1.812 1.75 3.117 4.11 3.921 7.078.813 2.961 1.219 6.711 1.219 11.25v19.594H6170Zm-16.062 1.079c3.05 0 5.601-.141 7.656-.422 2.05-.29 3.703-.723 4.953-1.297 1.25-.582 2.133-1.305 2.656-2.172.532-.863.797-1.875.797-3.031 0-1.145-.308-2.117-.922-2.922-.605-.813-1.625-1.469-3.062-1.969-1.43-.508-3.32-.875-5.672-1.094-2.356-.226-5.262-.343-8.719-.343-3.45 0-6.242.062-8.375.187-2.125.117-3.765.39-4.922.828-1.148.43-1.918 1.063-2.312 1.906-.399.836-.594 1.97-.594 3.407 0 1.449.207 2.625.625 3.531.426.898 1.285 1.594 2.578 2.094 1.3.5 3.172.843 5.61 1.031 2.437.18 5.671.266 9.703.266ZM6232.424 1188.319v-23.047c0-2.57-.195-4.738-.578-6.5-.386-1.77-1.156-3.191-2.312-4.266-1.149-1.082-2.778-1.863-4.89-2.343-2.118-.489-4.903-.735-8.36-.735-3.75 0-6.82.282-9.203.844-2.387.555-4.266 1.336-5.64 2.344-1.368 1-2.31 2.21-2.829 3.625-.512 1.418-.766 2.992-.766 4.719v25.359h-6.922v-41.5h6.922v6.922a8.668 8.668 0 0 1 2.157-3.047 14.156 14.156 0 0 1 3.171-2.172 19.37 19.37 0 0 1 3.813-1.453 34.496 34.496 0 0 1 4.11-.86 43.038 43.038 0 0 1 3.968-.421c1.29-.07 2.461-.11 3.516-.11 3.082 0 5.734.196 7.953.578 2.219.375 4.097.938 5.64 1.688 1.551.742 2.797 1.664 3.735 2.766.937 1.105 1.66 2.386 2.172 3.843.52 1.45.863 3.07 1.031 4.86.176 1.793.266 3.746.266 5.86l-.047 23.046ZM6255.69 1146.819v5.078h32.844l-35.157 30.656v5.766h43.797v-5.156h-34.64l34.64-30.578v-5.766ZM6352.497 1182.631c-.074.282-.617 1-1.625 2.157-.719.867-1.68 1.633-2.875 2.297-1.2.656-2.805 1.168-4.812 1.53-2 .376-4.637.563-7.907.563-4.343 0-8.054-.226-11.125-.672-3.074-.437-5.586-1.113-7.531-2.03-1.95-.927-3.371-2.11-4.266-3.548-.898-1.445-1.343-3.164-1.343-5.156 0-2.094.242-3.863.734-5.312.488-1.457 1.207-2.676 2.156-3.657.946-.988 2.094-1.757 3.438-2.312 1.344-.55 2.875-.969 4.594-1.25 1.718-.29 3.597-.473 5.64-.547 2.04-.07 4.211-.11 6.516-.11 3.289 0 6.039.141 8.25.422 2.207.274 4.015.622 5.422 1.047 1.406.418 2.468.868 3.187 1.344.719.48 1.235.922 1.547 1.328 0-2.687-.117-4.976-.344-6.875-.23-1.894-.605-3.476-1.125-4.75-.511-1.281-1.18-2.297-2-3.047-.812-.757-1.812-1.332-3-1.718-1.187-.383-2.574-.63-4.156-.735a77.078 77.078 0 0 0-5.437-.172c-3.168 0-5.797.078-7.891.235-2.086.156-3.742.465-4.969.922-1.23.46-2.094 1.093-2.594 1.906-.5.805-.75 1.851-.75 3.14h-6.921c0-2.187.39-4.035 1.171-5.546.782-1.508 2.079-2.739 3.891-3.688 1.813-.945 4.191-1.633 7.14-2.062 2.958-.438 6.598-.657 10.923-.657 4.226 0 7.804.352 10.734 1.047 2.926.688 5.297 1.914 7.11 3.672 1.812 1.75 3.116 4.11 3.921 7.078.813 2.961 1.219 6.711 1.219 11.25v19.594h-6.922Zm-16.062 1.079c3.05 0 5.601-.141 7.656-.422 2.05-.29 3.703-.723 4.953-1.297 1.25-.582 2.133-1.305 2.656-2.172.531-.863.797-1.875.797-3.031 0-1.145-.309-2.117-.922-2.922-.605-.813-1.625-1.469-3.062-1.969-1.43-.508-3.32-.875-5.672-1.094-2.356-.226-5.262-.343-8.719-.343-3.45 0-6.242.062-8.375.187-2.125.117-3.766.39-4.922.828-1.148.43-1.918 1.063-2.312 1.906-.399.836-.594 1.97-.594 3.407 0 1.449.207 2.625.625 3.531.426.898 1.285 1.594 2.578 2.094 1.3.5 3.172.843 5.61 1.031 2.437.18 5.671.266 9.703.266Zm0 0" fill="#43e8ed"/><path d="M1976.04 458.896v290.282c0 10.043 3.149 15.062 9.454 15.062 3.156 0 5.445-1.07 6.875-3.219 1.437-2.156 2.156-6.101 2.156-11.843V458.896h59.781v282.11c0 30.105-4.156 49.312-12.469 57.625-8.312 7.75-26.949 11.625-55.906 11.625-30.398 0-49.61-3.875-57.64-11.625-8.024-8.02-12.032-27.227-12.032-57.625v-282.11ZM2163.523 458.896v303.188h35.703V808.1h-95.484V458.896ZM2347.578 458.896v46.438h-29.235V808.1h-59.78V505.334h-29.25v-46.438ZM2447.343 458.896V808.1h-59.781V458.896ZM2567.753 458.896l21.937 167.282h3.016l21.922-167.282h69.672V808.1h-53.329l2.157-206.438h-3.438L2606.893 808.1h-31.39l-22.797-206.438h-3.438l2.141 206.438h-53.328V458.896ZM2792.227 749.178c0 9.75 3.297 14.625 9.89 14.625 3.438 0 5.801-1.07 7.094-3.219 1.29-2.156 1.938-5.957 1.938-11.406V518.24c0-10.039-3.297-15.062-9.89-15.062-6.024 0-9.032 5.023-9.032 15.062Zm-59.344-222.766c0-30.969 4.008-50.32 12.031-58.062 8.032-7.739 26.958-11.61 56.782-11.61 30.101 0 49.164 4.016 57.187 12.047 8.031 8.024 12.047 27.23 12.047 57.625v214.172c0 30.387-4.156 49.734-12.469 58.047-8.312 7.75-26.949 11.625-55.906 11.625-30.105 0-49.172-3.875-57.203-11.625-8.313-8.313-12.469-27.66-12.469-58.047ZM3054.982 579.303h-59.344v-61.5c0-9.75-3.297-14.625-9.89-14.625-3.157 0-5.383 1.078-6.672 3.234-1.293 2.149-1.938 5.945-1.938 11.39v54.188c0 6.313.93 10.836 2.797 13.563 1.863 2.718 5.375 5.656 10.531 8.812l36.563 21.063c10.031 5.742 17.195 12.48 21.5 20.218 4.3 7.743 6.453 18.637 6.453 32.688v72.672c0 31.543-4.016 50.898-12.047 58.062-8.312 7.461-27.375 11.188-57.187 11.188-29.532 0-48.313-3.875-56.344-11.625-8.313-8.313-12.469-27.52-12.469-57.625V664.02h60.203v85.157c0 10.043 3.297 15.062 9.89 15.062 5.74 0 8.61-5.02 8.61-15.062v-73.969c0-6.3-.867-10.742-2.594-13.328-1.718-2.582-5.304-5.453-10.75-8.61l-38.265-22.359c-9.75-5.726-16.703-12.61-20.86-20.64-4.156-8.032-6.234-19.352-6.234-33.97v-49.89c0-29.82 4.156-48.89 12.469-57.203 8.312-8.313 27.234-12.469 56.765-12.469 29.239 0 48.02 3.871 56.344 11.61 8.313 7.742 12.469 27.093 12.469 58.062ZM3234.723 458.896l15.484 134.61 14.187-134.61h56.344l-39.562 208.141V808.1h-61.938V667.037l-42.578-208.14ZM3513.385 458.896l21.938 167.282h3.015l21.922-167.282h69.672V808.1h-53.328l2.156-206.438h-3.437L3552.526 808.1h-31.39l-22.798-206.438h-3.437l2.14 206.438h-53.328V458.896ZM3776.14 458.896v45.579h-35.702v89.03h35.703v46.016h-35.703v122.563h35.703V808.1h-95.485V458.896ZM3951.155 458.896v282.11c0 30.105-4.157 49.312-12.47 57.625-8.312 7.75-26.663 11.625-55.046 11.625-27.523 0-45.297-3.875-53.328-11.625-8.031-8.02-12.047-27.227-12.047-57.625v-77.844h54.187v86.016c0 10.043 3.301 15.062 9.907 15.062 3.144 0 5.437-1.07 6.875-3.219 1.437-2.156 2.156-6.101 2.156-11.843V458.896ZM4059.52 749.178c0 9.75 3.297 14.625 9.891 14.625 3.438 0 5.8-1.07 7.094-3.219 1.289-2.156 1.937-5.957 1.937-11.406V518.24c0-10.039-3.296-15.062-9.89-15.062-6.024 0-9.031 5.023-9.031 15.062Zm-59.343-222.766c0-30.969 4.008-50.32 12.031-58.062 8.031-7.739 26.957-11.61 56.781-11.61 30.102 0 49.164 4.016 57.188 12.047 8.031 8.024 12.047 27.23 12.047 57.625v214.172c0 30.387-4.157 49.734-12.47 58.047-8.312 7.75-26.948 11.625-55.905 11.625-30.106 0-49.172-3.875-57.203-11.625-8.313-8.313-12.47-27.66-12.47-58.047ZM4247.01 611.13c.57 0 1.43.075 2.578.22 1.144.148 2.004.218 2.578.218 5.164 0 8.75-1.218 10.75-3.656 2.008-2.437 3.016-7.238 3.016-14.406v-67.094c0-10.32-1.008-16.555-3.016-18.703-2-2.156-6.012-3.234-12.031-3.234h-3.875Zm13.328-152.234c26.094 0 43.441 4.446 52.047 13.329 8.601 8.593 12.906 27.804 12.906 57.625v45.593c0 18.918-2.012 32.68-6.031 41.282-3.73 7.742-10.75 14.046-21.063 18.921 9.739 3.73 16.688 9.54 20.844 17.422 4.164 7.887 6.25 19.996 6.25 36.328V808.1h-59.36V678.646c0-5.726-1.148-9.812-3.437-12.25-2.293-2.437-5.875-3.656-10.75-3.656-.574 0-1.367.074-2.375.219-1 .137-1.789.203-2.36.203V808.1h-59.78V458.896ZM4471.064 458.896v45.579h-35.703v89.03h35.703v46.016h-35.703v122.563h35.703V808.1h-95.484V458.896ZM4655.547 579.303h-59.344v-61.5c0-9.75-3.297-14.625-9.89-14.625-3.157 0-5.383 1.078-6.672 3.234-1.293 2.149-1.938 5.945-1.938 11.39v54.188c0 6.313.93 10.836 2.797 13.563 1.863 2.718 5.375 5.656 10.531 8.812l36.563 21.063c10.03 5.742 17.195 12.48 21.5 20.218 4.3 7.743 6.453 18.637 6.453 32.688v72.672c0 31.543-4.016 50.898-12.047 58.062-8.313 7.461-27.375 11.188-57.188 11.188-29.53 0-48.312-3.875-56.343-11.625-8.313-8.313-12.47-27.52-12.47-57.625V664.02h60.204v85.157c0 10.043 3.297 15.062 9.89 15.062 5.739 0 8.61-5.02 8.61-15.062v-73.969c0-6.3-.867-10.742-2.594-13.328-1.718-2.582-5.304-5.453-10.75-8.61l-38.265-22.359c-9.75-5.726-16.703-12.61-20.86-20.64-4.156-8.032-6.234-19.352-6.234-33.97v-49.89c0-29.82 4.156-48.89 12.469-57.203 8.312-8.313 27.234-12.469 56.765-12.469 29.239 0 48.02 3.871 56.344 11.61 8.313 7.742 12.469 27.093 12.469 58.062Zm0 0" fill="#6c4892"/><path d="M2618.768 1158.358v-141.406h141.406v14.734H2636.44v47.14h117.844v14.72H2636.44v50.077h123.734v14.735ZM2862.123 1049.358c8.352 0 15.352.465 21 1.39 5.645.918 10.258 2.07 13.844 3.454 3.594 1.375 6.32 2.867 8.187 4.468 1.875 1.594 3.243 3.063 4.11 4.407v-10.766h17.672v141.39h-17.672v-47.124c-.867 1.406-2.235 2.914-4.11 4.515-1.867 1.594-4.593 3.086-8.187 4.469-3.586 1.375-8.2 2.523-13.844 3.437-5.648.926-12.648 1.391-21 1.391-11.781 0-21.789-.875-30.016-2.625-8.218-1.75-14.906-4.738-20.062-8.969-5.156-4.238-8.902-9.945-11.234-17.125-2.325-7.187-3.485-16.21-3.485-27.078 0-10.863 1.16-19.851 3.485-26.969 2.332-7.113 6.078-12.757 11.234-16.937 5.156-4.176 11.844-7.11 20.062-8.797 8.227-1.687 18.235-2.531 30.016-2.531Zm0 14.734c-6.875 0-12.812.188-17.812.563-5 .367-9.25 1.07-12.75 2.109-3.5 1.043-6.34 2.484-8.516 4.328-2.18 1.844-3.867 4.274-5.063 7.281-1.199 3-1.996 6.653-2.39 10.954-.399 4.292-.594 9.382-.594 15.265 0 5.899.195 11.027.594 15.39.394 4.356 1.191 8.095 2.39 11.22 1.196 3.125 2.883 5.671 5.063 7.64 2.176 1.969 5.016 3.54 8.516 4.703 3.5 1.157 7.75 1.953 12.75 2.39 5 .43 10.937.642 17.812.642 5.895 0 11.145-.133 15.75-.407 4.602-.281 8.649-.91 12.14-1.89 3.5-.989 6.462-2.399 8.891-4.235 2.426-1.843 4.407-4.328 5.938-7.453 1.531-3.133 2.648-7.004 3.36-11.61.706-4.6 1.062-10.155 1.062-16.655 0-6.383-.356-11.817-1.063-16.297-.71-4.477-1.828-8.207-3.36-11.188-1.53-2.976-3.51-5.328-5.937-7.047-2.43-1.718-5.39-2.988-8.89-3.812-3.492-.832-7.54-1.352-12.14-1.563-4.606-.218-9.856-.328-15.75-.328ZM2990.688 1052.31v58.907c0 6.574.489 12.117 1.47 16.625.987 4.512 2.952 8.149 5.89 10.906 2.945 2.762 7.117 4.758 12.515 5.985 5.407 1.23 12.532 1.844 21.375 1.844 9.57 0 17.41-.704 23.516-2.11 6.101-1.414 10.906-3.41 14.406-5.984 3.5-2.582 5.906-5.68 7.219-9.297 1.32-3.625 1.984-7.645 1.984-12.063v-64.812h17.672v106.047h-17.672v-17.672c-.855 1.898-2.297 3.996-4.328 6.297-2.023 2.304-5.058 4.437-9.11 6.406-4.054 1.961-9.288 3.617-15.702 4.969-6.407 1.351-14.368 2.031-23.875 2.031-7.918 0-14.715-.48-20.39-1.437-5.68-.946-10.497-2.352-14.454-4.22-3.961-1.874-7.137-4.19-9.531-6.952-2.399-2.77-4.243-5.977-5.532-9.625-1.28-3.657-2.14-7.723-2.578-12.203-.43-4.477-.64-9.391-.64-14.735l.093-58.906ZM3148.619 1052.31h17.672v106.048h-17.672Zm17.672-17.671h-17.672v-17.687h17.672ZM3282.998 1049.358c11.782 0 21.782.89 30 2.672 8.227 1.78 14.922 4.824 20.078 9.125 5.157 4.293 8.899 10.043 11.235 17.25 2.332 7.21 3.5 16.246 3.5 27.109 0 10.68-1.168 19.547-3.5 26.61-2.336 7.054-6.078 12.667-11.235 16.843-5.156 4.18-11.851 7.125-20.078 8.844-8.218 1.719-18.218 2.578-30 2.578-8.406 0-15.433-.465-21.078-1.39-5.648-.915-10.265-2.063-13.86-3.438-3.593-1.383-6.327-2.875-8.202-4.469-1.867-1.601-3.2-3.11-4-4.515v47.125h-17.672V1052.31h17.672v9.844c.8-1.227 2.133-2.594 4-4.094 1.875-1.5 4.61-2.895 8.203-4.188 3.594-1.289 8.21-2.363 13.86-3.218 5.644-.864 12.671-1.297 21.077-1.297Zm0 14.734c-5.898 0-11.148.156-15.75.469-4.605.305-8.656.933-12.156 1.89-3.492.95-6.45 2.329-8.875 4.141-2.43 1.805-4.406 4.227-5.937 7.266-1.532 3.031-2.653 6.793-3.36 11.281-.71 4.48-1.062 9.852-1.062 16.11 0 6.312.351 11.742 1.062 16.28.707 4.544 1.828 8.337 3.36 11.376 1.53 3.043 3.507 5.468 5.937 7.28 2.426 1.806 5.383 3.184 8.875 4.142 3.5.949 7.55 1.562 12.156 1.843 4.602.274 9.852.407 15.75.407 6.875 0 12.813-.211 17.813-.641 5-.438 9.25-1.207 12.75-2.313 3.5-1.101 6.336-2.632 8.515-4.593 2.176-1.97 3.864-4.47 5.063-7.5 1.195-3.04 1.992-6.692 2.39-10.953.395-4.27.594-9.29.594-15.063 0-5.77-.199-10.8-.593-15.094-.399-4.289-1.196-7.972-2.391-11.047-1.2-3.07-2.887-5.586-5.063-7.546-2.18-1.97-5.015-3.536-8.515-4.704-3.5-1.164-7.75-1.96-12.75-2.39-5-.426-10.938-.64-17.813-.64ZM3387.907 1104.592c0-10.863 1.16-19.851 3.485-26.969 2.332-7.113 6.078-12.757 11.234-16.937 5.156-4.176 11.844-7.11 20.063-8.797 8.226-1.687 18.234-2.531 30.015-2.531 11.781 0 21.781.844 30 2.531 8.227 1.688 14.922 4.621 20.078 8.797 5.157 4.18 8.899 9.824 11.235 16.937 2.332 7.118 3.5 16.106 3.5 26.97 0 10.866-1.168 19.89-3.5 27.077-2.336 7.18-6.078 12.887-11.235 17.125-5.156 4.23-11.851 7.219-20.078 8.969-8.219 1.75-18.219 2.625-30 2.625-11.781 0-21.789-.875-30.015-2.625-8.22-1.75-14.907-4.738-20.063-8.969-5.156-4.238-8.902-9.945-11.234-17.125-2.325-7.187-3.485-16.21-3.485-27.078Zm17.672 0c0 5.899.211 11.027.64 15.39.427 4.356 1.24 8.095 2.438 11.22 1.196 3.125 2.867 5.671 5.016 7.64 2.144 1.969 4.969 3.54 8.469 4.703 3.5 1.157 7.75 1.953 12.75 2.39 5 .43 10.937.642 17.812.642 5.895 0 11.16-.133 15.797-.407 4.633-.281 8.68-.91 12.14-1.89 3.47-.989 6.43-2.383 8.891-4.188 2.457-1.812 4.438-4.281 5.938-7.406 1.5-3.133 2.601-6.988 3.312-11.563.707-4.57 1.063-10.082 1.063-16.53 0-6.321-.356-11.708-1.063-16.157-.71-4.445-1.812-8.172-3.312-11.172-1.5-3.008-3.48-5.39-5.938-7.14-2.46-1.75-5.422-3.067-8.89-3.954-3.461-.894-7.508-1.46-12.141-1.703-4.637-.25-9.902-.375-15.797-.375-5.887 0-11.148.125-15.781.375-4.637.242-8.688.809-12.156 1.703-3.47.887-6.434 2.203-8.891 3.953-2.45 1.75-4.43 4.133-5.937 7.141-1.5 3-2.606 6.727-3.313 11.172-.7 4.45-1.047 9.836-1.047 16.156ZM3622.418 1110.03c6.875 0 12.734.109 17.578.328 4.851.21 8.922.574 12.203 1.094 3.281.523 5.875 1.183 7.781 1.984 1.906.793 3.348 1.976 4.328 3.547.977 1.562 1.602 3.125 1.875 4.687.282 1.563.422 3.36.422 5.39 0 2.212-.14 4.22-.422 6.032a11.328 11.328 0 0 1-1.968 4.922c-1.043 1.469-2.579 2.73-4.61 3.781-2.023 1.043-4.781 1.934-8.281 2.672-3.5.73-7.844 1.266-13.031 1.61-5.18.335-11.45.5-18.813.5-8.105 0-14.812-.227-20.125-.688-5.305-.457-9.523-1.332-12.656-2.625-3.125-1.289-5.32-3.086-6.578-5.39-1.262-2.301-1.89-5.29-1.89-8.97h-17.673c0 5.587.992 10.31 2.985 14.173 2 3.867 5.3 7.011 9.906 9.437 4.601 2.43 10.66 4.195 18.172 5.297 7.52 1.101 16.804 1.656 27.86 1.656 8.831 0 16.577-.262 23.234-.781 6.664-.52 12.39-1.317 17.171-2.39 4.79-1.083 8.766-2.493 11.922-4.235 3.164-1.75 5.664-3.836 7.5-6.266 1.844-2.426 3.13-5.218 3.86-8.375.738-3.164 1.109-6.742 1.109-10.734 0-3.988-.371-7.5-1.11-10.531-.73-3.04-2-5.68-3.812-7.922-1.812-2.239-4.226-4.305-7.234-6.203-3-1.907-6.805-3.317-11.406-4.235-4.606-.926-10.055-1.57-16.344-1.937-6.281-.375-13.602-.563-21.953-.563-6.875 0-12.735-.015-17.578-.047-4.844-.03-8.915-.21-12.204-.546-3.28-.333-5.875-.836-7.78-1.516-1.9-.676-3.34-1.66-4.329-2.953-.98-1.29-1.61-2.93-1.89-4.922a44.935 44.935 0 0 1-.407-6.125c0-3.55.797-6.336 2.39-8.36 1.602-2.03 4.243-3.535 7.923-4.515 3.687-.988 8.535-1.602 14.547-1.844 6.007-.25 13.437-.375 22.28-.375 8.102 0 14.805.23 20.11.688 5.313.46 9.531 1.289 12.656 2.484 3.133 1.2 5.329 2.844 6.579 4.938 1.257 2.085 1.89 4.78 1.89 8.093h17.672c0-5.343-.89-9.945-2.672-13.812-1.773-3.864-4.887-7.067-9.344-9.61-4.449-2.55-10.464-4.441-18.046-5.671-7.575-1.227-17.188-1.844-28.844-1.844-11.781 0-21.79.527-30.016 1.578-8.219 1.043-14.906 2.746-20.062 5.11-5.157 2.355-8.903 5.421-11.235 9.202-2.336 3.774-3.5 8.418-3.5 13.938 0 4.055.367 7.812 1.11 11.281.738 3.469 1.992 6.387 3.765 8.75 1.782 2.356 4.192 4.242 7.235 5.656 3.039 1.407 6.843 2.496 11.406 3.266 4.57.773 10.02 1.281 16.344 1.531 6.32.242 13.656.36 22 .36ZM3858.76 1049.358c11.781 0 21.781.89 30 2.672 8.226 1.78 14.922 4.824 20.078 9.125 5.156 4.293 8.898 10.043 11.234 17.25 2.332 7.21 3.5 16.246 3.5 27.109 0 10.68-1.168 19.547-3.5 26.61-2.336 7.054-6.078 12.667-11.234 16.843-5.156 4.18-11.852 7.125-20.078 8.844-8.219 1.719-18.219 2.578-30 2.578-8.406 0-15.434-.465-21.078-1.39-5.649-.915-10.266-2.063-13.86-3.438-3.593-1.383-6.328-2.875-8.203-4.469-1.867-1.601-3.199-3.11-4-4.515v47.125h-17.672V1052.31h17.672v9.844c.801-1.227 2.133-2.594 4-4.094 1.875-1.5 4.61-2.895 8.203-4.188 3.594-1.289 8.211-2.363 13.86-3.218 5.644-.864 12.672-1.297 21.078-1.297Zm0 14.734c-5.899 0-11.149.156-15.75.469-4.606.305-8.656.933-12.156 1.89-3.493.95-6.45 2.329-8.875 4.141-2.43 1.805-4.407 4.227-5.938 7.266-1.531 3.031-2.652 6.793-3.36 11.281-.71 4.48-1.062 9.852-1.062 16.11 0 6.312.352 11.742 1.063 16.28.707 4.544 1.828 8.337 3.36 11.376 1.53 3.043 3.507 5.468 5.937 7.28 2.425 1.806 5.382 3.184 8.875 4.142 3.5.949 7.55 1.562 12.156 1.843 4.601.274 9.851.407 15.75.407 6.875 0 12.812-.211 17.812-.641 5-.438 9.25-1.207 12.75-2.313 3.5-1.101 6.336-2.632 8.516-4.593 2.176-1.97 3.863-4.47 5.062-7.5 1.196-3.04 1.993-6.692 2.391-10.953.395-4.27.594-9.29.594-15.063 0-5.77-.2-10.8-.594-15.094-.398-4.289-1.195-7.972-2.39-11.047-1.2-3.07-2.887-5.586-5.063-7.546-2.18-1.97-5.016-3.536-8.516-4.704-3.5-1.164-7.75-1.96-12.75-2.39-5-.426-10.937-.64-17.812-.64ZM4072.2 1143.81c-.187.743-1.57 2.587-4.14 5.532-1.844 2.211-4.305 4.156-7.376 5.844-3.062 1.687-7.156 3.008-12.28 3.953-5.126.945-11.86 1.422-20.204 1.422-11.117 0-20.602-.57-28.453-1.703-7.856-1.133-14.266-2.88-19.234-5.235-4.97-2.363-8.606-5.382-10.907-9.062-2.304-3.688-3.453-8.078-3.453-13.172 0-5.344.625-9.867 1.875-13.578 1.258-3.719 3.102-6.832 5.531-9.344 2.426-2.52 5.36-4.484 8.797-5.89 3.438-1.415 7.348-2.489 11.735-3.22 4.382-.738 9.187-1.202 14.406-1.39 5.219-.187 10.77-.281 16.656-.281 8.406 0 15.43.355 21.078 1.062 5.645.711 10.266 1.602 13.86 2.672 3.593 1.074 6.304 2.227 8.14 3.453 1.844 1.23 3.164 2.368 3.969 3.407 0-6.875-.293-12.735-.875-17.578-.586-4.852-1.539-8.907-2.86-12.157-1.312-3.25-3.015-5.836-5.109-7.765-2.086-1.938-4.648-3.395-7.687-4.375-3.031-.989-6.574-1.618-10.625-1.891-4.055-.281-8.688-.422-13.906-.422-8.106 0-14.829.203-20.172.61-5.336.398-9.57 1.18-12.703 2.343-3.125 1.157-5.336 2.766-6.625 4.828-1.282 2.055-1.922 4.735-1.922 8.047h-17.672c0-5.582.992-10.304 2.984-14.172 2-3.863 5.313-7.007 9.938-9.437 4.632-2.426 10.726-4.192 18.28-5.297 7.552-1.102 16.849-1.656 27.892-1.656 10.8 0 19.945.89 27.437 2.672 7.488 1.78 13.547 4.914 18.172 9.39 4.633 4.48 7.976 10.512 10.031 18.094 2.063 7.574 3.094 17.164 3.094 28.766v50.078H4072.2Zm-41.062 2.767c7.789 0 14.312-.368 19.562-1.11 5.25-.738 9.469-1.844 12.656-3.312 3.196-1.47 5.469-3.305 6.813-5.516 1.351-2.219 2.031-4.797 2.031-7.734 0-2.946-.789-5.446-2.36-7.5-1.562-2.063-4.171-3.735-7.827-5.016-3.649-1.289-8.481-2.227-14.5-2.812-6.012-.583-13.434-.875-22.266-.875-8.836 0-15.969.156-21.406.468-5.43.305-9.618 1.008-12.563 2.11-2.95 1.105-4.93 2.73-5.937 4.875-1.012 2.148-1.516 5.062-1.516 8.75 0 3.68.535 6.668 1.61 8.968 1.07 2.305 3.265 4.102 6.578 5.391 3.312 1.293 8.082 2.168 14.312 2.625 6.227.461 14.5.688 24.813.688ZM4227.188 1086.827c0-4.415-.325-8.083-.97-11-.647-2.915-2.167-5.243-4.562-6.985-2.398-1.75-5.945-2.976-10.64-3.687-4.688-.707-11.086-1.063-19.188-1.063-7.918 0-14.36.695-19.328 2.078-4.969 1.375-8.867 3.324-11.687 5.844-2.825 2.512-4.746 5.516-5.766 9.016-1.012 3.5-1.516 7.398-1.516 11.687v65.64h-17.671v-106.046h17.671v16.844c.614-1.907 1.75-4.004 3.407-6.297 1.656-2.301 4.172-4.446 7.547-6.438 3.375-2 7.742-3.676 13.109-5.031 5.375-1.352 12.082-2.031 20.125-2.031 9.207 0 16.695.82 22.469 2.453 5.77 1.625 10.265 4.016 13.484 7.172 3.219 3.156 5.395 7.07 6.531 11.734 1.133 4.668 1.703 10.04 1.703 16.11ZM4381.712 1143.81c-.188.743-1.57 2.587-4.14 5.532-1.845 2.211-4.305 4.156-7.376 5.844-3.062 1.687-7.156 3.008-12.281 3.953-5.125.945-11.86 1.422-20.203 1.422-11.117 0-20.602-.57-28.453-1.703-7.856-1.133-14.266-2.88-19.235-5.235-4.968-2.363-8.605-5.382-10.906-9.062-2.305-3.688-3.453-8.078-3.453-13.172 0-5.344.625-9.867 1.875-13.578 1.258-3.719 3.102-6.832 5.531-9.344 2.426-2.52 5.36-4.484 8.797-5.89 3.438-1.415 7.348-2.489 11.734-3.22 4.383-.738 9.188-1.202 14.407-1.39 5.218-.187 10.77-.281 16.656-.281 8.406 0 15.43.355 21.078 1.062 5.645.711 10.266 1.602 13.86 2.672 3.593 1.074 6.304 2.227 8.14 3.453 1.844 1.23 3.164 2.368 3.969 3.407 0-6.875-.293-12.735-.875-17.578-.586-4.852-1.54-8.907-2.86-12.157-1.312-3.25-3.015-5.836-5.109-7.765-2.086-1.938-4.648-3.395-7.687-4.375-3.032-.989-6.575-1.618-10.625-1.891-4.055-.281-8.688-.422-13.907-.422-8.105 0-14.828.203-20.172.61-5.335.398-9.57 1.18-12.703 2.343-3.125 1.157-5.336 2.766-6.625 4.828-1.28 2.055-1.922 4.735-1.922 8.047h-17.671c0-5.582.992-10.304 2.984-14.172 2-3.863 5.312-7.007 9.937-9.437 4.633-2.426 10.727-4.192 18.282-5.297 7.55-1.102 16.847-1.656 27.89-1.656 10.801 0 19.946.89 27.438 2.672 7.488 1.78 13.547 4.914 18.172 9.39 4.633 4.48 7.976 10.512 10.03 18.094 2.063 7.574 3.095 17.164 3.095 28.766v50.078h-17.672Zm-41.063 2.767c7.79 0 14.313-.368 19.563-1.11 5.25-.738 9.469-1.844 12.656-3.312 3.195-1.47 5.469-3.305 6.813-5.516 1.351-2.219 2.03-4.797 2.03-7.734 0-2.946-.788-5.446-2.359-7.5-1.562-2.063-4.171-3.735-7.828-5.016-3.648-1.289-8.48-2.227-14.5-2.812-6.011-.583-13.433-.875-22.265-.875-8.836 0-15.97.156-21.407.468-5.43.305-9.617 1.008-12.562 2.11-2.95 1.105-4.93 2.73-5.938 4.875-1.011 2.148-1.515 5.062-1.515 8.75 0 3.68.535 6.668 1.61 8.968 1.07 2.305 3.265 4.102 6.577 5.391 3.313 1.293 8.082 2.168 14.313 2.625 6.226.461 14.5.688 24.812.688ZM3478.57 1320.796c0-7.364-.805-13.192-2.406-17.485-1.594-4.289-4.235-7.539-7.922-9.75-3.68-2.219-8.524-3.629-14.531-4.234-6.012-.613-13.438-.922-22.282-.922h-47.312c-7.856 0-14.469.23-19.844.687-5.367.461-9.797 1.399-13.297 2.813-3.5 1.406-6.203 3.434-8.11 6.078-1.898 2.637-3.276 6.133-4.14 10.484-.855 4.356-1.344 9.711-1.469 16.063-.125 6.355-.187 13.95-.187 22.781 0 8.844.078 16.446.234 22.797.157 6.344.66 11.7 1.516 16.063.863 4.355 2.227 7.851 4.094 10.484 1.875 2.637 4.562 4.664 8.062 6.078 3.5 1.418 7.93 2.356 13.297 2.813 5.375.46 11.988.687 19.844.687h47.406c6.875 0 12.797-.18 17.766-.547 4.968-.375 9.203-1.05 12.703-2.031 3.5-.977 6.32-2.328 8.469-4.047 2.144-1.719 3.816-3.879 5.015-6.484 1.196-2.614 2.008-5.742 2.438-9.39.437-3.657.656-7.942.656-12.86v-8.828h-70.89v-14.735h88.562v23.563c0 5.898-.371 11.226-1.11 15.984-.742 4.75-2.046 8.984-3.921 12.703a31.027 31.027 0 0 1-7.5 9.625c-3.125 2.7-7.086 4.922-11.875 6.672-4.782 1.742-10.493 3.024-17.125 3.86-6.625.831-14.356 1.25-23.188 1.25h-47.406c-10.805 0-19.902-.665-27.297-1.985-7.398-1.32-13.492-3.316-18.281-5.984-4.782-2.664-8.48-6.024-11.094-10.078-2.605-4.051-4.508-8.805-5.703-14.266-1.2-5.469-1.89-11.633-2.078-18.5-.18-6.875-.266-14.488-.266-22.844 0-8.344.086-15.953.266-22.828.187-6.875.879-13.039 2.078-18.5 1.195-5.457 3.098-10.21 5.703-14.266 2.613-4.05 6.312-7.41 11.094-10.078 4.789-2.675 10.883-4.672 18.281-5.984 7.395-1.32 16.492-1.984 27.297-1.984h47.312c8.844 0 16.578.418 23.203 1.25 6.625.824 12.329 2.078 17.11 3.765 4.789 1.688 8.765 3.824 11.922 6.406 3.164 2.575 5.68 5.61 7.547 9.11 1.875 3.5 3.18 7.46 3.921 11.875.739 4.418 1.11 9.324 1.11 14.719ZM3647.816 1403.467c-.187.743-1.57 2.586-4.14 5.532-1.844 2.21-4.305 4.156-7.375 5.843-3.063 1.688-7.156 3.008-12.281 3.954-5.125.945-11.86 1.421-20.204 1.421-11.117 0-20.601-.57-28.453-1.703-7.855-1.132-14.265-2.879-19.234-5.234-4.969-2.363-8.606-5.383-10.906-9.063-2.305-3.687-3.453-8.078-3.453-13.171 0-5.344.625-9.868 1.875-13.579 1.257-3.718 3.101-6.832 5.53-9.343 2.427-2.52 5.36-4.485 8.798-5.89 3.437-1.415 7.347-2.49 11.734-3.22 4.383-.738 9.188-1.203 14.406-1.39 5.219-.188 10.77-.282 16.657-.282 8.406 0 15.43.356 21.078 1.063 5.644.71 10.265 1.602 13.859 2.672 3.594 1.074 6.305 2.226 8.14 3.453 1.844 1.23 3.165 2.367 3.97 3.406 0-6.875-.294-12.734-.876-17.578-.586-4.851-1.539-8.906-2.859-12.156-1.312-3.25-3.016-5.836-5.11-7.766-2.085-1.937-4.648-3.394-7.687-4.375-3.031-.988-6.574-1.617-10.625-1.89-4.055-.282-8.687-.422-13.906-.422-8.106 0-14.828.203-20.172.61-5.336.398-9.57 1.179-12.703 2.343-3.125 1.156-5.336 2.765-6.625 4.828-1.281 2.055-1.922 4.734-1.922 8.047h-17.672c0-5.582.992-10.305 2.985-14.172 2-3.863 5.312-7.008 9.937-9.438 4.633-2.425 10.727-4.191 18.281-5.296 7.551-1.102 16.848-1.657 27.89-1.657 10.802 0 19.946.89 27.438 2.672 7.489 1.781 13.547 4.914 18.172 9.39 4.633 4.481 7.977 10.513 10.032 18.095 2.062 7.574 3.093 17.164 3.093 28.765v50.078h-17.672Zm-41.062 2.766c7.789 0 14.312-.367 19.562-1.11 5.25-.738 9.47-1.843 12.657-3.312 3.195-1.469 5.468-3.304 6.812-5.515 1.352-2.22 2.031-4.797 2.031-7.735 0-2.945-.789-5.445-2.359-7.5-1.562-2.062-4.172-3.734-7.828-5.015-3.649-1.29-8.48-2.227-14.5-2.813-6.012-.582-13.434-.875-22.266-.875-8.836 0-15.968.156-21.406.469-5.43.305-9.617 1.008-12.562 2.11-2.95 1.105-4.93 2.73-5.938 4.874-1.012 2.149-1.516 5.063-1.516 8.75 0 3.68.536 6.668 1.61 8.969 1.07 2.305 3.265 4.102 6.578 5.39 3.312 1.294 8.082 2.169 14.312 2.626 6.227.46 14.5.687 24.813.687ZM3823.413 1418.014h-17.671v-59.843c0-6.375-.418-11.754-1.25-16.141-.825-4.395-2.512-7.941-5.063-10.64-2.543-2.696-6.133-4.645-10.766-5.844-4.636-1.196-10.726-1.797-18.265-1.797-8.293 0-15.11.695-20.453 2.078-5.336 1.375-9.54 3.308-12.61 5.797-3.062 2.48-5.195 5.468-6.39 8.968-1.2 3.5-1.797 7.399-1.797 11.688v65.734h-17.672v-106.047h17.672v16.75c.062-.187.336-.8.828-1.843.488-1.04 1.363-2.282 2.625-3.72 1.258-1.444 2.976-3 5.156-4.655 2.176-1.657 5-3.188 8.469-4.594 3.469-1.414 7.656-2.582 12.562-3.5 4.914-.926 10.75-1.39 17.5-1.39 6.625 0 12.375.417 17.25 1.25 4.883.824 9.063 2.054 12.532 3.687 3.468 1.625 6.289 3.652 8.468 6.078 2.176 2.418 3.91 5.195 5.204 8.328 1.039-1.656 2.664-3.586 4.875-5.797 2.207-2.219 5.289-4.336 9.25-6.36 3.957-2.03 8.91-3.734 14.859-5.109 5.957-1.382 13.234-2.078 21.828-2.078 7.05 0 13.11.48 18.172 1.438 5.062.949 9.344 2.36 12.844 4.234 3.5 1.867 6.304 4.184 8.422 6.953 2.125 2.762 3.753 5.97 4.89 9.625 1.133 3.649 1.883 7.727 2.25 12.235.363 4.511.547 9.402.547 14.672v59.843h-17.672v-59.843c0-6.375-.418-11.754-1.25-16.141-.824-4.395-2.512-7.941-5.062-10.64-2.543-2.696-6.133-4.645-10.766-5.844-4.637-1.196-10.727-1.797-18.266-1.797-8.293 0-15.109.695-20.453 2.078-5.336 1.375-9.539 3.308-12.61 5.797-3.062 2.48-5.194 5.468-6.39 8.968-1.199 3.5-1.797 7.399-1.797 11.688ZM3969.554 1311.967h17.672v106.047h-17.672Zm17.672-17.671h-17.672v-17.688h17.672ZM4145.168 1418.014v-58.922c0-6.562-.492-12.097-1.469-16.609-.98-4.508-2.945-8.144-5.89-10.906-2.95-2.758-7.126-4.754-12.532-5.985-5.398-1.226-12.512-1.843-21.344-1.843-9.574 0-17.418.71-23.53 2.125-6.106 1.406-10.907 3.402-14.407 5.984-3.492 2.574-5.899 5.672-7.219 9.297-1.324 3.617-1.984 7.633-1.984 12.047v64.812h-17.672v-106.047h17.672v17.672a22.21 22.21 0 0 1 5.531-7.78c2.395-2.177 5.094-4.032 8.094-5.563 3.008-1.54 6.265-2.786 9.765-3.735 3.5-.945 6.993-1.68 10.485-2.203 3.5-.52 6.89-.875 10.172-1.062 3.289-.188 6.285-.282 8.984-.282 7.852 0 14.617.496 20.297 1.485 5.676.98 10.492 2.422 14.453 4.328 3.957 1.898 7.133 4.258 9.531 7.078 2.395 2.824 4.25 6.094 5.563 9.812 1.32 3.711 2.195 7.852 2.625 12.422.426 4.575.64 9.559.64 14.953l-.093 58.922ZM4270.786 1323.749c-6.875 0-12.813.215-17.813.64-5 .43-9.25 1.2-12.75 2.313-3.5 1.105-6.34 2.64-8.515 4.61-2.18 1.96-3.867 4.476-5.063 7.546-1.199 3.063-1.996 6.762-2.39 11.094-.399 4.324-.594 9.398-.594 15.219 0 5.773.195 10.793.594 15.062.394 4.262 1.191 7.914 2.39 10.953 1.196 3.031 2.883 5.531 5.063 7.5 2.176 1.961 5.015 3.492 8.515 4.594 3.5 1.105 7.75 1.875 12.75 2.312 5 .43 10.938.641 17.813.641 5.894 0 11.144-.133 15.75-.406 4.601-.281 8.648-.895 12.14-1.844 3.5-.957 6.461-2.336 8.891-4.14 2.426-1.813 4.406-4.239 5.938-7.282 1.53-3.039 2.648-6.816 3.359-11.328.707-4.508 1.062-9.953 1.062-16.328 0-6.383-.355-11.848-1.062-16.39-.711-4.54-1.828-8.329-3.36-11.36-1.53-3.04-3.511-5.453-5.937-7.234-2.43-1.782-5.39-3.13-8.89-4.047-3.493-.926-7.54-1.508-12.141-1.75-4.606-.25-9.856-.375-15.75-.375Zm64.812 79.53c0 10.313-1.168 18.876-3.5 25.688-2.336 6.813-6.078 12.317-11.234 16.516-5.156 4.207-11.852 7.14-20.078 8.797-8.219 1.656-18.219 2.484-30 2.484-11.043 0-20.324-.492-27.844-1.468-7.523-.98-13.586-2.532-18.187-4.657-4.594-2.117-7.891-4.843-9.891-8.187-1.992-3.344-2.984-7.406-2.984-12.188h17.671c0 2.383.625 4.344 1.875 5.875 1.258 1.54 3.454 2.739 6.579 3.594 3.132.863 7.359 1.461 12.671 1.797 5.313.344 12.016.516 20.11.516 8.844 0 16.27-.325 22.281-.97 6.008-.648 10.852-2.167 14.531-4.562 3.688-2.398 6.328-6.015 7.922-10.86 1.602-4.843 2.406-11.315 2.406-19.42-.867 1.468-2.234 3.062-4.109 4.78-1.867 1.72-4.594 3.32-8.187 4.797-3.586 1.469-8.2 2.692-13.844 3.672-5.649.988-12.649 1.484-21 1.484-11.781 0-21.79-.875-30.016-2.625-8.219-1.75-14.906-4.738-20.062-8.968-5.157-4.239-8.903-9.946-11.235-17.125-2.324-7.188-3.484-16.211-3.484-27.078 0-11.04 1.16-20.18 3.484-27.422 2.332-7.25 6.078-12.989 11.235-17.22 5.156-4.237 11.843-7.218 20.062-8.937 8.227-1.718 18.235-2.578 30.016-2.578 8.351 0 15.351.434 21 1.297 5.644.856 10.258 1.93 13.844 3.219 3.593 1.293 6.32 2.687 8.187 4.187 1.875 1.5 3.242 2.868 4.11 4.094v-9.844h17.671ZM4399.257 1418.014h-17.672v-17.672h17.672ZM1948.527 350.448V250.104h100.344v10.453h-87.797v33.437h83.61v10.454h-83.61v35.546h87.797v10.454ZM2146.028 350.448v-41.813c0-4.656-.352-8.582-1.047-11.781-.7-3.207-2.094-5.79-4.188-7.75-2.086-1.957-5.043-3.375-8.875-4.25-3.836-.875-8.886-1.313-15.156-1.313-6.805 0-12.37.508-16.703 1.516-4.336 1-7.742 2.418-10.219 4.25-2.48 1.824-4.187 4.023-5.125 6.594-.937 2.562-1.406 5.414-1.406 8.547v46h-12.547v-75.266h12.547v12.547a15.736 15.736 0 0 1 3.922-5.516 25.75 25.75 0 0 1 5.75-3.953c2.133-1.094 4.441-1.973 6.922-2.64a63.635 63.635 0 0 1 7.437-1.563 75.79 75.79 0 0 1 7.219-.75 113.17 113.17 0 0 1 6.375-.203c5.582 0 10.383.351 14.406 1.047 4.032.687 7.446 1.71 10.25 3.062 2.813 1.356 5.067 3.031 6.766 5.031 1.707 2 3.023 4.32 3.953 6.954.938 2.636 1.555 5.578 1.86 8.828.312 3.242.468 6.777.468 10.61l-.062 41.812ZM2182.615 312.948c0-5.227.257-9.844.78-13.844.532-4.008 1.458-7.492 2.782-10.453 1.332-2.969 3.117-5.442 5.36-7.422 2.238-1.977 5.066-3.578 8.484-4.797 3.426-1.219 7.488-2.086 12.187-2.61 4.707-.53 10.196-.796 16.469-.796 8.363 0 15.242.515 20.64 1.547 5.407 1.023 9.676 2.59 12.813 4.703 3.133 2.105 5.313 4.781 6.531 8.031 1.22 3.242 1.829 7.105 1.829 11.594h-12.547c0-1.614-.043-3.114-.125-4.5-.086-1.395-.403-2.66-.953-3.797-.543-1.133-1.403-2.145-2.579-3.031-1.18-.895-2.855-1.645-5.03-2.25-2.18-.614-4.934-1.07-8.266-1.375-3.336-.313-7.438-.47-12.313-.47-5.574 0-10.266.2-14.078.595-3.813.398-6.961 1.043-9.438 1.937-2.48.887-4.398 2.086-5.75 3.594-1.355 1.5-2.34 3.34-2.953 5.515-.605 2.18-.965 4.735-1.078 7.672a287.245 287.245 0 0 0-.156 10.157c0 3.75.05 7.074.156 9.968.113 2.899.473 5.422 1.078 7.578.614 2.157 1.598 3.977 2.953 5.454 1.352 1.48 3.27 2.68 5.75 3.593 2.477.918 5.625 1.575 9.438 1.97 3.812.386 8.504.577 14.078.577 4.875 0 8.977-.172 12.313-.515 3.332-.352 6.085-.86 8.265-1.516 2.176-.656 3.852-1.457 5.031-2.406 1.176-.957 2.036-2.055 2.579-3.297.55-1.25.867-2.625.953-4.125.082-1.5.125-3.125.125-4.875h12.547c0 4.574-.61 8.539-1.829 11.89-1.218 3.356-3.398 6.11-6.53 8.266-3.138 2.156-7.407 3.762-12.813 4.813-5.399 1.039-12.278 1.562-20.641 1.562-6.273 0-11.762-.262-16.469-.781-4.699-.524-8.761-1.379-12.187-2.578-3.418-1.196-6.246-2.774-8.485-4.735-2.242-1.968-4.027-4.39-5.359-7.265-1.324-2.875-2.25-6.258-2.781-10.157-.524-3.894-.781-8.367-.781-13.421ZM2309.173 275.182v41.812c0 4.668.348 8.602 1.047 11.797.696 3.2 2.086 5.782 4.172 7.75 2.094 1.961 5.055 3.375 8.89 4.25 3.833.868 8.884 1.297 15.157 1.297 6.8 0 12.367-.5 16.703-1.5 4.332-1.008 7.739-2.426 10.219-4.25 2.477-1.832 4.187-4.031 5.125-6.594.937-2.57 1.406-5.425 1.406-8.562v-46h12.547v75.266h-12.547V337.9c-.605 1.355-1.625 2.851-3.062 4.484-1.438 1.625-3.594 3.137-6.469 4.531-2.875 1.399-6.59 2.575-11.14 3.532-4.555.957-10.204 1.437-16.954 1.437-5.625 0-10.453-.34-14.484-1.016-4.024-.675-7.438-1.675-10.25-3-2.813-1.332-5.07-2.976-6.766-4.937-1.699-1.957-3.008-4.234-3.922-6.828-.906-2.594-1.515-5.477-1.828-8.656-.304-3.176-.453-6.66-.453-10.454l.063-41.812ZM2454.416 351.885c-8.367 0-15.464-.578-21.296-1.734-5.836-1.157-10.586-3.145-14.25-5.969-3.657-2.832-6.313-6.625-7.97-11.375-1.655-4.75-2.484-10.719-2.484-17.906 0-8.227.829-15.032 2.485-20.407 1.656-5.382 4.312-9.664 7.969-12.843 3.664-3.176 8.414-5.395 14.25-6.657 5.832-1.257 12.93-1.89 21.296-1.89 5.97 0 11.141.437 15.516 1.312 4.375.868 8.117 2.125 11.234 3.782 3.114 1.656 5.641 3.664 7.579 6.015 1.937 2.344 3.457 4.813 4.562 7.406 1.113 2.594 1.879 5.637 2.297 9.125.414 3.481.625 7.157.625 11.032l-1.047 4.172h-74.219c0 5.75.567 10.468 1.703 14.156 1.133 3.68 3.004 6.367 5.61 8.062 2.613 1.7 6.055 2.778 10.328 3.235 4.27.46 9.539.687 15.812.687 5.75 0 10.504-.16 14.266-.484 3.77-.332 6.766-.957 8.984-1.875 2.227-.914 3.786-2.188 4.672-3.813.895-1.632 1.344-3.757 1.344-6.375h12.547c0 4.055-.711 7.508-2.125 10.36-1.418 2.855-3.762 5.164-7.031 6.922-3.262 1.761-7.559 3.043-12.89 3.843-5.337.813-11.923 1.22-19.767 1.22Zm0-68.344c-4.18 0-7.914.09-11.203.266-3.293.18-6.168.562-8.625 1.156-2.46.586-4.562 1.434-6.312 2.547-1.742 1.106-3.149 2.414-4.219 3.922-1.062 1.5-1.844 3.61-2.344 6.328-.5 2.719-.75 5.996-.75 9.828h62.72c0-5.094-.548-9.086-1.642-11.984-1.085-2.895-2.804-5.281-5.156-7.156-2.355-1.875-5.383-3.16-9.078-3.86-3.7-.695-8.164-1.047-13.39-1.047ZM2597.566 350.448v-41.813c0-4.656-.351-8.582-1.047-11.781-.699-3.207-2.093-5.79-4.187-7.75-2.086-1.957-5.043-3.375-8.875-4.25-3.836-.875-8.887-1.313-15.156-1.313-6.805 0-12.371.508-16.703 1.516-4.336 1-7.743 2.418-10.22 4.25-2.48 1.824-4.187 4.023-5.124 6.594-.938 2.562-1.406 5.414-1.406 8.547v46H2522.3v-75.266h12.547v12.547a15.736 15.736 0 0 1 3.921-5.516 25.75 25.75 0 0 1 5.75-3.953c2.133-1.094 4.442-1.973 6.922-2.64a63.635 63.635 0 0 1 7.438-1.563 75.79 75.79 0 0 1 7.219-.75 113.17 113.17 0 0 1 6.375-.203c5.582 0 10.382.351 14.406 1.047 4.031.687 7.445 1.71 10.25 3.062 2.812 1.356 5.066 3.031 6.765 5.031 1.707 2 3.024 4.32 3.954 6.954.937 2.636 1.554 5.578 1.859 8.828.312 3.242.469 6.777.469 10.61l-.063 41.812ZM2709.419 316.994c0 6.407-.528 11.758-1.578 16.047-1.043 4.293-2.793 7.727-5.25 10.297-2.461 2.563-5.696 4.39-9.704 5.485-4 1.086-8.945 1.625-14.828 1.625-5.71 0-10.5-.43-14.375-1.297-3.875-.875-7.011-2.36-9.406-4.453-2.398-2.094-4.117-4.88-5.156-8.36-1.043-3.488-1.563-7.844-1.563-13.062V285.51h-15.484v-10.328h15.484v-20.578h12.532v20.578h47.234v10.328h-47.234v37.766c0 4.18.316 7.402.953 9.672.632 2.261 1.644 3.918 3.03 4.968 1.395 1.043 3.235 1.653 5.517 1.828 2.289.168 5.093.25 8.406.25 2.613 0 4.953-.039 7.015-.125 2.07-.093 3.88-.367 5.422-.828 1.551-.457 2.867-1.148 3.953-2.078 1.094-.937 1.977-2.254 2.657-3.953.675-1.695 1.164-3.844 1.468-6.437.301-2.594.454-5.786.454-9.579ZM2800.308 299.682c0-3.133-.23-5.734-.687-7.797-.461-2.07-1.54-3.726-3.235-4.969-1.699-1.238-4.215-2.109-7.547-2.609-3.336-.508-7.875-.766-13.625-.766-5.617 0-10.187.496-13.718 1.485-3.524.98-6.29 2.367-8.297 4.156-2 1.781-3.36 3.914-4.078 6.39-.72 2.481-1.079 5.247-1.079 8.297v46.579h-12.546v-75.266h12.546v11.953c.438-1.344 1.243-2.832 2.422-4.469 1.176-1.632 2.957-3.16 5.344-4.578 2.395-1.414 5.5-2.597 9.313-3.547 3.812-.957 8.57-1.437 14.28-1.437 6.532 0 11.845.578 15.938 1.734 4.094 1.149 7.282 2.844 9.563 5.094 2.289 2.242 3.836 5.016 4.64 8.328.813 3.305 1.22 7.11 1.22 11.422ZM2903.411 340.12c-.137.53-1.117 1.84-2.937 3.921-1.313 1.575-3.06 2.961-5.235 4.157-2.18 1.199-5.086 2.132-8.719 2.796-3.636.676-8.418 1.016-14.343 1.016-7.875 0-14.606-.402-20.188-1.203-5.574-.8-10.125-2.04-13.656-3.719-3.524-1.676-6.102-3.82-7.734-6.437-1.637-2.614-2.454-5.727-2.454-9.344 0-3.79.446-7.004 1.344-9.64.895-2.633 2.203-4.844 3.922-6.626 1.719-1.789 3.797-3.187 6.234-4.187 2.438-1 5.211-1.758 8.329-2.281 3.113-.52 6.52-.844 10.218-.97 3.707-.132 7.649-.202 11.828-.202 5.97 0 10.957.25 14.97.75 4.007.5 7.284 1.133 9.827 1.89 2.551.762 4.477 1.578 5.782 2.453 1.312.868 2.25 1.668 2.812 2.407 0-4.875-.21-9.032-.625-12.469-.406-3.438-1.078-6.313-2.016-8.625-.937-2.313-2.152-4.148-3.64-5.516-1.48-1.375-3.297-2.41-5.453-3.109-2.157-.695-4.672-1.145-7.547-1.344-2.867-.195-6.153-.297-9.86-.297-5.75 0-10.523.149-14.312.438-3.781.281-6.79.84-9.016 1.672-2.218.824-3.789 1.965-4.703 3.422-.906 1.46-1.36 3.367-1.36 5.718h-12.546c0-3.968.707-7.32 2.125-10.062 1.414-2.75 3.766-4.985 7.047-6.703 3.289-1.719 7.613-2.969 12.969-3.75 5.363-.782 11.96-1.172 19.796-1.172 7.664 0 14.157.633 19.47 1.89 5.312 1.262 9.612 3.481 12.905 6.657 3.29 3.18 5.664 7.46 7.125 12.843 1.457 5.375 2.188 12.18 2.188 20.407v35.547h-12.547Zm-29.14 1.968c5.53 0 10.156-.258 13.874-.781 3.727-.531 6.723-1.316 8.985-2.36 2.27-1.038 3.883-2.343 4.844-3.906.957-1.57 1.437-3.406 1.437-5.5 0-2.093-.559-3.867-1.672-5.328-1.105-1.457-2.953-2.64-5.547-3.547-2.593-.914-6.027-1.582-10.297-2-4.261-.414-9.527-.625-15.796-.625-6.282 0-11.352.11-15.204.328-3.855.22-6.828.72-8.921 1.5-2.086.782-3.485 1.938-4.204 3.47-.718 1.523-1.078 3.59-1.078 6.202 0 2.618.38 4.743 1.14 6.375.759 1.625 2.317 2.899 4.673 3.813 2.351.918 5.738 1.543 10.156 1.875 4.426.324 10.297.484 17.61.484ZM2984.846 250.104h12.547v100.344h-12.547ZM3025.556 312.291c0-7.707.829-14.086 2.485-19.14 1.656-5.051 4.312-9.055 7.969-12.016 3.664-2.969 8.414-5.047 14.25-6.234 5.832-1.196 12.93-1.797 21.296-1.797 8.364 0 15.461.601 21.297 1.797 5.832 1.187 10.578 3.265 14.235 6.234 3.664 2.961 6.32 6.965 7.968 12.016 1.657 5.054 2.485 11.433 2.485 19.14 0 7.711-.828 14.118-2.485 19.22-1.648 5.093-4.304 9.148-7.968 12.155-3.657 3-8.403 5.121-14.235 6.36-5.836 1.238-12.933 1.86-21.297 1.86-8.367 0-15.464-.622-21.296-1.86-5.836-1.239-10.586-3.36-14.25-6.36-3.657-3.007-6.313-7.062-7.97-12.156-1.655-5.101-2.484-11.508-2.484-19.219Zm12.547 0c0 4.188.149 7.828.453 10.922.313 3.086.891 5.742 1.735 7.969.851 2.219 2.039 4.027 3.562 5.422 1.52 1.387 3.52 2.496 6 3.328 2.489.824 5.508 1.39 9.063 1.703 3.55.305 7.765.453 12.64.453 4.176 0 7.91-.097 11.204-.297 3.289-.195 6.164-.644 8.625-1.343 2.457-.696 4.554-1.688 6.296-2.97 1.75-1.28 3.157-3.03 4.22-5.25 1.07-2.226 1.859-4.96 2.359-8.202.5-3.25.75-7.16.75-11.735 0-4.476-.25-8.297-.75-11.453-.5-3.164-1.29-5.812-2.36-7.937-1.062-2.133-2.469-3.82-4.219-5.063-1.742-1.25-3.84-2.187-6.296-2.812-2.461-.633-5.336-1.04-8.625-1.219-3.293-.176-7.028-.266-11.204-.266-4.18 0-7.914.09-11.203.266-3.293.18-6.168.586-8.625 1.219-2.46.625-4.562 1.562-6.312 2.812-1.742 1.242-3.149 2.93-4.219 5.063-1.062 2.125-1.844 4.773-2.344 7.937-.5 3.156-.75 6.977-.75 11.453ZM3185.437 316.15c4.875 0 9.031.079 12.469.235 3.445.149 6.332.406 8.656.781 2.332.368 4.172.836 5.516 1.407 1.351.562 2.379 1.402 3.078 2.515.695 1.106 1.144 2.215 1.344 3.328.195 1.106.296 2.375.296 3.813 0 1.574-.101 3.008-.296 4.297a8.08 8.08 0 0 1-1.407 3.484c-.742 1.043-1.828 1.934-3.265 2.672-1.438.742-3.403 1.375-5.89 1.906-2.481.524-5.56.903-9.235 1.14-3.68.243-8.133.36-13.36.36-5.75 0-10.511-.16-14.28-.484-3.763-.332-6.759-.957-8.985-1.875-2.219-.914-3.778-2.188-4.672-3.813-.887-1.632-1.328-3.757-1.328-6.375h-12.547c0 3.97.707 7.325 2.125 10.063 1.414 2.742 3.754 4.976 7.015 6.703 3.27 1.719 7.57 2.969 12.907 3.75 5.343.781 11.93 1.172 19.765 1.172 6.27 0 11.77-.188 16.5-.563 4.727-.363 8.79-.925 12.188-1.687 3.394-.758 6.21-1.758 8.453-3 2.238-1.25 4.008-2.735 5.312-4.453 1.313-1.719 2.227-3.696 2.75-5.938.532-2.25.797-4.785.797-7.61 0-2.831-.265-5.327-.797-7.484-.523-2.156-1.421-4.023-2.703-5.609-1.28-1.594-2.992-3.062-5.125-4.406-2.136-1.352-4.84-2.36-8.109-3.016-3.262-.656-7.125-1.113-11.594-1.375-4.46-.258-9.652-.39-15.578-.39-4.875 0-9.039-.008-12.484-.032-3.438-.02-6.324-.148-8.657-.39-2.324-.239-4.164-.598-5.515-1.078-1.356-.477-2.383-1.176-3.078-2.094-.688-.914-1.133-2.082-1.328-3.5a31.12 31.12 0 0 1-.297-4.344c0-2.52.562-4.5 1.687-5.937 1.133-1.438 3.008-2.504 5.625-3.204 2.614-.695 6.055-1.132 10.328-1.312 4.27-.176 9.54-.266 15.813-.266 5.75 0 10.504.168 14.265.5 3.77.325 6.766.914 8.985 1.766 2.219.844 3.773 2.012 4.672 3.5.894 1.48 1.343 3.39 1.343 5.734h12.547c0-3.78-.636-7.039-1.906-9.78-1.262-2.75-3.469-5.024-6.625-6.829-3.156-1.813-7.43-3.148-12.812-4.016-5.375-.875-12.2-1.312-20.47-1.312-8.366 0-15.468.371-21.312 1.11-5.836.741-10.578 1.948-14.234 3.624-3.656 1.68-6.313 3.856-7.969 6.531-1.656 2.68-2.484 5.977-2.484 9.891 0 2.875.258 5.547.781 8.016.531 2.46 1.426 4.527 2.688 6.203 1.257 1.68 2.968 3.015 5.125 4.015 2.156 1 4.851 1.774 8.093 2.313 3.25.543 7.114.902 11.594 1.078 4.488.18 9.695.266 15.625.266Zm0 0" fill="#fff"/><g clip-path="url(#E)"><path fill="#6c4892" d="M4608.145 1051.832v97.5l116.273 90-116.273 90v97.5l242.296-187.5Zm4.875 279.75 119.273-92.25-119.273-92.625v-85.125l229.542 177.375-229.542 177.75Zm219.417-279.75v97.5l116.27 90-116.27 90v97.5l242.293-187.5Zm4.876 279.75 119.273-92.25-119.274-92.625v-85.125l229.543 177.375-229.542 177.75Zm219.414-279.75v97.5l116.273 90-116.273 90v97.5l242.296-187.5Zm4.878 279.75 119.27-92.25-119.27-92.25v-85.5l229.54 177.375-229.54 177.375Zm0 0"/></g><g clip-path="url(#F)"><path fill="#43e8ed" d="M4739.492 462.25v97.5l116.274 90-116.274 90v97.5l242.297-187.5Zm4.88 279.75 119.269-92.25-119.27-92.625V472l229.54 177.375-229.54 177.75Zm219.413-279.75v97.5l116.27 90-116.27 90v97.5l242.293-187.5ZM4968.66 742l119.274-92.25-119.274-92.625V472l229.543 177.375-229.543 177.75Zm219.418-279.75v97.5l116.27 90-116.27 90v97.5l242.293-187.5Zm4.875 279.75 119.27-92.25-119.27-92.25V472l229.543 177.375-229.543 177.375Zm0 0"/></g><g clip-path="url(#G)"><path fill="#43e8ed" d="M1132.145 462.25v97.5l116.273 90-116.273 90v97.5l242.296-187.5Zm4.878 279.75 119.27-92.25-119.27-92.625V472l229.543 177.375-229.543 177.75Zm219.415-279.75v97.5l116.273 90-116.274 90v97.5l242.297-187.5Zm4.874 279.75 119.274-92.25-119.274-92.625V472l229.543 177.375-229.543 177.75Zm219.418-279.75v97.5l116.27 90-116.27 90v97.5l242.293-187.5Zm4.875 279.75 119.274-92.25-119.274-92.25V472l229.543 177.375-229.543 177.375Zm0 0"/></g></svg>