<svg xmlns="http://www.w3.org/2000/svg" width="9216" viewBox="0 0 6912 1728" height="2304" version="1.0"><defs><clipPath id="q"><path d="m-771.79 3625.422 159.911-2573.54 2176.05 135.212-159.905 2573.535Zm0 0"/></clipPath><clipPath id="a"><path d="M5211 0h1701v1728H5211Zm0 0"/></clipPath><clipPath id="c"><path d="M5516.04 1728 5152.644 0H6912v1728Zm0 0" clip-rule="evenodd"/></clipPath><clipPath id="d"><path d="M5547.078-361.121c-224.043 66.672-366.152 293.258-330.312 523.836 27.152 178.336 149.257 316 304.996 372.972 77.32 28.602 123.793 107.403 114.68 189.84-7.317 63.657-4.66 130.965 9.238 197.063 40.773 193.879 167.453 347.836 333.156 430.316 96.27 47.625 155.957 145.5 161.21 252.524 1.79 46.789 9.548 94.62 22.813 141.293 85.559 302.941 389.2 494.453 699.254 443.054 352.371-58 581.215-397.152 508.473-743.05-30.113-143.204-107.242-263.872-210.52-350.282-104.609-87.277-131.246-235.816-62.886-353.722 79.203-137.438 107.113-305.5 62.629-473.29-82.082-308.273-390.645-506.804-704.875-453.374-36.579 6.543-70.489 14.824-104.805 26.64-114.602 40.203-240.262 11.418-324.352-76.726-116.89-123.809-299.117-180.961-478.699-127.094Zm0 0"/></clipPath><clipPath id="F"><path d="M4642.172 488.91H5334v375h-691.828Zm0 0"/></clipPath><clipPath id="f"><path d="M5813 1498h269v230h-269Zm0 0"/></clipPath><clipPath id="g"><path d="M5516.04 1728 5152.644 0H6912v1728Zm0 0" clip-rule="evenodd"/></clipPath><clipPath id="h"><path d="M5516.04 1728 5152.644 0H6912v1728Zm0 0" clip-rule="evenodd"/></clipPath><clipPath id="i"><path d="M5920.266 1500.96c2.148-.452 4.3-.847 6.464-1.194a135.15 135.15 0 0 1 13.067-1.43c2.187-.133 4.379-.211 6.57-.234 2.192-.024 4.383.007 6.57.09 2.192.085 4.38.222 6.563.413 2.184.192 4.36.434 6.531.735 2.172.297 4.336.648 6.489 1.05 2.156.407 4.296.864 6.43 1.372 2.132.511 4.25 1.07 6.355 1.683a134.026 134.026 0 0 1 12.422 4.297c2.035.817 4.046 1.68 6.039 2.598 1.992.914 3.96 1.879 5.902 2.89a132.733 132.733 0 0 1 11.348 6.637c1.836 1.2 3.64 2.442 5.414 3.727a129.853 129.853 0 0 1 5.226 3.988 133.422 133.422 0 0 1 5.028 4.238 137.149 137.149 0 0 1 9.394 9.196 140.496 140.496 0 0 1 4.348 4.93 132.83 132.83 0 0 1 7.945 10.477 131.74 131.74 0 0 1 3.578 5.514 136.954 136.954 0 0 1 3.301 5.684 135.068 135.068 0 0 1 5.75 11.82 134.022 134.022 0 0 1 9.09 31.512c.347 2.164.637 4.336.879 6.516.238 2.18.422 4.363.554 6.55a136.53 136.53 0 0 1 .145 13.145 136.308 136.308 0 0 1-1.145 13.098 134.336 134.336 0 0 1-10.996 37.738 132.788 132.788 0 0 1-6.07 11.66 134.355 134.355 0 0 1-3.453 5.594 138.6 138.6 0 0 1-3.727 5.418 139.728 139.728 0 0 1-3.988 5.226 133.766 133.766 0 0 1-8.719 9.836 130.33 130.33 0 0 1-4.71 4.582 133.434 133.434 0 0 1-26.598 19.176 130.911 130.911 0 0 1-5.84 3.02c-1.973.96-3.965 1.87-5.98 2.73-2.016.86-4.051 1.672-6.106 2.434a134.022 134.022 0 0 1-64.7 7.086 134.385 134.385 0 0 1-19.27-4.11 129.687 129.687 0 0 1-6.264-1.996 132.286 132.286 0 0 1-12.196-4.898 133.08 133.08 0 0 1-17.25-9.528 127.96 127.96 0 0 1-5.418-3.726 131.792 131.792 0 0 1-5.226-3.988 136.482 136.482 0 0 1-5.024-4.239 137.29 137.29 0 0 1-4.808-4.48 130.459 130.459 0 0 1-4.586-4.715 132.778 132.778 0 0 1-8.45-10.07 134.35 134.35 0 0 1-7.422-10.848 135.27 135.27 0 0 1-9.05-17.508 132.508 132.508 0 0 1-2.434-6.11 129.567 129.567 0 0 1-2.129-6.218c-.66-2.09-1.27-4.2-1.824-6.316a137.234 137.234 0 0 1-1.512-6.403 138.38 138.38 0 0 1-1.195-6.464 135.15 135.15 0 0 1-1.43-13.067c-.132-2.187-.21-4.379-.234-6.57-.023-2.192.008-4.383.09-6.574.082-2.192.219-4.38.41-6.563a135.867 135.867 0 0 1 1.785-13.023 138.26 138.26 0 0 1 1.371-6.43 134.132 134.132 0 0 1 3.676-12.621 135.05 135.05 0 0 1 7.79-18.105 135.062 135.062 0 0 1 3.175-5.755c1.11-1.89 2.258-3.757 3.457-5.593 1.2-1.836 2.441-3.64 3.727-5.414a126.32 126.32 0 0 1 3.988-5.227 129.834 129.834 0 0 1 4.238-5.027 130.197 130.197 0 0 1 4.48-4.809 127.215 127.215 0 0 1 4.712-4.586 126.855 126.855 0 0 1 4.93-4.347c1.679-1.41 3.39-2.778 5.136-4.102a127.924 127.924 0 0 1 5.332-3.844 130.368 130.368 0 0 1 5.516-3.578 132.772 132.772 0 0 1 11.523-6.324 135.46 135.46 0 0 1 5.98-2.73c2.016-.86 4.051-1.672 6.106-2.434a138.791 138.791 0 0 1 6.219-2.129c2.09-.66 4.195-1.266 6.316-1.82 2.117-.559 4.25-1.063 6.395-1.512Zm0 0"/></clipPath><clipPath id="E"><path d="M4608 1051.832h691.707v375H4608Zm0 0"/></clipPath><clipPath id="k"><path d="M5362 911h161v161h-161Zm0 0"/></clipPath><clipPath id="l"><path d="M5516.04 1728 5152.644 0H6912v1728Zm0 0" clip-rule="evenodd"/></clipPath><clipPath id="m"><path d="M5516.04 1728 5152.644 0H6912v1728Zm0 0" clip-rule="evenodd"/></clipPath><clipPath id="n"><path d="M5426.402 913.488a80.769 80.769 0 0 1 3.86-.715 80.742 80.742 0 0 1 3.886-.523 81.825 81.825 0 0 1 7.829-.469 82.067 82.067 0 0 1 3.921.055c1.305.05 2.61.133 3.914.246 1.301.113 2.602.258 3.899.438a80.661 80.661 0 0 1 7.707 1.445c1.27.305 2.535.64 3.789 1.004a81.535 81.535 0 0 1 7.414 2.562 79.393 79.393 0 0 1 7.125 3.277 81.408 81.408 0 0 1 3.434 1.895 78.978 78.978 0 0 1 6.566 4.29 76.313 76.313 0 0 1 3.117 2.378 80.15 80.15 0 0 1 3 2.527 84.43 84.43 0 0 1 2.867 2.676 77.497 77.497 0 0 1 2.739 2.813c.886.957 1.75 1.937 2.593 2.941a80.139 80.139 0 0 1 4.738 6.25 83.071 83.071 0 0 1 2.137 3.29 79.382 79.382 0 0 1 5.398 10.445 78.346 78.346 0 0 1 2.723 7.355 78.411 78.411 0 0 1 1.09 3.77 80.769 80.769 0 0 1 1.613 7.676c.208 1.292.38 2.585.524 3.886a81.988 81.988 0 0 1 .469 7.828 82.228 82.228 0 0 1-.05 3.926 82.203 82.203 0 0 1-.247 3.914 87.454 87.454 0 0 1-.437 3.898 80.662 80.662 0 0 1-1.446 7.707 79.714 79.714 0 0 1-1.008 3.793 79.77 79.77 0 0 1-2.558 7.414 81.256 81.256 0 0 1-3.274 7.125 81.486 81.486 0 0 1-3.957 6.77 76.5 76.5 0 0 1-2.226 3.234 76.314 76.314 0 0 1-2.38 3.118 80.148 80.148 0 0 1-2.526 3 80.529 80.529 0 0 1-8.426 8.199c-1 .84-2.024 1.656-3.067 2.445a76.238 76.238 0 0 1-3.18 2.293 78.886 78.886 0 0 1-3.288 2.137 81.506 81.506 0 0 1-3.395 1.969 81.422 81.422 0 0 1-3.48 1.804 84.025 84.025 0 0 1-3.57 1.63 83.013 83.013 0 0 1-3.641 1.448 78.347 78.347 0 0 1-3.711 1.27c-1.25.394-2.504.758-3.77 1.09-1.265.332-2.539.633-3.816.898-1.281.27-2.567.508-3.856.715-1.293.207-2.59.379-3.89.523a81.4 81.4 0 0 1-7.825.47 77.18 77.18 0 0 1-3.921-.055 72.565 72.565 0 0 1-3.914-.247 76.235 76.235 0 0 1-3.899-.437 76.05 76.05 0 0 1-3.871-.629 75.184 75.184 0 0 1-3.836-.816 84.633 84.633 0 0 1-3.793-1.004 79.825 79.825 0 0 1-7.41-2.563 79.253 79.253 0 0 1-7.125-3.277 78.892 78.892 0 0 1-6.77-3.957 80.258 80.258 0 0 1-3.234-2.223 80.11 80.11 0 0 1-3.117-2.383 77 77 0 0 1-2.996-2.527 80.592 80.592 0 0 1-5.605-5.484 77.207 77.207 0 0 1-2.594-2.946 80.008 80.008 0 0 1-4.742-6.246 81.597 81.597 0 0 1-4.106-6.683 79.382 79.382 0 0 1-3.43-7.055 86.285 86.285 0 0 1-1.453-3.645 83.035 83.035 0 0 1-1.27-3.71 78.369 78.369 0 0 1-1.085-3.77 79.591 79.591 0 0 1-2.47-15.473 81.856 81.856 0 0 1-.14-3.918 81.997 81.997 0 0 1 .055-3.922c.05-1.308.133-2.613.246-3.918a81.436 81.436 0 0 1 1.063-7.77 80.7 80.7 0 0 1 .82-3.835c.3-1.273.637-2.535 1.004-3.793.363-1.254.761-2.5 1.187-3.738a79.462 79.462 0 0 1 4.648-10.8 78.892 78.892 0 0 1 3.957-6.77 76.286 76.286 0 0 1 2.223-3.231 76.434 76.434 0 0 1 2.38-3.121 77 77 0 0 1 2.527-2.996 80.592 80.592 0 0 1 8.426-8.203 80.056 80.056 0 0 1 6.245-4.739 78.91 78.91 0 0 1 6.684-4.105 77.24 77.24 0 0 1 3.484-1.8 75.135 75.135 0 0 1 3.567-1.63c1.203-.515 2.418-1 3.644-1.453a76.864 76.864 0 0 1 3.711-1.27 78.26 78.26 0 0 1 7.582-1.988Zm0 0"/></clipPath><clipPath id="D"><path d="M1785 1051.832h691v375h-691Zm0 0"/></clipPath><clipPath id="p"><path d="M0 1120h1414v608H0Zm0 0"/></clipPath><clipPath id="b"><path d="M5516.04 1728 5152.644 0H6912v1728Zm0 0" clip-rule="evenodd"/></clipPath><clipPath id="r"><path d="m-771.79 3625.422 159.911-2573.54 2176.05 135.212-159.905 2573.535Zm0 0"/></clipPath><clipPath id="s"><path d="M-312.188 1774.723c-10.433 111.484 5.098 218.738 41.063 316.75 29.922 82.453-5.027 174.894-83.484 215.57-155.895 83.758-267.473 243.852-279.258 433.508-7.664 123.336 28.304 240.039 93.722 334.039 106.239 151.437 286.922 232.746 472.227 220.902l180.652-12.137c22.254-.953 41.098 15.403 42.051 37.653 8.438 202.594 167.41 370.156 374.543 383.027 176.875 10.988 335.383-95.965 396.488-252.187 5.668-16 20.426-27.934 36.934-30.41 243.328-43.282 433.582-247.547 449.559-504.688 12.148-195.477-79.63-372.879-228.395-479.066-104.027-74.211-147.133-207.707-100.047-326.258 27.61-68.367 43.946-143.274 48.79-221.23 24.581-395.602-273.145-736.477-666.102-766.735-392.813-32.586-741.578 259.945-778.743 651.262Zm0 0"/></clipPath><clipPath id="t"><path d="M0 0h1186v679H0Zm0 0"/></clipPath><clipPath id="u"><path d="m-50.762-457.086 1319.2 367.746-248.72 892.23-1319.202-367.742Zm0 0"/></clipPath><clipPath id="v"><path d="m-50.762-457.086 1319.2 367.746-248.72 892.23-1319.202-367.742Zm0 0"/></clipPath><clipPath id="w"><path d="M1181.86 118.14c21.39-111.261-44.297-223.011-151.462-259.113-82.757-28.168-169.238-6.406-228.535 47.852-29.574 26.867-73.843 29.25-107.258 6.91-25.738-17.367-55.277-31.266-86.804-40.055-92.485-25.78-186.996-5.691-259.489 47.153-41.988 30.765-97.414 34.57-144.613 12.918-20.52-9.684-42.82-17.032-65.855-21.754-149.39-30.887-299.59 56.926-346.762 201.773-53.789 164.52 40.922 338.723 205.922 384.719 68.312 19.043 137.434 12.828 197.668-12.285 60.906-25.496 130.734-3.766 166.16 51.98 41.406 64.774 107.441 114.328 189.535 132.684 150.906 33.574 305.223-54.79 352.457-201.883 5.36-17.195 9.375-33.629 11.961-51.031 8.317-58.274 48.774-105.89 105.465-122.367 79.36-22.614 144.652-88.223 161.61-177.5Zm0 0"/></clipPath><clipPath id="B"><path d="M1117.258 453.496a60.721 60.721 0 0 1-1.895 5.692 61.171 61.171 0 0 1-2.437 5.476 61.244 61.244 0 0 1-6.426 10.106 60.98 60.98 0 0 1-3.926 4.53 60.327 60.327 0 0 1-4.351 4.13 61.843 61.843 0 0 1-4.735 3.68 61.277 61.277 0 0 1-10.43 5.883 61.398 61.398 0 0 1-17.288 4.75 62.53 62.53 0 0 1-5.98.429 60.877 60.877 0 0 1-11.941-.906 59.7 59.7 0 0 1-5.849-1.325 60.696 60.696 0 0 1-11.168-4.332 61.097 61.097 0 0 1-22.445-19.434 61.468 61.468 0 0 1-3.2-5.07 60.238 60.238 0 0 1-2.683-5.363 61.4 61.4 0 0 1-3.738-11.379 60.43 60.43 0 0 1-1.012-5.91 61.395 61.395 0 0 1-.273-11.973c.152-1.996.398-3.976.746-5.949a60.218 60.218 0 0 1 1.324-5.847 60.712 60.712 0 0 1 4.332-11.164 61.162 61.162 0 0 1 6.426-10.11 60.98 60.98 0 0 1 3.925-4.531 61.933 61.933 0 0 1 4.348-4.125 61.408 61.408 0 0 1 4.734-3.68 61.535 61.535 0 0 1 5.075-3.199 59.645 59.645 0 0 1 5.359-2.684 60.99 60.99 0 0 1 23.27-5.18c2-.046 3.996.009 5.992.157 1.996.152 3.98.402 5.949.746 1.973.348 3.922.79 5.848 1.324 1.93.54 3.824 1.168 5.691 1.89a62.338 62.338 0 0 1 5.477 2.442 61.097 61.097 0 0 1 31.281 70.926Zm0 0"/></clipPath><clipPath id="y"><path d="M997 375h123v124H997Zm0 0"/></clipPath><clipPath id="z"><path d="m-50.762-457.086 1319.2 367.746-248.72 892.23-1319.202-367.742Zm0 0"/></clipPath><clipPath id="A"><path d="m-50.762-457.086 1319.2 367.746-248.72 892.23-1319.202-367.742Zm0 0"/></clipPath><clipPath id="G"><path d="M1202 488.91h691v375h-691Zm0 0"/></clipPath><linearGradient x1="31.388" gradientTransform="matrix(5.25473 1.46482 -1.46479 5.2546 -50.367 -456.974)" y1="86.114" x2="278.54" gradientUnits="userSpaceOnUse" y2="86.114" id="x"><stop stop-color="#2548A8" offset="0"/><stop stop-color="#2648A8" offset=".008"/><stop stop-color="#2648A8" offset=".016"/><stop stop-color="#2748A7" offset=".023"/><stop stop-color="#2848A7" offset=".031"/><stop stop-color="#2848A7" offset=".039"/><stop stop-color="#2948A7" offset=".047"/><stop stop-color="#2A48A7" offset=".055"/><stop stop-color="#2A48A6" offset=".063"/><stop stop-color="#2B48A6" offset=".07"/><stop stop-color="#2B48A6" offset=".078"/><stop stop-color="#2C48A6" offset=".086"/><stop stop-color="#2D48A6" offset=".094"/><stop stop-color="#2D48A5" offset=".102"/><stop stop-color="#2E48A5" offset=".109"/><stop stop-color="#2F48A5" offset=".117"/><stop stop-color="#2F48A5" offset=".125"/><stop stop-color="#3048A5" offset=".133"/><stop stop-color="#3148A4" offset=".141"/><stop stop-color="#3148A4" offset=".148"/><stop stop-color="#3248A4" offset=".156"/><stop stop-color="#3248A4" offset=".164"/><stop stop-color="#3348A4" offset=".172"/><stop stop-color="#3448A4" offset=".18"/><stop stop-color="#3448A3" offset=".188"/><stop stop-color="#3548A3" offset=".195"/><stop stop-color="#3648A3" offset=".203"/><stop stop-color="#3648A3" offset=".211"/><stop stop-color="#3748A3" offset=".219"/><stop stop-color="#3848A2" offset=".227"/><stop stop-color="#3848A2" offset=".234"/><stop stop-color="#3948A2" offset=".242"/><stop stop-color="#3948A2" offset=".25"/><stop stop-color="#3A48A2" offset=".258"/><stop stop-color="#3B48A1" offset=".266"/><stop stop-color="#3B48A1" offset=".273"/><stop stop-color="#3C48A1" offset=".281"/><stop stop-color="#3D48A1" offset=".289"/><stop stop-color="#3D48A1" offset=".297"/><stop stop-color="#3E48A0" offset=".305"/><stop stop-color="#3F48A0" offset=".313"/><stop stop-color="#3F48A0" offset=".32"/><stop stop-color="#4048A0" offset=".328"/><stop stop-color="#4048A0" offset=".336"/><stop stop-color="#41489F" offset=".344"/><stop stop-color="#42489F" offset=".352"/><stop stop-color="#42489F" offset=".359"/><stop stop-color="#43489F" offset=".367"/><stop stop-color="#44489F" offset=".375"/><stop stop-color="#44489E" offset=".383"/><stop stop-color="#45489E" offset=".391"/><stop stop-color="#45489E" offset=".398"/><stop stop-color="#46489E" offset=".406"/><stop stop-color="#47489E" offset=".414"/><stop stop-color="#47489D" offset=".422"/><stop stop-color="#48489D" offset=".43"/><stop stop-color="#49489D" offset=".438"/><stop stop-color="#49489D" offset=".445"/><stop stop-color="#4A489D" offset=".453"/><stop stop-color="#4B489C" offset=".461"/><stop stop-color="#4B489C" offset=".469"/><stop stop-color="#4C489C" offset=".477"/><stop stop-color="#4C489C" offset=".484"/><stop stop-color="#4D489C" offset=".492"/><stop stop-color="#4E489B" offset=".5"/><stop stop-color="#4E489B" offset=".508"/><stop stop-color="#4F489B" offset=".516"/><stop stop-color="#50489B" offset=".523"/><stop stop-color="#50489B" offset=".531"/><stop stop-color="#51489A" offset=".539"/><stop stop-color="#52489A" offset=".547"/><stop stop-color="#52489A" offset=".555"/><stop stop-color="#53489A" offset=".563"/><stop stop-color="#53489A" offset=".57"/><stop stop-color="#54489A" offset=".578"/><stop stop-color="#554899" offset=".586"/><stop stop-color="#554899" offset=".594"/><stop stop-color="#564899" offset=".602"/><stop stop-color="#574899" offset=".609"/><stop stop-color="#574899" offset=".617"/><stop stop-color="#584898" offset=".625"/><stop stop-color="#594898" offset=".633"/><stop stop-color="#594898" offset=".641"/><stop stop-color="#5A4898" offset=".648"/><stop stop-color="#5A4898" offset=".656"/><stop stop-color="#5B4897" offset=".664"/><stop stop-color="#5C4897" offset=".672"/><stop stop-color="#5C4897" offset=".68"/><stop stop-color="#5D4897" offset=".688"/><stop stop-color="#5E4897" offset=".695"/><stop stop-color="#5E4896" offset=".703"/><stop stop-color="#5F4896" offset=".711"/><stop stop-color="#604896" offset=".719"/><stop stop-color="#604896" offset=".727"/><stop stop-color="#614896" offset=".734"/><stop stop-color="#614895" offset=".742"/><stop stop-color="#624895" offset=".75"/><stop stop-color="#634895" offset=".758"/><stop stop-color="#634895" offset=".766"/><stop stop-color="#644895" offset=".773"/><stop stop-color="#654894" offset=".781"/><stop stop-color="#654894" offset=".789"/><stop stop-color="#664894" offset=".797"/><stop stop-color="#674894" offset=".805"/><stop stop-color="#674894" offset=".813"/><stop stop-color="#684893" offset=".82"/><stop stop-color="#684893" offset=".828"/><stop stop-color="#694893" offset=".836"/><stop stop-color="#6A4893" offset=".844"/><stop stop-color="#6A4893" offset=".852"/><stop stop-color="#6B4892" offset=".859"/><stop stop-color="#6C4892" offset=".875"/><stop stop-color="#6C4892" offset="1"/></linearGradient><linearGradient x1="225.997" gradientTransform="matrix(5.25473 1.46482 -1.46479 5.2546 -50.367 -456.974)" y1="86.114" x2="253.603" gradientUnits="userSpaceOnUse" y2="86.114" id="C"><stop stop-color="#654894" offset="0"/><stop stop-color="#664894" offset=".063"/><stop stop-color="#664894" offset=".125"/><stop stop-color="#674894" offset=".188"/><stop stop-color="#674894" offset=".25"/><stop stop-color="#684893" offset=".313"/><stop stop-color="#694893" offset=".375"/><stop stop-color="#694893" offset=".438"/><stop stop-color="#6A4893" offset=".5"/><stop stop-color="#6A4893" offset=".563"/><stop stop-color="#6B4892" offset=".625"/><stop stop-color="#6C4892" offset=".75"/><stop stop-color="#6C4892" offset="1"/></linearGradient><linearGradient x1="121.79" gradientTransform="matrix(-2.3166 -11.01585 11.01351 -2.31612 5666.279 2442.408)" y1="86.114" x2="138.61" gradientUnits="userSpaceOnUse" y2="86.114" id="o"><stop stop-color="#43489F" offset="0"/><stop stop-color="#44489F" offset=".125"/><stop stop-color="#44489E" offset=".25"/><stop stop-color="#45489E" offset=".375"/><stop stop-color="#46489E" offset=".5"/><stop stop-color="#46489E" offset=".625"/><stop stop-color="#47489E" offset=".75"/><stop stop-color="#48489D" offset=".875"/><stop stop-color="#48489D" offset="1"/></linearGradient><linearGradient x1="54.51" gradientTransform="matrix(-2.3166 -11.01585 11.01351 -2.31612 5666.279 2442.408)" y1="86.114" x2="79.395" gradientUnits="userSpaceOnUse" y2="86.114" id="j"><stop stop-color="#2D48A6" offset="0"/><stop stop-color="#2D48A5" offset=".063"/><stop stop-color="#2E48A5" offset=".125"/><stop stop-color="#2E48A5" offset=".188"/><stop stop-color="#2F48A5" offset=".25"/><stop stop-color="#2F48A5" offset=".313"/><stop stop-color="#3048A5" offset=".375"/><stop stop-color="#3048A5" offset=".438"/><stop stop-color="#3148A4" offset=".5"/><stop stop-color="#3148A4" offset=".563"/><stop stop-color="#3248A4" offset=".625"/><stop stop-color="#3248A4" offset=".688"/><stop stop-color="#3348A4" offset=".75"/><stop stop-color="#3348A4" offset=".813"/><stop stop-color="#3448A3" offset=".875"/><stop stop-color="#3448A3" offset=".938"/><stop stop-color="#3548A3" offset="1"/></linearGradient><linearGradient x1="39.332" gradientTransform="matrix(-2.3166 -11.01585 11.01351 -2.31612 5666.279 2442.408)" y1="86.114" x2="221.201" gradientUnits="userSpaceOnUse" y2="86.114" id="e"><stop stop-color="#2848A7" offset="0"/><stop stop-color="#2848A7" offset=".016"/><stop stop-color="#2948A7" offset=".031"/><stop stop-color="#2A48A6" offset=".047"/><stop stop-color="#2B48A6" offset=".063"/><stop stop-color="#2C48A6" offset=".078"/><stop stop-color="#2D48A6" offset=".094"/><stop stop-color="#2E48A5" offset=".109"/><stop stop-color="#2F48A5" offset=".125"/><stop stop-color="#3048A5" offset=".141"/><stop stop-color="#3148A4" offset=".156"/><stop stop-color="#3248A4" offset=".172"/><stop stop-color="#3348A4" offset=".188"/><stop stop-color="#3448A4" offset=".203"/><stop stop-color="#3548A3" offset=".219"/><stop stop-color="#3648A3" offset=".234"/><stop stop-color="#3748A3" offset=".25"/><stop stop-color="#3748A2" offset=".266"/><stop stop-color="#3848A2" offset=".281"/><stop stop-color="#3948A2" offset=".297"/><stop stop-color="#3A48A1" offset=".313"/><stop stop-color="#3B48A1" offset=".328"/><stop stop-color="#3C48A1" offset=".344"/><stop stop-color="#3D48A1" offset=".359"/><stop stop-color="#3E48A0" offset=".375"/><stop stop-color="#3F48A0" offset=".391"/><stop stop-color="#4048A0" offset=".406"/><stop stop-color="#41489F" offset=".422"/><stop stop-color="#42489F" offset=".438"/><stop stop-color="#43489F" offset=".453"/><stop stop-color="#44489F" offset=".469"/><stop stop-color="#45489E" offset=".484"/><stop stop-color="#45489E" offset=".5"/><stop stop-color="#46489E" offset=".516"/><stop stop-color="#47489D" offset=".531"/><stop stop-color="#48489D" offset=".547"/><stop stop-color="#49489D" offset=".563"/><stop stop-color="#4A489D" offset=".578"/><stop stop-color="#4B489C" offset=".594"/><stop stop-color="#4C489C" offset=".609"/><stop stop-color="#4D489C" offset=".625"/><stop stop-color="#4E489B" offset=".641"/><stop stop-color="#4F489B" offset=".656"/><stop stop-color="#50489B" offset=".672"/><stop stop-color="#51489B" offset=".688"/><stop stop-color="#52489A" offset=".703"/><stop stop-color="#53489A" offset=".719"/><stop stop-color="#54489A" offset=".734"/><stop stop-color="#544899" offset=".75"/><stop stop-color="#554899" offset=".766"/><stop stop-color="#564899" offset=".781"/><stop stop-color="#574899" offset=".797"/><stop stop-color="#584898" offset=".813"/><stop stop-color="#594898" offset=".828"/><stop stop-color="#5A4898" offset=".844"/><stop stop-color="#5B4897" offset=".859"/><stop stop-color="#5C4897" offset=".875"/><stop stop-color="#5D4897" offset=".891"/><stop stop-color="#5E4897" offset=".906"/><stop stop-color="#5F4896" offset=".922"/><stop stop-color="#604896" offset=".938"/><stop stop-color="#614896" offset=".953"/><stop stop-color="#624895" offset=".969"/><stop stop-color="#634895" offset=".984"/><stop stop-color="#634895" offset="1"/></linearGradient></defs><path fill="#fff" d="M-691.2-172.8h8294.4v2073.6H-691.2z"/><path fill="#fff" d="M-691.2-172.8h8294.4v2073.6H-691.2z"/><path fill="#4daddf" d="M-691.2-172.8h8294.4v2073.6H-691.2z"/><g clip-path="url(#a)"><g clip-path="url(#b)"><g clip-path="url(#c)"><g clip-path="url(#d)"><path fill="url(#e)" d="m5254.242 2076.621 2005.762-421.805-421.32-2003.437L4832.922 73.184Zm0 0"/></g></g></g></g><g clip-path="url(#f)"><g clip-path="url(#g)"><g clip-path="url(#h)"><g clip-path="url(#i)"><path fill="url(#j)" d="m5825.234 1781.95 302.848-63.688-57.648-274.133-302.848 63.687Zm0 0"/></g></g></g></g><g clip-path="url(#k)"><g clip-path="url(#l)"><g clip-path="url(#m)"><g clip-path="url(#n)"><path fill="url(#o)" d="m5369.703 1103.82 185.262-38.96L5516 879.577l-185.258 38.961Zm0 0"/></g></g></g></g><g clip-path="url(#p)"><g clip-path="url(#q)"><g clip-path="url(#r)"><g clip-path="url(#s)"><path fill="#6c4892" d="m-39.438 1725.55 1458.415 90.618 44.914-722.84L5.48 1002.707Zm0 0"/></g></g></g></g><g clip-path="url(#t)"><g clip-path="url(#u)"><g clip-path="url(#v)"><g clip-path="url(#w)"><path fill="url(#x)" d="m86.762-311.234-268.989 964.93 1298.715 362.034 268.985-964.933Zm0 0"/></g></g></g></g><g clip-path="url(#y)"><g clip-path="url(#z)"><g clip-path="url(#A)"><g clip-path="url(#B)"><path fill="url(#C)" d="m1006.094 344.344-40.438 145.058 145.059 40.438 40.437-145.059Zm0 0"/></g></g></g></g><g clip-path="url(#D)"><path fill="#6c4892" d="M1785.004 1051.832v97.5l116.27 90-116.27 90v97.5l242.293-187.5Zm4.875 279.75 119.273-92.25-119.273-92.625v-85.125l229.543 177.375-229.543 177.75Zm219.418-279.75v97.5l116.27 90-116.27 90v97.5l242.293-187.5Zm4.875 279.75 119.27-92.25-119.27-92.625v-85.125l229.543 177.375-229.543 177.75Zm219.414-279.75v97.5l116.273 90-116.273 90v97.5l242.297-187.5Zm4.875 279.75 119.273-92.25-119.273-92.25v-85.5l229.543 177.375-229.543 177.375Zm0 0"/></g><path d="M182.269 879.303h56.781v11.828H182.27ZM257.979 914.788c0-2.957.07-5.899.219-8.828.144-2.938.476-5.75 1-8.438a37.16 37.16 0 0 1 2.297-7.578 20.17 20.17 0 0 1 4.14-6.234c1.75-1.801 3.926-3.29 6.532-4.47 2.613-1.187 5.77-1.956 9.468-2.312l75.719-7.093c2.363-.196 4.43-.54 6.203-1.032 1.781-.5 3.25-1.445 4.406-2.843 1.157-1.407 2.032-3.461 2.625-6.172.594-2.72.891-6.442.891-11.172 0-3.946-.297-7.274-.89-9.985-.594-2.707-1.587-4.945-2.97-6.718-1.374-1.782-3.234-3.141-5.577-4.078-2.336-.938-5.25-1.625-8.75-2.063-3.5-.445-7.641-.707-12.422-.781-4.782-.07-10.328-.11-16.641-.11-8.68 0-15.984.164-21.922.485-5.937.312-10.844.89-14.719 1.734-3.867.836-6.836 1.969-8.906 3.406-2.074 1.43-3.59 3.29-4.547 5.579-.96 2.292-1.527 5.042-1.703 8.25-.18 3.199-.265 6.964-.265 11.296h-14.188c0-7.093.648-13.066 1.953-17.921 1.313-4.852 3.235-8.86 5.766-12.016 2.539-3.156 5.68-5.594 9.422-7.313 3.75-1.726 8.078-2.988 12.984-3.78 4.906-.79 10.379-1.243 16.422-1.36 6.039-.125 12.61-.188 19.703-.188 7.094 0 13.535.11 19.328.328 5.8.22 10.977.727 15.531 1.516 4.563.793 8.52 1.953 11.875 3.484 3.352 1.524 6.125 3.602 8.313 6.235 2.195 2.636 3.82 5.902 4.875 9.797 1.062 3.898 1.594 8.605 1.594 14.125 0 4.73-.344 9.03-1.032 12.906-.687 3.867-1.921 7.23-3.703 10.094-1.773 2.855-4.187 5.148-7.25 6.875-3.054 1.73-6.945 2.812-11.672 3.25l-75.718 7.109c-3.594.344-6.356 1.012-8.282 2-1.93.98-3.336 2.543-4.218 4.688-.887 2.148-1.391 4.968-1.516 8.468s-.187 7.914-.187 13.235h111.218v11.828H257.98ZM485.183 813.053c8.676 0 15.984.532 21.922 1.594 5.945 1.055 10.844 2.652 14.687 4.797 3.844 2.148 6.801 4.844 8.875 8.094 2.07 3.25 3.586 7.074 4.547 11.468.957 4.387 1.52 9.34 1.688 14.86a579.77 579.77 0 0 1 .265 18.328c0 6.71-.09 12.824-.265 18.344-.168 5.523-.73 10.48-1.688 14.875-.96 4.386-2.476 8.203-4.547 11.453-2.074 3.25-5.03 5.949-8.875 8.094-3.843 2.148-8.742 3.746-14.687 4.796-5.938 1.063-13.246 1.594-21.922 1.594h-28.469c-8.68 0-15.984-.531-21.922-1.594-5.937-1.05-10.828-2.648-14.671-4.796-3.844-2.145-6.82-4.844-8.922-8.094-2.094-3.25-3.621-7.067-4.578-11.453-.961-4.395-1.516-9.352-1.672-14.875-.149-5.52-.219-11.633-.219-18.344 0-6.695.07-12.805.219-18.328.156-5.52.71-10.473 1.672-14.86.957-4.394 2.484-8.218 4.578-11.468 2.101-3.25 5.078-5.946 8.922-8.094 3.843-2.145 8.734-3.742 14.671-4.797 5.938-1.062 13.243-1.594 21.922-1.594Zm0 106.469c6.313 0 11.613-.18 15.906-.547 4.29-.375 7.836-1.125 10.641-2.25 2.812-1.133 4.977-2.758 6.5-4.875 1.531-2.125 2.64-4.937 3.328-8.437.695-3.5 1.11-7.801 1.234-12.907.125-5.101.188-11.207.188-18.312 0-7.094-.063-13.192-.188-18.297-.125-5.102-.539-9.406-1.234-12.906-.687-3.5-1.797-6.305-3.328-8.422-1.523-2.125-3.68-3.75-6.469-4.875-2.781-1.133-6.328-1.883-10.64-2.25-4.313-.375-9.625-.563-15.938-.563h-28.469c-6.304 0-11.617.188-15.937.563-4.313.367-7.875 1.117-10.688 2.25-2.804 1.125-4.968 2.75-6.5 4.875-1.523 2.117-2.632 4.922-3.328 8.422-.687 3.5-1.086 7.804-1.187 12.906-.094 5.105-.14 11.203-.14 18.297 0 7.105.062 13.21.187 18.312.125 5.106.53 9.407 1.218 12.907s1.782 6.312 3.282 8.437c1.507 2.117 3.664 3.742 6.468 4.875 2.813 1.125 6.375 1.875 10.688 2.25 4.32.367 9.633.547 15.937.547ZM556.088 914.788c0-2.957.07-5.899.219-8.828.144-2.938.476-5.75 1-8.438a37.16 37.16 0 0 1 2.296-7.578 20.17 20.17 0 0 1 4.141-6.234c1.75-1.801 3.926-3.29 6.531-4.47 2.614-1.187 5.77-1.956 9.47-2.312l75.718-7.093c2.363-.196 4.43-.54 6.203-1.032 1.781-.5 3.25-1.445 4.406-2.843 1.156-1.407 2.031-3.461 2.625-6.172.594-2.72.89-6.442.89-11.172 0-3.946-.296-7.274-.89-9.985-.594-2.707-1.586-4.945-2.969-6.718-1.375-1.782-3.234-3.141-5.578-4.078-2.336-.938-5.25-1.625-8.75-2.063-3.5-.445-7.64-.707-12.422-.781-4.78-.07-10.328-.11-16.64-.11-8.68 0-15.985.164-21.922.485-5.938.312-10.844.89-14.719 1.734-3.867.836-6.836 1.969-8.906 3.406-2.074 1.43-3.59 3.29-4.547 5.579-.96 2.292-1.527 5.042-1.703 8.25-.18 3.199-.266 6.964-.266 11.296h-14.187c0-7.093.648-13.066 1.953-17.921 1.312-4.852 3.234-8.86 5.766-12.016 2.539-3.156 5.68-5.594 9.421-7.313 3.75-1.726 8.079-2.988 12.985-3.78 4.906-.79 10.379-1.243 16.422-1.36 6.039-.125 12.61-.188 19.703-.188 7.094 0 13.535.11 19.328.328 5.8.22 10.976.727 15.531 1.516 4.563.793 8.52 1.953 11.875 3.484 3.352 1.524 6.125 3.602 8.313 6.235 2.195 2.636 3.82 5.902 4.875 9.797 1.062 3.898 1.593 8.605 1.593 14.125 0 4.73-.343 9.03-1.03 12.906-.688 3.867-1.923 7.23-3.704 10.094-1.773 2.855-4.187 5.148-7.25 6.875-3.055 1.73-6.945 2.812-11.672 3.25l-75.719 7.109c-3.593.344-6.355 1.012-8.28 2-1.93.98-3.337 2.543-4.22 4.688-.886 2.148-1.39 4.968-1.515 8.468s-.188 7.914-.188 13.235h111.22v11.828H556.087ZM702.776 914.788c0-2.957.07-5.899.219-8.828.145-2.938.477-5.75 1-8.438a37.16 37.16 0 0 1 2.297-7.578 20.17 20.17 0 0 1 4.14-6.234c1.75-1.801 3.926-3.29 6.532-4.47 2.613-1.187 5.77-1.956 9.468-2.312l75.72-7.093c2.363-.196 4.429-.54 6.202-1.032 1.782-.5 3.25-1.445 4.407-2.843 1.156-1.407 2.03-3.461 2.625-6.172.593-2.72.89-6.442.89-11.172 0-3.946-.297-7.274-.89-9.985-.594-2.707-1.586-4.945-2.97-6.718-1.374-1.782-3.234-3.141-5.577-4.078-2.336-.938-5.25-1.625-8.75-2.063-3.5-.445-7.64-.707-12.422-.781-4.781-.07-10.328-.11-16.64-.11-8.68 0-15.985.164-21.923.485-5.937.312-10.843.89-14.718 1.734-3.868.836-6.836 1.969-8.907 3.406-2.074 1.43-3.59 3.29-4.547 5.579-.96 2.292-1.527 5.042-1.703 8.25-.18 3.199-.265 6.964-.265 11.296h-14.188c0-7.093.649-13.066 1.953-17.921 1.313-4.852 3.235-8.86 5.766-12.016 2.539-3.156 5.68-5.594 9.422-7.313 3.75-1.726 8.078-2.988 12.984-3.78 4.906-.79 10.38-1.243 16.422-1.36 6.04-.125 12.61-.188 19.703-.188 7.094 0 13.535.11 19.328.328 5.801.22 10.977.727 15.532 1.516 4.562.793 8.52 1.953 11.875 3.484 3.351 1.524 6.125 3.602 8.312 6.235 2.195 2.636 3.82 5.902 4.875 9.797 1.063 3.898 1.594 8.605 1.594 14.125 0 4.73-.344 9.03-1.031 12.906-.688 3.867-1.922 7.23-3.704 10.094-1.773 2.855-4.187 5.148-7.25 6.875-3.054 1.73-6.945 2.812-11.671 3.25l-75.72 7.109c-3.593.344-6.355 1.012-8.28 2-1.93.98-3.336 2.543-4.22 4.688-.886 2.148-1.39 4.968-1.515 8.468s-.187 7.914-.187 13.235h111.218v11.828H702.776ZM849.465 879.303h56.78v11.828h-56.78ZM5850.379 765.621h4.531c4.79 0 8.004-.941 9.64-2.828 1.634-1.895 2.454-7.129 2.454-15.703v-80.125c0-9.07-.82-14.551-2.453-16.438-1.637-1.882-5.102-2.828-10.39-2.828h-3.782Zm11.719-157.984c23.687 0 39.18 3.652 46.484 10.953 7.05 7.055 10.578 24.187 10.578 51.406v73.313c0 27.468-3.652 44.855-10.953 52.156-7.055 7.062-22.297 10.594-45.734 10.594h-12.094v108.468h-52.531v-306.89ZM6060.876 712.324h-52.531v-52.531c0-8.82-2.899-13.234-8.688-13.234-5.293 0-7.937 4.414-7.937 13.234v202.953c0 8.574 2.894 12.86 8.687 12.86 3.02 0 5.098-.942 6.235-2.829 1.132-1.894 1.703-5.238 1.703-10.03v-78.235h52.531v70.672c0 26.71-3.652 43.718-10.953 51.03-7.313 6.806-23.695 10.204-49.14 10.204-26.462 0-43.216-3.398-50.266-10.203-7.305-7.313-10.954-24.32-10.954-51.031v-188.22c0-27.206 3.524-44.21 10.579-51.015 7.05-6.8 23.68-10.203 49.89-10.203 26.457 0 43.211 3.527 50.266 10.578 7.05 7.055 10.578 23.934 10.578 50.64ZM6202.22 713.45h-52.156v-54.048c0-8.562-2.898-12.843-8.687-12.843-2.781 0-4.742.949-5.875 2.843-1.125 1.887-1.688 5.22-1.688 10v47.625c0 5.543.817 9.512 2.454 11.907 1.632 2.398 4.722 4.98 9.265 7.75l32.125 18.515c8.813 5.043 15.11 10.965 18.89 17.766 3.782 6.805 5.673 16.383 5.673 28.734v63.875c0 27.711-3.528 44.715-10.578 51.016-7.313 6.555-24.07 9.828-50.266 9.828-25.961 0-42.465-3.398-49.516-10.203-7.312-7.313-10.968-24.192-10.968-50.64v-67.657h52.921v74.828c0 8.824 2.895 13.234 8.688 13.234 5.039 0 7.562-4.41 7.562-13.234v-65c0-5.55-.757-9.457-2.265-11.719-1.512-2.27-4.664-4.789-9.453-7.562l-33.64-19.656c-8.563-5.04-14.673-11.086-18.33-18.141-3.655-7.05-5.483-17.004-5.483-29.86v-43.843c0-26.195 3.656-42.953 10.968-50.266 7.301-7.3 23.93-10.953 49.89-10.953 25.696 0 42.196 3.402 49.5 10.203 7.313 6.805 10.97 23.809 10.97 51.016ZM6279.311 607.637v117.156h17V607.637h52.157v306.89h-52.157V765.23h-17v149.297h-52.156v-306.89ZM6425.184 862.746c0 8.574 2.895 12.86 8.688 12.86 3.02 0 5.098-.942 6.234-2.829 1.133-1.894 1.703-5.238 1.703-10.03V659.792c0-8.82-2.898-13.234-8.687-13.234-5.293 0-7.938 4.414-7.938 13.234Zm-52.156-195.781c0-27.207 3.524-44.211 10.578-51.016 7.051-6.8 23.68-10.203 49.89-10.203 26.458 0 43.212 3.527 50.267 10.578 7.05 7.055 10.578 23.934 10.578 50.64v188.22c0 26.71-3.653 43.718-10.953 51.03-7.313 6.806-23.696 10.204-49.141 10.204-26.461 0-43.215-3.398-50.266-10.203-7.304-7.313-10.953-24.32-10.953-51.031ZM6571.434 765.621h4.532c4.789 0 8.003-.941 9.64-2.828 1.633-1.895 2.453-7.129 2.453-15.703v-80.125c0-9.07-.82-14.551-2.453-16.438-1.637-1.882-5.101-2.828-10.39-2.828h-3.782Zm11.72-157.984c23.687 0 39.179 3.652 46.483 10.953 7.051 7.055 10.579 24.187 10.579 51.406v73.313c0 27.468-3.653 44.855-10.954 52.156-7.054 7.062-22.296 10.594-45.734 10.594h-12.094v108.468h-52.53v-306.89Zm0 0" fill="#fff"/><path d="M5982.162 978.363v5.766h-27.656v49.562h-6.922V984.13h-27.657v-5.766ZM6003.127 992.191v23.063c0 2.562.191 4.73.578 6.5.383 1.762 1.148 3.184 2.297 4.266 1.156 1.086 2.789 1.867 4.906 2.343 2.113.48 4.898.72 8.36.72 3.738 0 6.8-.274 9.187-.829 2.394-.55 4.273-1.332 5.64-2.344 1.375-1.008 2.317-2.222 2.828-3.64.52-1.414.782-2.989.782-4.72v-25.359h6.922v41.5h-6.922v-6.921c-.336.75-.899 1.578-1.688 2.484-.793.898-1.984 1.73-3.578 2.5-1.586.762-3.633 1.406-6.14 1.937-2.512.532-5.626.797-9.344.797-3.094 0-5.758-.187-7.985-.562-2.218-.375-4.105-.926-5.656-1.656-1.543-.727-2.781-1.633-3.719-2.72a11.638 11.638 0 0 1-2.172-3.765c-.5-1.426-.835-3.015-1-4.765a60.918 60.918 0 0 1-.25-5.766l.032-23.063ZM6119.9 1015.254c0 3.531-.293 6.48-.875 8.844-.575 2.367-1.54 4.258-2.891 5.672-1.356 1.418-3.137 2.43-5.344 3.03-2.21.595-4.937.891-8.187.891-3.149 0-5.79-.238-7.922-.718-2.137-.477-3.867-1.297-5.188-2.453-1.312-1.157-2.261-2.692-2.843-4.61-.575-1.914-.86-4.316-.86-7.203v-20.812h-8.531v-5.704h8.531v-11.343h6.906v11.343h26.047v5.704h-26.047v20.812c0 2.305.172 4.078.516 5.328.352 1.25.914 2.168 1.688 2.75.769.574 1.785.906 3.046 1 1.258.094 2.801.14 4.625.14 1.438 0 2.723-.019 3.86-.062 1.144-.05 2.144-.203 3-.453.851-.25 1.578-.633 2.172-1.156.601-.52 1.093-1.242 1.468-2.172.375-.937.645-2.117.813-3.547.164-1.437.25-3.195.25-5.281ZM6136.218 992.191h6.906v41.5h-6.906Zm6.906-6.906h-6.906v-6.922h6.906ZM6183.648 1034.488c-4.606 0-8.516-.32-11.735-.953-3.218-.633-5.84-1.734-7.859-3.297-2.023-1.562-3.492-3.648-4.406-6.265-.906-2.625-1.36-5.914-1.36-9.875 0-4.54.454-8.29 1.36-11.25.914-2.969 2.383-5.328 4.406-7.078 2.02-1.758 4.64-2.985 7.86-3.672 3.218-.696 7.128-1.047 11.734-1.047 3.289 0 6.14.242 8.547.719 2.414.48 4.484 1.18 6.203 2.093 1.719.907 3.11 2.012 4.172 3.313 1.07 1.293 1.914 2.652 2.531 4.078.613 1.43 1.031 3.105 1.25 5.031.227 1.918.344 3.946.344 6.078l-.563 2.313h-40.922c0 3.168.313 5.765.938 7.797.625 2.031 1.656 3.515 3.094 4.453 1.437.937 3.332 1.531 5.687 1.781 2.352.25 5.258.375 8.719.375 3.164 0 5.785-.086 7.86-.266 2.081-.187 3.734-.53 4.952-1.03 1.227-.5 2.086-1.196 2.578-2.095.5-.906.75-2.082.75-3.53h6.907c0 2.241-.39 4.148-1.172 5.718-.774 1.574-2.059 2.844-3.86 3.812-1.804.97-4.18 1.68-7.125 2.125-2.937.446-6.57.672-10.89.672Zm0-37.687c-2.305 0-4.36.055-6.172.156-1.813.094-3.402.305-4.766.625-1.355.324-2.511.793-3.468 1.406-.961.618-1.735 1.34-2.329 2.172-.585.824-1.015 1.985-1.296 3.485-.274 1.5-.407 3.308-.407 5.421h34.578c0-2.812-.304-5.015-.906-6.609-.594-1.594-1.543-2.906-2.844-3.937-1.293-1.04-2.96-1.754-5-2.141-2.043-.383-4.507-.578-7.39-.578ZM6262.21 1033.691v-23.046c0-2.57-.196-4.739-.579-6.5-.387-1.77-1.156-3.192-2.312-4.266-1.149-1.082-2.778-1.863-4.891-2.344-2.117-.488-4.902-.734-8.36-.734-3.75 0-6.82.281-9.203.844-2.386.554-4.265 1.336-5.64 2.343-1.367 1-2.309 2.211-2.828 3.625-.512 1.418-.766 2.993-.766 4.72v25.358h-6.922v-41.5h6.922v6.922a8.668 8.668 0 0 1 2.156-3.047 14.156 14.156 0 0 1 3.172-2.171 19.37 19.37 0 0 1 3.813-1.454 34.496 34.496 0 0 1 4.109-.859 43.038 43.038 0 0 1 3.969-.422c1.289-.07 2.46-.11 3.515-.11 3.082 0 5.735.196 7.954.579 2.218.375 4.097.937 5.64 1.687 1.55.743 2.797 1.665 3.735 2.766.937 1.106 1.66 2.387 2.171 3.844.52 1.45.864 3.07 1.032 4.86.175 1.792.265 3.745.265 5.859l-.047 23.046ZM6307.365 1034.488c-4.605 0-8.515-.336-11.734-1-3.219-.675-5.84-1.832-7.86-3.468-2.023-1.633-3.492-3.832-4.406-6.594-.906-2.758-1.36-6.227-1.36-10.406 0-4.32.454-7.899 1.36-10.735.914-2.832 2.383-5.078 4.406-6.734 2.02-1.656 4.641-2.817 7.86-3.485 3.219-.675 7.129-1.015 11.734-1.015 3.27 0 6.008.168 8.219.5 2.207.336 4.016.758 5.422 1.265 1.406.5 2.472 1.047 3.203 1.641.727.586 1.258 1.125 1.594 1.625v-17.719h6.922v55.328h-6.922v-6.156l-1.72 2.047a12.879 12.879 0 0 1-3.358 2.39c-1.22.594-2.934 1.165-5.141 1.704-2.211.539-4.95.812-8.219.812Zm0-5.406c2.301 0 4.352-.05 6.156-.156 1.801-.113 3.383-.348 4.75-.703 1.375-.364 2.536-.899 3.485-1.61.945-.707 1.719-1.648 2.312-2.828.602-1.176 1.04-2.633 1.313-4.375.281-1.738.422-3.832.422-6.281 0-2.55-.14-4.719-.422-6.5-.274-1.79-.711-3.29-1.313-4.5-.593-1.219-1.367-2.176-2.312-2.875-.95-.695-2.11-1.227-3.485-1.594-1.367-.375-2.949-.61-4.75-.703a110.396 110.396 0 0 0-6.156-.156c-2.687 0-5.012.09-6.969.265-1.96.168-3.625.47-5 .907-1.367.43-2.476 1.027-3.328 1.797-.843.761-1.5 1.746-1.968 2.953-.47 1.199-.782 2.648-.938 4.343-.156 1.688-.234 3.672-.234 5.954 0 2.261.078 4.226.234 5.89.156 1.668.469 3.094.938 4.281.468 1.188 1.125 2.168 1.968 2.938.852.773 1.961 1.375 3.328 1.812 1.375.43 3.04.727 5 .891 1.957.168 4.282.25 6.97.25ZM6388.044 1028.004c-.074.281-.617 1-1.625 2.156-.719.867-1.68 1.633-2.875 2.297-1.2.656-2.805 1.168-4.813 1.531-2 .375-4.636.563-7.906.563-4.344 0-8.055-.227-11.125-.672-3.074-.438-5.586-1.113-7.531-2.031-1.95-.926-3.371-2.11-4.266-3.547-.898-1.445-1.344-3.164-1.344-5.156 0-2.094.243-3.864.735-5.313.488-1.457 1.207-2.676 2.156-3.656.945-.988 2.094-1.758 3.438-2.313 1.343-.55 2.875-.968 4.593-1.25 1.72-.289 3.598-.472 5.641-.547 2.04-.07 4.21-.109 6.516-.109 3.289 0 6.039.14 8.25.422 2.207.273 4.015.621 5.421 1.047 1.407.418 2.47.867 3.188 1.344.719.48 1.234.921 1.547 1.328 0-2.688-.117-4.977-.344-6.875-.23-1.895-.605-3.477-1.125-4.75-.512-1.282-1.18-2.297-2-3.047-.812-.758-1.812-1.332-3-1.719-1.187-.383-2.574-.629-4.156-.734a77.078 77.078 0 0 0-5.438-.172c-3.168 0-5.797.078-7.89.234-2.086.156-3.742.465-4.969.922-1.23.461-2.094 1.094-2.594 1.906-.5.805-.75 1.852-.75 3.141h-6.922c0-2.188.391-4.035 1.172-5.547.781-1.508 2.078-2.738 3.89-3.687 1.813-.946 4.192-1.633 7.141-2.063 2.958-.437 6.598-.656 10.922-.656 4.227 0 7.805.351 10.735 1.047 2.926.687 5.297 1.914 7.11 3.672 1.812 1.75 3.116 4.109 3.921 7.078.812 2.96 1.219 6.71 1.219 11.25v19.593h-6.922Zm-16.063 1.078c3.051 0 5.602-.14 7.657-.422 2.05-.289 3.703-.722 4.953-1.297 1.25-.582 2.133-1.304 2.656-2.172.531-.863.797-1.875.797-3.03 0-1.145-.309-2.118-.922-2.923-.605-.812-1.625-1.468-3.063-1.968-1.43-.508-3.32-.875-5.671-1.094-2.356-.227-5.262-.344-8.72-.344-3.448 0-6.241.063-8.374.188-2.125.117-3.766.39-4.922.828-1.148.43-1.918 1.062-2.313 1.906-.398.836-.593 1.969-.593 3.406 0 1.45.207 2.625.625 3.531.426.899 1.285 1.594 2.578 2.094 1.3.5 3.172.844 5.61 1.031 2.437.18 5.671.266 9.702.266ZM6454.1 1034.488c-4.605 0-8.515-.336-11.734-1-3.218-.675-5.84-1.832-7.859-3.468-2.023-1.633-3.492-3.832-4.406-6.594-.907-2.758-1.36-6.227-1.36-10.406 0-4.32.453-7.899 1.36-10.735.914-2.832 2.383-5.078 4.406-6.734 2.02-1.656 4.64-2.817 7.86-3.485 3.218-.675 7.128-1.015 11.734-1.015 3.27 0 6.008.168 8.218.5 2.207.336 4.016.758 5.422 1.265 1.407.5 2.473 1.047 3.203 1.641.727.586 1.258 1.125 1.594 1.625v-17.719h6.922v55.328h-6.922v-6.156l-1.719 2.047a12.879 12.879 0 0 1-3.359 2.39c-1.219.594-2.934 1.165-5.14 1.704-2.211.539-4.95.812-8.22.812Zm0-5.406c2.301 0 4.352-.05 6.157-.156 1.8-.113 3.383-.348 4.75-.703 1.375-.364 2.535-.899 3.484-1.61.946-.707 1.72-1.648 2.313-2.828.601-1.176 1.039-2.633 1.312-4.375.282-1.738.422-3.832.422-6.281 0-2.55-.14-4.719-.422-6.5-.273-1.79-.71-3.29-1.312-4.5-.594-1.219-1.367-2.176-2.313-2.875-.949-.695-2.109-1.227-3.484-1.594-1.367-.375-2.95-.61-4.75-.703a110.396 110.396 0 0 0-6.156-.156c-2.688 0-5.012.09-6.969.265-1.961.168-3.625.47-5 .907-1.367.43-2.477 1.027-3.328 1.797-.844.761-1.5 1.746-1.969 2.953-.469 1.199-.781 2.648-.937 4.343-.157 1.688-.235 3.672-.235 5.954 0 2.261.078 4.226.235 5.89.156 1.668.468 3.094.937 4.281.469 1.188 1.125 2.168 1.969 2.938.851.773 1.96 1.375 3.328 1.812 1.375.43 3.039.727 5 .891 1.957.168 4.281.25 6.969.25ZM6517.67 1034.488c-4.605 0-8.516-.32-11.734-.953-3.22-.633-5.84-1.734-7.86-3.297-2.023-1.562-3.492-3.648-4.406-6.265-.906-2.625-1.36-5.914-1.36-9.875 0-4.54.454-8.29 1.36-11.25.914-2.969 2.383-5.328 4.406-7.078 2.02-1.758 4.64-2.985 7.86-3.672 3.218-.696 7.129-1.047 11.734-1.047 3.29 0 6.14.242 8.547.719 2.414.48 4.484 1.18 6.203 2.093 1.719.907 3.11 2.012 4.172 3.313 1.07 1.293 1.914 2.652 2.531 4.078.613 1.43 1.031 3.105 1.25 5.031.227 1.918.344 3.946.344 6.078l-.563 2.313h-40.921c0 3.168.312 5.765.937 7.797.625 2.031 1.656 3.515 3.094 4.453 1.437.937 3.332 1.531 5.687 1.781 2.352.25 5.258.375 8.719.375 3.164 0 5.785-.086 7.86-.266 2.081-.187 3.734-.53 4.953-1.03 1.226-.5 2.085-1.196 2.578-2.095.5-.906.75-2.082.75-3.53h6.906c0 2.241-.39 4.148-1.172 5.718-.773 1.574-2.059 2.844-3.86 3.812-1.804.97-4.179 1.68-7.124 2.125-2.938.446-6.57.672-10.891.672Zm0-37.687c-2.305 0-4.36.055-6.172.156-1.812.094-3.402.305-4.765.625-1.356.324-2.512.793-3.47 1.406-.96.618-1.734 1.34-2.327 2.172-.586.824-1.016 1.985-1.297 3.485-.274 1.5-.406 3.308-.406 5.421h34.578c0-2.812-.305-5.015-.907-6.609-.593-1.594-1.543-2.906-2.843-3.937-1.293-1.04-2.961-1.754-5-2.141-2.043-.383-4.508-.578-7.391-.578ZM5918.771 1114.61c0-2.882.145-5.429.438-7.64.289-2.207.8-4.125 1.53-5.75.727-1.633 1.712-3 2.954-4.094 1.238-1.093 2.8-1.972 4.688-2.64 1.882-.676 4.125-1.16 6.718-1.453 2.594-.29 5.614-.438 9.063-.438 4.613 0 8.41.29 11.39.86 2.977.562 5.332 1.43 7.063 2.593 1.726 1.156 2.926 2.633 3.594 4.422.675 1.793 1.015 3.922 1.015 6.39h-6.922c0-.882-.027-1.71-.078-2.484-.043-.77-.215-1.46-.515-2.078-.305-.625-.778-1.18-1.422-1.672-.649-.5-1.574-.914-2.781-1.25-1.2-.343-2.715-.597-4.547-.765-1.836-.164-4.102-.25-6.797-.25-3.074 0-5.664.11-7.766.328-2.094.219-3.828.574-5.203 1.062-1.367.492-2.422 1.153-3.172 1.985-.742.824-1.277 1.84-1.61 3.047-.335 1.199-.53 2.609-.593 4.234-.062 1.617-.094 3.48-.094 5.594 0 2.062.032 3.898.094 5.5.063 1.593.258 2.984.594 4.172.332 1.187.867 2.195 1.61 3.015.75.813 1.804 1.469 3.171 1.969 1.375.5 3.11.86 5.203 1.078 2.102.219 4.692.328 7.766.328 2.695 0 4.96-.094 6.797-.281 1.832-.195 3.347-.473 4.547-.828 1.207-.363 2.132-.813 2.78-1.344.645-.531 1.118-1.133 1.423-1.812.3-.688.472-1.442.515-2.266.051-.832.078-1.727.078-2.688h6.922c0 2.524-.34 4.711-1.015 6.563-.668 1.844-1.868 3.36-3.594 4.547-1.73 1.187-4.086 2.074-7.063 2.656-2.98.57-6.777.86-11.39.86-3.45 0-6.469-.149-9.063-.438-2.593-.293-4.836-.766-6.718-1.422-1.887-.656-3.45-1.523-4.688-2.61-1.242-1.081-2.227-2.413-2.953-4-.73-1.581-1.242-3.445-1.531-5.593-.293-2.156-.438-4.625-.438-7.406ZM5980.072 1114.251c0-4.25.453-7.765 1.359-10.547.914-2.789 2.383-5.003 4.406-6.64 2.02-1.633 4.64-2.781 7.86-3.438 3.218-.656 7.129-.984 11.734-.984 4.613 0 8.531.328 11.75.984 3.219.657 5.832 1.805 7.844 3.438 2.02 1.637 3.484 3.851 4.39 6.64.914 2.782 1.375 6.297 1.375 10.547 0 4.25-.46 7.782-1.375 10.594-.906 2.805-2.37 5.031-4.39 6.688-2.012 1.656-4.625 2.828-7.844 3.515-3.219.688-7.137 1.031-11.75 1.031-4.605 0-8.516-.343-11.734-1.03-3.22-.688-5.84-1.86-7.86-3.516-2.023-1.657-3.492-3.883-4.406-6.688-.906-2.812-1.36-6.344-1.36-10.594Zm6.922 0c0 2.305.082 4.309.25 6.016.164 1.7.484 3.164.953 4.39.468 1.231 1.117 2.231 1.953 3 .844.762 1.945 1.372 3.312 1.829 1.375.46 3.04.773 5 .937 1.957.168 4.282.25 6.969.25 2.3 0 4.36-.05 6.172-.156 1.82-.113 3.41-.363 4.766-.75 1.351-.383 2.507-.93 3.468-1.64.957-.708 1.727-1.673 2.313-2.891.594-1.227 1.023-2.735 1.297-4.516.28-1.789.422-3.945.422-6.469 0-2.476-.141-4.586-.422-6.328-.274-1.738-.703-3.195-1.297-4.375-.586-1.176-1.356-2.101-2.313-2.781-.96-.688-2.117-1.203-3.468-1.547-1.356-.352-2.946-.578-4.766-.672a111.195 111.195 0 0 0-6.172-.156c-2.305 0-4.36.055-6.172.156-1.812.094-3.402.32-4.765.672-1.356.344-2.512.86-3.47 1.547-.96.68-1.734 1.605-2.327 2.781-.586 1.18-1.016 2.637-1.297 4.375-.274 1.742-.406 3.852-.406 6.328ZM6085.145 1135.283v-23.047c0-2.57-.196-4.739-.578-6.5-.387-1.77-1.157-3.192-2.313-4.266-1.148-1.082-2.777-1.863-4.89-2.344-2.118-.488-4.903-.734-8.36-.734-3.75 0-6.82.281-9.203.844-2.387.554-4.266 1.336-5.64 2.343-1.368 1-2.31 2.211-2.829 3.625-.511 1.418-.765 2.993-.765 4.72v25.359h-6.922v-41.5h6.922v6.921a8.668 8.668 0 0 1 2.156-3.046 14.156 14.156 0 0 1 3.172-2.172 19.37 19.37 0 0 1 3.812-1.453 34.496 34.496 0 0 1 4.11-.86 43.038 43.038 0 0 1 3.968-.422c1.29-.07 2.461-.11 3.516-.11 3.082 0 5.734.196 7.953.58 2.219.374 4.098.937 5.64 1.687 1.552.742 2.798 1.664 3.735 2.765.938 1.106 1.66 2.387 2.172 3.844.52 1.45.863 3.07 1.031 4.86.176 1.792.266 3.745.266 5.859l-.047 23.047ZM6119.926 1099.048v36.235h-6.906v-36.235h-6.922v-5.265h6.922v-.36c0-2.8.312-5.14.937-7.015s1.656-3.375 3.094-4.5c1.437-1.133 3.336-1.938 5.703-2.407 2.363-.468 5.273-.703 8.734-.703h8.032v5.766h-8.063c-2.187 0-4.016.054-5.484.156-1.461.094-2.64.418-3.547.969-.899.554-1.54 1.43-1.922 2.625-.387 1.199-.578 2.902-.578 5.11v.359h19.594v5.265ZM6151.236 1093.783h6.906v41.5h-6.906Zm6.906-6.907h-6.906v-6.922h6.906ZM6215.775 1129.595c-.074.281-.617 1-1.625 2.156-.719.867-1.68 1.633-2.875 2.297-1.2.656-2.805 1.168-4.813 1.531-2 .375-4.636.563-7.906.563-4.344 0-8.055-.227-11.125-.672-3.074-.437-5.586-1.113-7.531-2.031-1.95-.926-3.371-2.11-4.266-3.547-.898-1.445-1.344-3.164-1.344-5.156 0-2.094.243-3.864.735-5.313.488-1.457 1.207-2.676 2.156-3.656.945-.988 2.094-1.758 3.438-2.313 1.343-.55 2.875-.968 4.593-1.25 1.72-.289 3.598-.472 5.641-.546 2.039-.07 4.21-.11 6.516-.11 3.289 0 6.039.14 8.25.422 2.207.273 4.015.621 5.421 1.047 1.407.418 2.47.867 3.188 1.344.719.48 1.234.922 1.547 1.328 0-2.688-.117-4.977-.344-6.875-.23-1.895-.605-3.477-1.125-4.75-.512-1.281-1.18-2.297-2-3.047-.812-.758-1.812-1.332-3-1.719-1.187-.383-2.574-.629-4.156-.734a77.078 77.078 0 0 0-5.438-.172c-3.168 0-5.797.078-7.89.234-2.086.157-3.742.465-4.969.922-1.23.461-2.094 1.094-2.594 1.906-.5.805-.75 1.852-.75 3.141h-6.922c0-2.187.391-4.035 1.172-5.547.781-1.508 2.078-2.738 3.89-3.687 1.813-.946 4.192-1.633 7.141-2.063 2.958-.437 6.598-.656 10.922-.656 4.227 0 7.805.351 10.735 1.047 2.926.687 5.297 1.914 7.11 3.672 1.812 1.75 3.116 4.11 3.921 7.078.812 2.96 1.219 6.71 1.219 11.25v19.594h-6.922Zm-16.063 1.078c3.051 0 5.602-.14 7.657-.422 2.05-.289 3.703-.722 4.953-1.297 1.25-.582 2.133-1.304 2.656-2.171.531-.864.797-1.875.797-3.032 0-1.144-.309-2.117-.922-2.922-.605-.812-1.625-1.468-3.063-1.968-1.43-.508-3.32-.875-5.671-1.094-2.356-.227-5.262-.344-8.72-.344-3.448 0-6.241.063-8.374.188-2.125.117-3.766.39-4.922.828-1.148.43-1.918 1.062-2.313 1.906-.398.836-.593 1.969-.593 3.406 0 1.45.207 2.625.625 3.532.426.898 1.285 1.593 2.578 2.093 1.3.5 3.172.844 5.61 1.032 2.437.18 5.671.265 9.702.265ZM6278.2 1135.283v-23.047c0-2.57-.196-4.739-.579-6.5-.387-1.77-1.156-3.192-2.312-4.266-1.149-1.082-2.778-1.863-4.891-2.344-2.117-.488-4.902-.734-8.36-.734-3.75 0-6.82.281-9.203.844-2.386.554-4.265 1.336-5.64 2.343-1.367 1-2.309 2.211-2.828 3.625-.512 1.418-.766 2.993-.766 4.72v25.359h-6.922v-41.5h6.922v6.921a8.668 8.668 0 0 1 2.156-3.046 14.156 14.156 0 0 1 3.172-2.172 19.37 19.37 0 0 1 3.813-1.453 34.496 34.496 0 0 1 4.11-.86 43.038 43.038 0 0 1 3.968-.422c1.289-.07 2.46-.11 3.515-.11 3.082 0 5.735.196 7.954.58 2.218.374 4.097.937 5.64 1.687 1.551.742 2.797 1.664 3.735 2.765.937 1.106 1.66 2.387 2.171 3.844.52 1.45.864 3.07 1.032 4.86.175 1.792.265 3.745.265 5.859l-.047 23.047ZM6301.465 1093.783v5.078h32.843l-35.156 30.656v5.766h43.797v-5.157h-34.64l34.64-30.578v-5.765ZM6398.272 1129.595c-.074.281-.617 1-1.625 2.156-.719.867-1.68 1.633-2.875 2.297-1.2.656-2.805 1.168-4.813 1.531-2 .375-4.636.563-7.906.563-4.344 0-8.055-.227-11.125-.672-3.074-.437-5.586-1.113-7.531-2.031-1.95-.926-3.371-2.11-4.266-3.547-.898-1.445-1.344-3.164-1.344-5.156 0-2.094.243-3.864.735-5.313.488-1.457 1.207-2.676 2.156-3.656.945-.988 2.094-1.758 3.437-2.313 1.344-.55 2.875-.968 4.594-1.25 1.719-.289 3.598-.472 5.64-.546 2.04-.07 4.212-.11 6.516-.11 3.29 0 6.04.14 8.25.422 2.208.273 4.016.621 5.422 1.047 1.407.418 2.47.867 3.188 1.344.719.48 1.234.922 1.547 1.328 0-2.688-.117-4.977-.344-6.875-.23-1.895-.605-3.477-1.125-4.75-.512-1.281-1.18-2.297-2-3.047-.813-.758-1.813-1.332-3-1.719-1.188-.383-2.574-.629-4.156-.734a77.078 77.078 0 0 0-5.438-.172c-3.168 0-5.797.078-7.89.234-2.086.157-3.743.465-4.97.922-1.23.461-2.093 1.094-2.593 1.906-.5.805-.75 1.852-.75 3.141h-6.922c0-2.187.39-4.035 1.172-5.547.781-1.508 2.078-2.738 3.89-3.687 1.813-.946 4.192-1.633 7.141-2.063 2.957-.437 6.598-.656 10.922-.656 4.227 0 7.805.351 10.735 1.047 2.925.687 5.296 1.914 7.109 3.672 1.812 1.75 3.117 4.11 3.922 7.078.812 2.96 1.219 6.71 1.219 11.25v19.594h-6.922Zm-16.063 1.078c3.051 0 5.602-.14 7.656-.422 2.051-.289 3.704-.722 4.954-1.297 1.25-.582 2.132-1.304 2.656-2.171.531-.864.797-1.875.797-3.032 0-1.144-.309-2.117-.922-2.922-.606-.812-1.625-1.468-3.063-1.968-1.43-.508-3.32-.875-5.672-1.094-2.355-.227-5.261-.344-8.718-.344-3.45 0-6.242.063-8.375.188-2.125.117-3.766.39-4.922.828-1.149.43-1.918 1.062-2.313 1.906-.398.836-.593 1.969-.593 3.406 0 1.45.207 2.625.625 3.532.425.898 1.285 1.593 2.578 2.093 1.3.5 3.172.844 5.61 1.032 2.437.18 5.671.265 9.702.265Zm0 0" fill="#43e8ed"/><path d="m2095.333 554.066 21.937 167.281h3.016l21.922-167.28h69.672v349.202h-53.328l2.156-206.437h-3.438l-22.797 206.437h-31.39l-22.797-206.437h-3.438l2.141 206.437h-53.328V554.066ZM2358.088 554.066v45.578h-35.703v89.032h35.703v46.015h-35.703v122.563h35.703v46.015h-95.484V554.066ZM2533.102 554.066v282.11c0 30.105-4.156 49.312-12.469 57.625-8.312 7.75-26.664 11.625-55.046 11.625-27.524 0-45.297-3.875-53.329-11.625-8.03-8.02-12.046-27.227-12.046-57.625v-77.844h54.187v86.015c0 10.043 3.3 15.063 9.906 15.063 3.145 0 5.438-1.07 6.875-3.219 1.438-2.156 2.157-6.101 2.157-11.844v-290.28ZM2641.468 844.347c0 9.75 3.297 14.625 9.89 14.625 3.438 0 5.802-1.07 7.095-3.218 1.289-2.157 1.937-5.957 1.937-11.407V613.41c0-10.04-3.297-15.063-9.89-15.063-6.024 0-9.032 5.024-9.032 15.063Zm-59.344-222.765c0-30.969 4.008-50.32 12.032-58.063 8.03-7.738 26.957-11.61 56.78-11.61 30.102 0 49.165 4.017 57.188 12.048 8.032 8.023 12.047 27.23 12.047 57.625v214.172c0 30.386-4.156 49.734-12.468 58.047-8.313 7.75-26.95 11.625-55.907 11.625-30.105 0-49.172-3.875-57.203-11.625-8.312-8.313-12.469-27.66-12.469-58.047ZM2828.957 706.3c.57 0 1.43.075 2.579.22 1.144.148 2.003.218 2.578.218 5.164 0 8.75-1.219 10.75-3.656 2.008-2.438 3.015-7.238 3.015-14.406v-67.094c0-10.32-1.007-16.555-3.015-18.703-2-2.157-6.012-3.235-12.032-3.235h-3.875Zm13.329-152.234c26.093 0 43.441 4.446 52.046 13.328 8.602 8.594 12.907 27.805 12.907 57.625v45.594c0 18.918-2.012 32.68-6.032 41.281-3.73 7.743-10.75 14.047-21.062 18.922 9.738 3.73 16.687 9.54 20.844 17.422 4.164 7.887 6.25 19.996 6.25 36.328V903.27h-59.36V773.816c0-5.726-1.148-9.812-3.437-12.25-2.293-2.437-5.875-3.656-10.75-3.656-.574 0-1.367.074-2.375.219-1 .136-1.79.203-2.36.203v144.937h-59.78V554.066ZM3053.012 554.066v45.578h-35.703v89.032h35.703v46.015h-35.703v122.563h35.703v46.015h-95.484V554.066ZM3237.494 674.472h-59.343v-61.5c0-9.75-3.297-14.625-9.89-14.625-3.157 0-5.384 1.079-6.673 3.235-1.293 2.148-1.937 5.945-1.937 11.39v54.188c0 6.312.93 10.836 2.797 13.562 1.863 2.72 5.375 5.657 10.53 8.813l36.563 21.062c10.032 5.743 17.196 12.48 21.5 20.22 4.301 7.741 6.453 18.636 6.453 32.687v72.672c0 31.543-4.015 50.898-12.046 58.062-8.313 7.461-27.375 11.188-57.188 11.188-29.531 0-48.312-3.875-56.344-11.625-8.312-8.313-12.468-27.52-12.468-57.625V759.19h60.203v85.156c0 10.043 3.297 15.063 9.89 15.063 5.739 0 8.61-5.02 8.61-15.063V770.38c0-6.301-.867-10.742-2.594-13.328-1.719-2.582-5.305-5.454-10.75-8.61l-38.266-22.36c-9.75-5.726-16.703-12.609-20.859-20.64-4.156-8.031-6.234-19.351-6.234-33.969v-49.89c0-29.82 4.156-48.89 12.468-57.203 8.313-8.313 27.235-12.47 56.766-12.47 29.238 0 48.02 3.872 56.344 11.61 8.312 7.743 12.468 27.094 12.468 58.063ZM3470.141 554.066v45.578h-35.703v89.032h35.703v46.015h-35.703v122.563h35.703v46.015h-95.484V554.066ZM3576.78 843.926c0 9.75 3.156 14.625 9.469 14.625 3.437 0 5.867-1.07 7.297-3.22 1.437-2.155 2.156-5.956 2.156-11.405V612.972c0-5.445-.719-9.242-2.156-11.39-1.43-2.156-3.86-3.235-7.297-3.235-3.45 0-5.89 1.008-7.328 3.016-1.43 2.012-2.14 5.883-2.14 11.61Zm-59.344-222.344c0-30.676 4.297-49.883 12.891-57.625 8.32-8.031 27.25-12.047 56.781-12.047 28.664 0 47.157 4.156 55.469 12.469 8.602 8.312 12.906 27.383 12.906 57.203v213.734c0 28.68-3.445 47.028-10.328 55.047-6.305 8.031-18.918 12.48-37.844 13.344l2.579 1.719c6.593 1.144 12.18 2.003 16.765 2.578 4.594.57 8.754.86 12.485.86 1.144 0 2.718-.075 4.718-.22 2.008-.148 4.453-.36 7.328-.64h.86l-23.235 37.406c-12.043-2.293-23.437-6.734-34.187-13.328-10.75-6.594-21.43-15.914-32.031-27.953-17.493-1.72-29.391-6.594-35.703-14.625-6.305-8.02-9.454-26.082-9.454-54.188ZM3762.988 554.066v290.281c0 10.043 3.149 15.063 9.453 15.063 3.157 0 5.446-1.07 6.875-3.219 1.438-2.156 2.157-6.101 2.157-11.844v-290.28h59.78v282.109c0 30.105-4.155 49.312-12.468 57.625-8.312 7.75-26.95 11.625-55.906 11.625-30.399 0-49.61-3.875-57.64-11.625-8.024-8.02-12.032-27.227-12.032-57.625v-282.11ZM3950.47 554.066V903.27h-59.78V554.066ZM4060.99 733.832h5.156c5.445 0 9.102-1.07 10.969-3.219 1.863-2.156 2.797-8.11 2.797-17.86v-91.171c0-10.32-.934-16.555-2.797-18.703-1.867-2.157-5.809-3.235-11.828-3.235h-4.297Zm13.328-179.766c26.957 0 44.594 4.156 52.906 12.469 8.031 8.023 12.047 27.516 12.047 58.484v83.438c0 31.25-4.164 51.031-12.484 59.344-8.024 8.03-25.367 12.046-52.032 12.046h-13.765V903.27h-59.781V554.066ZM4242.893 844.347c0 9.75 3.297 14.625 9.89 14.625 3.438 0 5.801-1.07 7.094-3.218 1.29-2.157 1.938-5.957 1.938-11.407V613.41c0-10.04-3.297-15.063-9.89-15.063-6.024 0-9.032 5.024-9.032 15.063Zm-59.344-222.765c0-30.969 4.008-50.32 12.031-58.063 8.032-7.738 26.958-11.61 56.782-11.61 30.101 0 49.164 4.017 57.187 12.048 8.031 8.023 12.047 27.23 12.047 57.625v214.172c0 30.386-4.156 49.734-12.469 58.047-8.312 7.75-26.949 11.625-55.906 11.625-30.105 0-49.172-3.875-57.203-11.625-8.313-8.313-12.469-27.66-12.469-58.047ZM4505.648 674.472h-59.344v-61.5c0-9.75-3.297-14.625-9.89-14.625-3.157 0-5.383 1.079-6.672 3.235-1.293 2.148-1.938 5.945-1.938 11.39v54.188c0 6.312.93 10.836 2.797 13.562 1.863 2.72 5.375 5.657 10.531 8.813l36.563 21.062c10.031 5.743 17.195 12.48 21.5 20.22 4.3 7.741 6.453 18.636 6.453 32.687v72.672c0 31.543-4.016 50.898-12.047 58.062-8.312 7.461-27.375 11.188-57.187 11.188-29.532 0-48.313-3.875-56.344-11.625-8.313-8.313-12.469-27.52-12.469-57.625V759.19h60.203v85.156c0 10.043 3.297 15.063 9.89 15.063 5.739 0 8.61-5.02 8.61-15.063V770.38c0-6.301-.867-10.742-2.594-13.328-1.718-2.582-5.304-5.454-10.75-8.61l-38.265-22.36c-9.75-5.726-16.703-12.609-20.86-20.64-4.156-8.031-6.234-19.351-6.234-33.969v-49.89c0-29.82 4.156-48.89 12.469-57.203 8.312-8.313 27.234-12.47 56.765-12.47 29.239 0 48.02 3.872 56.344 11.61 8.313 7.743 12.469 27.094 12.469 58.063Zm0 0" fill="#6c4892"/><path d="M2777.261 1144.528c11.781 0 21.781.89 30 2.671 8.227 1.782 14.922 4.825 20.078 9.125 5.156 4.293 8.899 10.043 11.235 17.25 2.332 7.211 3.5 16.247 3.5 27.11 0 10.68-1.168 19.547-3.5 26.61-2.336 7.054-6.079 12.667-11.235 16.843-5.156 4.18-11.851 7.125-20.078 8.844-8.219 1.718-18.219 2.578-30 2.578-8.406 0-15.434-.465-21.078-1.39-5.649-.915-10.266-2.063-13.86-3.438-3.593-1.383-6.328-2.875-8.203-4.469-1.867-1.602-3.199-3.11-4-4.516v47.125h-17.671v-141.39h17.671v9.843c.801-1.226 2.133-2.593 4-4.093 1.875-1.5 4.61-2.895 8.204-4.188 3.593-1.289 8.21-2.363 13.859-3.218 5.644-.864 12.672-1.297 21.078-1.297Zm0 14.734c-5.898 0-11.148.156-15.75.469-4.605.304-8.656.933-12.156 1.89-3.492.95-6.45 2.328-8.875 4.141-2.43 1.805-4.406 4.227-5.938 7.266-1.531 3.03-2.652 6.793-3.36 11.28-.71 4.481-1.062 9.852-1.062 16.11 0 6.313.352 11.742 1.063 16.282.707 4.542 1.828 8.335 3.36 11.374 1.53 3.043 3.507 5.47 5.937 7.282 2.426 1.804 5.383 3.183 8.875 4.14 3.5.95 7.55 1.563 12.156 1.844 4.602.274 9.852.406 15.75.406 6.875 0 12.813-.21 17.813-.64 5-.438 9.25-1.207 12.75-2.313 3.5-1.101 6.335-2.633 8.515-4.593 2.176-1.97 3.863-4.47 5.063-7.5 1.195-3.04 1.992-6.692 2.39-10.954.395-4.27.594-9.289.594-15.062 0-5.77-.2-10.8-.594-15.094-.398-4.289-1.195-7.973-2.39-11.047-1.2-3.07-2.887-5.586-5.063-7.547-2.18-1.968-5.015-3.535-8.515-4.703-3.5-1.164-7.75-1.96-12.75-2.39-5-.426-10.938-.641-17.813-.641ZM2990.701 1238.98c-.187.743-1.57 2.587-4.14 5.532-1.844 2.21-4.305 4.156-7.375 5.844-3.063 1.687-7.157 3.008-12.282 3.953-5.125.945-11.859 1.422-20.203 1.422-11.117 0-20.601-.57-28.453-1.703-7.855-1.133-14.265-2.88-19.234-5.235-4.969-2.363-8.606-5.383-10.906-9.062-2.305-3.688-3.454-8.078-3.454-13.172 0-5.344.625-9.867 1.875-13.578 1.258-3.719 3.102-6.832 5.532-9.344 2.425-2.52 5.359-4.484 8.797-5.89 3.437-1.415 7.347-2.489 11.734-3.22 4.383-.738 9.187-1.203 14.406-1.39 5.219-.188 10.77-.281 16.656-.281 8.407 0 15.43.355 21.079 1.062 5.644.711 10.265 1.602 13.859 2.672 3.594 1.074 6.305 2.227 8.14 3.453 1.844 1.23 3.165 2.367 3.97 3.407 0-6.876-.294-12.735-.876-17.579-.586-4.851-1.539-8.906-2.86-12.156-1.312-3.25-3.015-5.836-5.108-7.765-2.086-1.938-4.649-3.395-7.688-4.376-3.031-.988-6.574-1.617-10.625-1.89-4.055-.281-8.687-.422-13.906-.422-8.106 0-14.828.203-20.172.61-5.336.398-9.57 1.18-12.703 2.343-3.125 1.156-5.336 2.766-6.625 4.828-1.281 2.055-1.922 4.735-1.922 8.047h-17.672c0-5.582.992-10.305 2.984-14.172 2-3.863 5.313-7.008 9.938-9.437 4.633-2.426 10.726-4.192 18.281-5.297 7.55-1.102 16.848-1.656 27.89-1.656 10.802 0 19.946.89 27.438 2.671 7.489 1.782 13.547 4.915 18.172 9.391 4.633 4.48 7.977 10.512 10.031 18.094 2.063 7.574 3.094 17.164 3.094 28.765v50.079h-17.672Zm-41.062 2.766c7.789 0 14.312-.367 19.562-1.109 5.25-.738 9.469-1.844 12.657-3.313 3.195-1.468 5.468-3.304 6.812-5.515 1.352-2.219 2.031-4.797 2.031-7.735 0-2.945-.789-5.445-2.36-7.5-1.562-2.062-4.171-3.734-7.827-5.015-3.649-1.29-8.48-2.227-14.5-2.813-6.012-.582-13.434-.875-22.266-.875-8.836 0-15.969.157-21.406.47-5.43.304-9.617 1.007-12.563 2.109-2.949 1.105-4.93 2.73-5.937 4.874-1.012 2.149-1.516 5.063-1.516 8.75 0 3.68.535 6.668 1.61 8.97 1.07 2.304 3.265 4.1 6.578 5.39 3.312 1.293 8.082 2.168 14.312 2.625 6.227.46 14.5.687 24.813.687ZM3145.689 1181.996c0-4.414-.324-8.082-.969-11-.648-2.914-2.168-5.242-4.562-6.984-2.399-1.75-5.946-2.977-10.64-3.688-4.688-.707-11.087-1.062-19.188-1.062-7.918 0-14.36.695-19.329 2.078-4.968 1.375-8.867 3.324-11.687 5.844-2.824 2.512-4.746 5.515-5.766 9.015-1.011 3.5-1.515 7.399-1.515 11.688v65.64h-17.672v-106.046h17.672v16.843c.613-1.906 1.75-4.003 3.406-6.296 1.656-2.301 4.172-4.446 7.547-6.438 3.375-2 7.742-3.676 13.11-5.031 5.374-1.352 12.081-2.031 20.124-2.031 9.207 0 16.696.82 22.469 2.453 5.77 1.625 10.266 4.015 13.484 7.172 3.22 3.156 5.395 7.07 6.532 11.734 1.132 4.668 1.703 10.04 1.703 16.11ZM3300.213 1238.98c-.187.743-1.57 2.587-4.14 5.532-1.844 2.21-4.305 4.156-7.376 5.844-3.062 1.687-7.156 3.008-12.28 3.953-5.126.945-11.86 1.422-20.204 1.422-11.117 0-20.602-.57-28.453-1.703-7.856-1.133-14.266-2.88-19.234-5.235-4.97-2.363-8.606-5.383-10.907-9.062-2.304-3.688-3.453-8.078-3.453-13.172 0-5.344.625-9.867 1.875-13.578 1.258-3.719 3.102-6.832 5.531-9.344 2.426-2.52 5.36-4.484 8.797-5.89 3.438-1.415 7.348-2.489 11.735-3.22 4.382-.738 9.187-1.203 14.406-1.39 5.219-.188 10.77-.281 16.656-.281 8.406 0 15.43.355 21.078 1.062 5.645.711 10.266 1.602 13.86 2.672 3.593 1.074 6.304 2.227 8.14 3.453 1.844 1.23 3.164 2.367 3.97 3.407 0-6.876-.294-12.735-.876-17.579-.586-4.851-1.539-8.906-2.86-12.156-1.312-3.25-3.015-5.836-5.109-7.765-2.086-1.938-4.648-3.395-7.687-4.376-3.031-.988-6.574-1.617-10.625-1.89-4.055-.281-8.688-.422-13.906-.422-8.106 0-14.829.203-20.172.61-5.336.398-9.57 1.18-12.703 2.343-3.125 1.156-5.336 2.766-6.625 4.828-1.282 2.055-1.922 4.735-1.922 8.047h-17.672c0-5.582.992-10.305 2.984-14.172 2-3.863 5.313-7.008 9.938-9.437 4.632-2.426 10.726-4.192 18.28-5.297 7.552-1.102 16.849-1.656 27.892-1.656 10.8 0 19.945.89 27.437 2.671 7.488 1.782 13.547 4.915 18.172 9.391 4.633 4.48 7.976 10.512 10.031 18.094 2.063 7.574 3.094 17.164 3.094 28.765v50.079h-17.672Zm-41.062 2.766c7.789 0 14.312-.367 19.562-1.109 5.25-.738 9.469-1.844 12.656-3.313 3.196-1.468 5.47-3.304 6.813-5.515 1.351-2.219 2.031-4.797 2.031-7.735 0-2.945-.789-5.445-2.36-7.5-1.562-2.062-4.171-3.734-7.827-5.015-3.649-1.29-8.48-2.227-14.5-2.813-6.012-.582-13.434-.875-22.266-.875-8.836 0-15.969.157-21.406.47-5.43.304-9.618 1.007-12.563 2.109-2.949 1.105-4.93 2.73-5.937 4.874-1.012 2.149-1.516 5.063-1.516 8.75 0 3.68.535 6.668 1.61 8.97 1.07 2.304 3.265 4.1 6.578 5.39 3.312 1.293 8.082 2.168 14.312 2.625 6.227.46 14.5.687 24.813.687ZM3586.72 1156.309c0-7.363-.805-13.192-2.406-17.485-1.594-4.289-4.235-7.539-7.922-9.75-3.68-2.218-8.523-3.628-14.531-4.234-6.012-.613-13.438-.922-22.282-.922h-47.312c-7.856 0-14.469.23-19.844.688-5.367.46-9.797 1.398-13.297 2.812-3.5 1.407-6.203 3.434-8.11 6.078-1.897 2.637-3.276 6.133-4.14 10.485-.855 4.355-1.343 9.71-1.468 16.062-.125 6.356-.188 13.95-.188 22.782 0 8.843.078 16.445.234 22.796.157 6.344.66 11.7 1.516 16.063.863 4.355 2.227 7.851 4.094 10.484 1.875 2.637 4.562 4.664 8.062 6.078 3.5 1.418 7.93 2.356 13.297 2.813 5.375.46 11.988.687 19.844.687h47.406c6.875 0 12.797-.18 17.766-.547 4.969-.375 9.203-1.05 12.703-2.03 3.5-.977 6.32-2.329 8.469-4.048 2.144-1.718 3.816-3.879 5.015-6.484 1.196-2.613 2.008-5.742 2.438-9.39.437-3.657.656-7.942.656-12.86v-8.828h-70.89v-14.735h88.562v23.563c0 5.898-.371 11.227-1.11 15.984-.742 4.75-2.046 8.985-3.921 12.703a31.027 31.027 0 0 1-7.5 9.625c-3.125 2.7-7.086 4.922-11.875 6.672-4.782 1.743-10.492 3.024-17.125 3.86-6.625.832-14.356 1.25-23.188 1.25h-47.406c-10.805 0-19.902-.664-27.297-1.985-7.398-1.32-13.492-3.316-18.281-5.984-4.781-2.664-8.48-6.023-11.094-10.078-2.605-4.05-4.508-8.805-5.703-14.266-1.2-5.468-1.89-11.633-2.078-18.5-.18-6.875-.266-14.488-.266-22.843 0-8.344.086-15.954.266-22.829.187-6.875.879-13.039 2.078-18.5 1.195-5.457 3.098-10.21 5.703-14.265 2.613-4.051 6.313-7.41 11.094-10.078 4.789-2.676 10.883-4.672 18.281-5.985 7.395-1.32 16.492-1.984 27.297-1.984h47.312c8.844 0 16.579.418 23.204 1.25 6.625.824 12.328 2.078 17.109 3.765 4.789 1.688 8.766 3.825 11.922 6.407 3.164 2.574 5.68 5.61 7.547 9.11 1.875 3.5 3.18 7.46 3.922 11.874.738 4.418 1.109 9.324 1.109 14.719ZM3755.966 1238.98c-.187.743-1.57 2.587-4.14 5.532-1.844 2.21-4.305 4.156-7.375 5.844-3.063 1.687-7.156 3.008-12.281 3.953-5.125.945-11.86 1.422-20.204 1.422-11.117 0-20.601-.57-28.453-1.703-7.855-1.133-14.265-2.88-19.234-5.235-4.969-2.363-8.605-5.383-10.906-9.062-2.305-3.688-3.453-8.078-3.453-13.172 0-5.344.625-9.867 1.875-13.578 1.257-3.719 3.101-6.832 5.53-9.344 2.427-2.52 5.36-4.484 8.798-5.89 3.437-1.415 7.347-2.489 11.734-3.22 4.383-.738 9.188-1.203 14.406-1.39 5.22-.188 10.77-.281 16.657-.281 8.406 0 15.43.355 21.078 1.062 5.644.711 10.265 1.602 13.86 2.672 3.593 1.074 6.304 2.227 8.14 3.453 1.843 1.23 3.164 2.367 3.968 3.407 0-6.876-.292-12.735-.875-17.579-.585-4.851-1.539-8.906-2.859-12.156-1.312-3.25-3.016-5.836-5.11-7.765-2.085-1.938-4.648-3.395-7.687-4.376-3.031-.988-6.574-1.617-10.625-1.89-4.054-.281-8.687-.422-13.906-.422-8.105 0-14.828.203-20.172.61-5.336.398-9.57 1.18-12.703 2.343-3.125 1.156-5.336 2.766-6.625 4.828-1.281 2.055-1.922 4.735-1.922 8.047h-17.672c0-5.582.992-10.305 2.985-14.172 2-3.863 5.312-7.008 9.937-9.437 4.633-2.426 10.727-4.192 18.281-5.297 7.551-1.102 16.848-1.656 27.891-1.656 10.8 0 19.945.89 27.437 2.671 7.489 1.782 13.547 4.915 18.172 9.391 4.633 4.48 7.977 10.512 10.032 18.094 2.062 7.574 3.093 17.164 3.093 28.765v50.079h-17.672Zm-41.062 2.766c7.789 0 14.312-.367 19.562-1.109 5.25-.738 9.47-1.844 12.657-3.313 3.195-1.468 5.468-3.304 6.812-5.515 1.352-2.219 2.031-4.797 2.031-7.735 0-2.945-.789-5.445-2.359-7.5-1.562-2.062-4.172-3.734-7.828-5.015-3.648-1.29-8.48-2.227-14.5-2.813-6.012-.582-13.434-.875-22.266-.875-8.836 0-15.968.157-21.406.47-5.43.304-9.617 1.007-12.562 2.109-2.95 1.105-4.93 2.73-5.938 4.874-1.012 2.149-1.516 5.063-1.516 8.75 0 3.68.536 6.668 1.61 8.97 1.07 2.304 3.265 4.1 6.578 5.39 3.312 1.293 8.082 2.168 14.312 2.625 6.227.46 14.5.687 24.813.687ZM3931.564 1253.528h-17.672v-59.844c0-6.375-.418-11.754-1.25-16.14-.825-4.395-2.512-7.942-5.063-10.641-2.543-2.696-6.133-4.645-10.765-5.844-4.637-1.195-10.727-1.797-18.266-1.797-8.293 0-15.11.695-20.453 2.078-5.336 1.375-9.54 3.309-12.61 5.797-3.062 2.48-5.195 5.469-6.39 8.969-1.2 3.5-1.797 7.398-1.797 11.687v65.735h-17.672V1147.48h17.672v16.75c.062-.188.336-.801.828-1.844.488-1.04 1.363-2.281 2.625-3.719 1.258-1.445 2.977-3 5.156-4.656 2.176-1.656 5-3.188 8.469-4.594 3.469-1.414 7.656-2.582 12.563-3.5 4.914-.926 10.75-1.39 17.5-1.39 6.625 0 12.375.418 17.25 1.25 4.882.824 9.062 2.054 12.53 3.687 3.47 1.625 6.29 3.652 8.47 6.078 2.175 2.418 3.91 5.196 5.203 8.328 1.039-1.656 2.664-3.586 4.875-5.797 2.207-2.218 5.289-4.335 9.25-6.359 3.957-2.031 8.91-3.734 14.859-5.11 5.957-1.382 13.234-2.077 21.828-2.077 7.05 0 13.11.48 18.172 1.437 5.063.95 9.344 2.36 12.844 4.235 3.5 1.867 6.304 4.183 8.422 6.953 2.125 2.761 3.754 5.968 4.89 9.625 1.133 3.648 1.883 7.726 2.25 12.234.364 4.512.547 9.402.547 14.672v59.844h-17.672v-59.844c0-6.375-.418-11.754-1.25-16.14-.824-4.395-2.511-7.942-5.062-10.641-2.543-2.696-6.133-4.645-10.766-5.844-4.637-1.195-10.726-1.797-18.265-1.797-8.293 0-15.11.695-20.454 2.078-5.336 1.375-9.539 3.309-12.609 5.797-3.062 2.48-5.195 5.469-6.39 8.969-1.2 3.5-1.797 7.398-1.797 11.687ZM4077.704 1147.48h17.672v106.048h-17.672Zm17.672-17.671h-17.672v-17.688h17.672ZM4253.318 1253.528v-58.922c0-6.563-.492-12.098-1.469-16.61-.98-4.507-2.945-8.144-5.89-10.906-2.95-2.758-7.126-4.754-12.532-5.984-5.398-1.227-12.511-1.844-21.344-1.844-9.574 0-17.417.71-23.53 2.125-6.106 1.406-10.907 3.402-14.407 5.984-3.492 2.575-5.898 5.672-7.219 9.297-1.324 3.617-1.984 7.633-1.984 12.047v64.813h-17.672V1147.48h17.672v17.672a22.21 22.21 0 0 1 5.531-7.782c2.395-2.175 5.094-4.03 8.094-5.562 3.008-1.54 6.265-2.785 9.765-3.735 3.5-.945 6.993-1.68 10.485-2.203 3.5-.52 6.89-.875 10.172-1.062 3.289-.188 6.285-.281 8.984-.281 7.852 0 14.617.496 20.297 1.484 5.676.98 10.492 2.422 14.453 4.328 3.957 1.899 7.133 4.258 9.531 7.078 2.395 2.824 4.25 6.094 5.563 9.813 1.32 3.71 2.195 7.851 2.625 12.422.426 4.574.64 9.558.64 14.953l-.093 58.922ZM4378.936 1159.262c-6.875 0-12.813.215-17.813.64-5 .43-9.25 1.2-12.75 2.313-3.5 1.106-6.34 2.64-8.515 4.61-2.18 1.96-3.867 4.476-5.063 7.546-1.199 3.063-1.996 6.762-2.39 11.094-.399 4.324-.594 9.399-.594 15.219 0 5.773.195 10.793.594 15.062.394 4.262 1.191 7.914 2.39 10.953 1.196 3.032 2.883 5.532 5.063 7.5 2.176 1.961 5.015 3.493 8.515 4.594 3.5 1.106 7.75 1.875 12.75 2.313 5 .43 10.938.64 17.813.64 5.894 0 11.144-.132 15.75-.406 4.602-.281 8.648-.894 12.14-1.844 3.5-.957 6.462-2.336 8.891-4.14 2.426-1.813 4.406-4.239 5.938-7.282 1.53-3.039 2.648-6.816 3.36-11.328.706-4.507 1.062-9.953 1.062-16.328 0-6.383-.356-11.847-1.063-16.39-.71-4.54-1.828-8.329-3.36-11.36-1.53-3.039-3.511-5.453-5.937-7.234-2.43-1.781-5.39-3.129-8.89-4.047-3.493-.926-7.54-1.508-12.141-1.75-4.606-.25-9.856-.375-15.75-.375Zm64.812 79.531c0 10.313-1.168 18.875-3.5 25.688-2.335 6.812-6.078 12.316-11.234 16.515-5.156 4.207-11.851 7.141-20.078 8.797-8.219 1.657-18.219 2.485-30 2.485-11.043 0-20.324-.493-27.844-1.47-7.523-.98-13.586-2.53-18.187-4.655-4.594-2.118-7.89-4.844-9.89-8.188-1.993-3.344-2.985-7.406-2.985-12.187h17.672c0 2.382.625 4.343 1.875 5.875 1.257 1.539 3.453 2.738 6.578 3.593 3.133.864 7.36 1.461 12.672 1.797 5.312.344 12.015.516 20.109.516 8.844 0 16.27-.324 22.281-.969 6.008-.648 10.852-2.168 14.531-4.562 3.688-2.399 6.329-6.016 7.922-10.86 1.602-4.843 2.407-11.316 2.407-19.422-.868 1.47-2.235 3.063-4.11 4.782-1.867 1.718-4.594 3.32-8.187 4.796-3.586 1.47-8.2 2.692-13.844 3.672-5.648.989-12.648 1.485-21 1.485-11.781 0-21.79-.875-30.016-2.625-8.218-1.75-14.906-4.739-20.062-8.969-5.156-4.238-8.903-9.945-11.235-17.125-2.324-7.188-3.484-16.21-3.484-27.078 0-11.04 1.16-20.18 3.484-27.422 2.332-7.25 6.079-12.988 11.235-17.219 5.156-4.238 11.844-7.218 20.062-8.937 8.227-1.719 18.235-2.578 30.016-2.578 8.352 0 15.352.433 21 1.296 5.644.856 10.258 1.93 13.844 3.22 3.593 1.292 6.32 2.687 8.187 4.187 1.875 1.5 3.242 2.867 4.11 4.093v-9.843h17.671ZM4507.407 1253.528h-17.671v-17.672h17.671ZM2056.647 445.617V345.274h100.344v10.453h-87.797v33.437h83.61v10.453h-83.61v35.547h87.797v10.453ZM2254.148 445.617v-41.812c0-4.656-.352-8.582-1.047-11.781-.7-3.207-2.094-5.79-4.187-7.75-2.086-1.957-5.043-3.375-8.875-4.25-3.836-.875-8.887-1.313-15.157-1.313-6.804 0-12.37.508-16.703 1.516-4.336 1-7.742 2.418-10.218 4.25-2.481 1.824-4.188 4.023-5.125 6.593-.938 2.563-1.407 5.415-1.407 8.547v46h-12.547v-75.265h12.547v12.547a15.736 15.736 0 0 1 3.922-5.516 25.75 25.75 0 0 1 5.75-3.953c2.133-1.094 4.442-1.973 6.922-2.64a63.635 63.635 0 0 1 7.438-1.563 75.79 75.79 0 0 1 7.218-.75 113.17 113.17 0 0 1 6.375-.203c5.582 0 10.383.351 14.407 1.046 4.03.688 7.445 1.711 10.25 3.063 2.812 1.355 5.066 3.031 6.765 5.031 1.707 2 3.024 4.32 3.953 6.953.938 2.637 1.555 5.578 1.86 8.828.312 3.243.468 6.778.468 10.61l-.062 41.812ZM2290.735 408.117c0-5.226.258-9.843.781-13.843.531-4.008 1.457-7.493 2.781-10.454 1.332-2.968 3.117-5.44 5.36-7.421 2.238-1.977 5.066-3.579 8.484-4.797 3.426-1.219 7.488-2.086 12.187-2.61 4.708-.53 10.196-.797 16.47-.797 8.363 0 15.241.516 20.64 1.547 5.406 1.024 9.676 2.59 12.812 4.703 3.133 2.106 5.313 4.782 6.532 8.032 1.218 3.242 1.828 7.105 1.828 11.593h-12.547c0-1.613-.043-3.113-.125-4.5-.086-1.394-.402-2.66-.953-3.796-.543-1.133-1.403-2.145-2.578-3.032-1.18-.894-2.856-1.644-5.032-2.25-2.18-.613-4.933-1.07-8.265-1.375-3.336-.312-7.438-.468-12.313-.468-5.574 0-10.265.199-14.078.593-3.812.399-6.96 1.043-9.437 1.938-2.48.887-4.399 2.086-5.75 3.594-1.356 1.5-2.34 3.34-2.954 5.515-.605 2.18-.964 4.735-1.078 7.672a287.245 287.245 0 0 0-.156 10.156c0 3.75.05 7.075.156 9.97.114 2.898.473 5.421 1.078 7.577.614 2.156 1.598 3.977 2.954 5.453 1.351 1.48 3.27 2.68 5.75 3.594 2.476.918 5.625 1.574 9.437 1.969 3.813.387 8.504.578 14.078.578 4.875 0 8.977-.172 12.313-.516 3.332-.351 6.086-.859 8.265-1.515 2.176-.657 3.852-1.457 5.032-2.407 1.175-.957 2.035-2.054 2.578-3.296.55-1.25.867-2.625.953-4.125.082-1.5.125-3.125.125-4.875h12.547c0 4.574-.61 8.539-1.828 11.89-1.22 3.356-3.399 6.11-6.532 8.266-3.136 2.156-7.406 3.762-12.812 4.812-5.399 1.04-12.277 1.563-20.64 1.563-6.274 0-11.762-.262-16.47-.781-4.699-.524-8.761-1.38-12.187-2.579-3.418-1.195-6.246-2.773-8.484-4.734-2.243-1.969-4.028-4.39-5.36-7.266-1.324-2.875-2.25-6.257-2.781-10.156-.523-3.894-.781-8.367-.781-13.422ZM2417.294 370.352v41.812c0 4.668.347 8.602 1.047 11.797.695 3.2 2.085 5.781 4.171 7.75 2.094 1.961 5.055 3.375 8.891 4.25 3.832.867 8.883 1.297 15.156 1.297 6.801 0 12.367-.5 16.703-1.5 4.332-1.008 7.739-2.426 10.22-4.25 2.476-1.832 4.187-4.031 5.124-6.594.938-2.57 1.406-5.426 1.406-8.562v-46h12.547v75.265h-12.547V433.07c-.605 1.356-1.625 2.852-3.062 4.485-1.438 1.625-3.594 3.137-6.469 4.531-2.875 1.399-6.59 2.574-11.14 3.531-4.555.957-10.204 1.438-16.954 1.438-5.625 0-10.453-.34-14.484-1.016-4.023-.676-7.437-1.676-10.25-3-2.812-1.332-5.07-2.976-6.766-4.937-1.699-1.957-3.007-4.235-3.921-6.828-.907-2.594-1.516-5.477-1.829-8.657-.304-3.175-.453-6.66-.453-10.453l.063-41.812ZM2562.537 447.055c-8.368 0-15.465-.578-21.297-1.735-5.836-1.156-10.586-3.144-14.25-5.968-3.656-2.832-6.313-6.625-7.969-11.375-1.656-4.75-2.484-10.719-2.484-17.907 0-8.226.828-15.03 2.484-20.406 1.656-5.383 4.313-9.664 7.969-12.844 3.664-3.175 8.414-5.394 14.25-6.656 5.832-1.258 12.93-1.89 21.297-1.89 5.968 0 11.14.437 15.515 1.312 4.375.867 8.117 2.125 11.235 3.781 3.113 1.657 5.64 3.664 7.578 6.016 1.937 2.344 3.457 4.812 4.562 7.406 1.114 2.594 1.88 5.637 2.297 9.125.414 3.48.625 7.156.625 11.031l-1.047 4.172h-74.218c0 5.75.566 10.47 1.703 14.157 1.132 3.68 3.004 6.367 5.609 8.062 2.613 1.7 6.055 2.777 10.328 3.234 4.27.461 9.54.688 15.813.688 5.75 0 10.504-.16 14.265-.484 3.77-.332 6.766-.957 8.985-1.875 2.226-.914 3.785-2.188 4.672-3.813.894-1.633 1.343-3.758 1.343-6.375h12.547c0 4.055-.71 7.508-2.125 10.36-1.418 2.855-3.762 5.164-7.031 6.921-3.262 1.762-7.559 3.043-12.89 3.844-5.337.813-11.923 1.219-19.766 1.219Zm0-68.344c-4.18 0-7.914.09-11.203.266-3.293.18-6.168.562-8.625 1.156-2.461.586-4.563 1.434-6.313 2.547-1.742 1.105-3.148 2.414-4.219 3.922-1.062 1.5-1.843 3.61-2.343 6.328-.5 2.719-.75 5.996-.75 9.828h62.718c0-5.094-.547-9.086-1.64-11.984-1.086-2.895-2.805-5.282-5.157-7.157-2.355-1.875-5.382-3.16-9.078-3.859-3.699-.695-8.164-1.047-13.39-1.047ZM2705.687 445.617v-41.812c0-4.656-.352-8.582-1.047-11.781-.7-3.207-2.094-5.79-4.188-7.75-2.086-1.957-5.043-3.375-8.875-4.25-3.836-.875-8.887-1.313-15.156-1.313-6.805 0-12.371.508-16.703 1.516-4.336 1-7.742 2.418-10.219 4.25-2.48 1.824-4.187 4.023-5.125 6.593-.937 2.563-1.406 5.415-1.406 8.547v46h-12.547v-75.265h12.547v12.547a15.736 15.736 0 0 1 3.922-5.516 25.75 25.75 0 0 1 5.75-3.953c2.132-1.094 4.441-1.973 6.922-2.64a63.635 63.635 0 0 1 7.437-1.563 75.79 75.79 0 0 1 7.219-.75 113.17 113.17 0 0 1 6.375-.203c5.582 0 10.383.351 14.406 1.046 4.031.688 7.445 1.711 10.25 3.063 2.813 1.355 5.066 3.031 6.766 5.031 1.707 2 3.023 4.32 3.953 6.953.937 2.637 1.554 5.578 1.86 8.828.312 3.243.468 6.778.468 10.61l-.063 41.812ZM2817.539 412.164c0 6.406-.527 11.758-1.578 16.047-1.043 4.293-2.793 7.727-5.25 10.297-2.461 2.562-5.696 4.39-9.703 5.484-4 1.086-8.946 1.625-14.828 1.625-5.711 0-10.5-.43-14.375-1.297-3.875-.875-7.012-2.359-9.407-4.453-2.398-2.093-4.117-4.879-5.156-8.359-1.043-3.488-1.562-7.844-1.562-13.063V380.68h-15.485v-10.328h15.485v-20.578h12.53v20.578h47.235v10.328h-47.234v37.765c0 4.18.316 7.403.953 9.672.633 2.262 1.644 3.918 3.031 4.97 1.395 1.042 3.235 1.651 5.516 1.827 2.289.168 5.094.25 8.406.25 2.613 0 4.953-.039 7.016-.125 2.07-.094 3.879-.367 5.422-.828 1.55-.457 2.867-1.148 3.953-2.078 1.093-.938 1.976-2.254 2.656-3.953.676-1.695 1.164-3.844 1.469-6.438.3-2.593.453-5.785.453-9.578ZM2908.428 394.852c0-3.133-.23-5.735-.687-7.797-.461-2.07-1.54-3.727-3.235-4.969-1.699-1.238-4.214-2.11-7.546-2.61-3.336-.507-7.875-.765-13.625-.765-5.618 0-10.188.496-13.72 1.484-3.523.98-6.288 2.368-8.296 4.157-2 1.781-3.36 3.914-4.078 6.39-.719 2.48-1.078 5.246-1.078 8.297v46.578h-12.547v-75.265h12.547v11.953c.437-1.344 1.242-2.832 2.422-4.469 1.175-1.633 2.957-3.16 5.343-4.578 2.395-1.414 5.5-2.598 9.313-3.547 3.812-.957 8.57-1.437 14.281-1.437 6.531 0 11.844.578 15.938 1.734 4.093 1.148 7.28 2.844 9.562 5.094 2.29 2.242 3.836 5.015 4.64 8.328.813 3.305 1.22 7.11 1.22 11.422ZM3011.531 435.29c-.136.53-1.117 1.84-2.937 3.921-1.313 1.574-3.059 2.961-5.235 4.156-2.18 1.2-5.086 2.133-8.718 2.797-3.637.676-8.418 1.016-14.344 1.016-7.875 0-14.606-.402-20.188-1.203-5.574-.801-10.125-2.04-13.656-3.719-3.523-1.676-6.101-3.82-7.734-6.438-1.637-2.613-2.453-5.726-2.453-9.343 0-3.79.445-7.004 1.343-9.64.895-2.634 2.203-4.845 3.922-6.626 1.719-1.789 3.797-3.187 6.235-4.187 2.437-1 5.21-1.758 8.328-2.282 3.113-.52 6.52-.843 10.218-.968 3.708-.133 7.649-.204 11.829-.204 5.968 0 10.957.25 14.968.75 4.008.5 7.286 1.133 9.828 1.891 2.551.762 4.477 1.578 5.782 2.453 1.312.867 2.25 1.668 2.812 2.406 0-4.875-.21-9.03-.625-12.468-.406-3.438-1.078-6.313-2.015-8.625-.938-2.313-2.153-4.149-3.641-5.516-1.48-1.375-3.297-2.41-5.453-3.11-2.156-.695-4.672-1.144-7.547-1.343-2.867-.195-6.152-.297-9.86-.297-5.75 0-10.523.149-14.312.438-3.781.28-6.789.84-9.016 1.671-2.218.825-3.789 1.965-4.703 3.422-.906 1.461-1.359 3.368-1.359 5.72h-12.547c0-3.97.707-7.321 2.125-10.063 1.414-2.75 3.766-4.985 7.047-6.704 3.289-1.718 7.613-2.968 12.969-3.75 5.363-.78 11.96-1.171 19.797-1.171 7.664 0 14.156.632 19.468 1.89 5.313 1.262 9.614 3.48 12.907 6.656 3.289 3.18 5.664 7.461 7.125 12.844 1.457 5.375 2.187 12.18 2.187 20.406v35.547h-12.547Zm-29.14 1.968c5.53 0 10.156-.258 13.875-.781 3.726-.532 6.722-1.317 8.984-2.36 2.27-1.039 3.883-2.343 4.844-3.906.957-1.57 1.437-3.406 1.437-5.5s-.558-3.867-1.672-5.328c-1.105-1.457-2.953-2.64-5.547-3.547-2.593-.914-6.027-1.582-10.296-2-4.262-.414-9.528-.625-15.797-.625-6.282 0-11.352.11-15.203.328-3.856.219-6.829.719-8.922 1.5-2.086.781-3.485 1.938-4.203 3.469-.72 1.523-1.079 3.59-1.079 6.203 0 2.617.38 4.742 1.141 6.375.758 1.625 2.317 2.899 4.672 3.813 2.352.918 5.738 1.543 10.156 1.875 4.426.324 10.297.484 17.61.484ZM3092.966 345.274h12.547v100.343h-12.547ZM3133.677 407.461c0-7.707.828-14.086 2.484-19.14 1.656-5.051 4.312-9.055 7.969-12.016 3.664-2.969 8.414-5.047 14.25-6.235 5.832-1.195 12.93-1.796 21.297-1.796 8.363 0 15.46.601 21.296 1.796 5.833 1.188 10.579 3.266 14.235 6.235 3.664 2.96 6.32 6.965 7.969 12.015 1.656 5.055 2.484 11.434 2.484 19.141 0 7.711-.828 14.117-2.484 19.219-1.649 5.094-4.305 9.148-7.97 12.156-3.655 3-8.401 5.121-14.234 6.36-5.835 1.238-12.933 1.859-21.296 1.859-8.368 0-15.465-.621-21.297-1.86-5.836-1.238-10.586-3.359-14.25-6.359-3.657-3.008-6.313-7.062-7.969-12.156-1.656-5.102-2.484-11.508-2.484-19.219Zm12.546 0c0 4.188.149 7.828.454 10.922.312 3.086.89 5.742 1.734 7.969.852 2.218 2.039 4.027 3.562 5.422 1.52 1.386 3.52 2.496 6 3.328 2.489.824 5.508 1.39 9.063 1.703 3.55.305 7.766.453 12.64.453 4.176 0 7.91-.098 11.204-.297 3.289-.195 6.164-.644 8.625-1.344 2.457-.695 4.554-1.687 6.297-2.968 1.75-1.282 3.156-3.032 4.218-5.25 1.07-2.227 1.86-4.961 2.36-8.204.5-3.25.75-7.16.75-11.734 0-4.476-.25-8.297-.75-11.453-.5-3.164-1.29-5.813-2.36-7.938-1.062-2.132-2.468-3.82-4.218-5.062-1.743-1.25-3.84-2.188-6.297-2.813-2.461-.632-5.336-1.039-8.625-1.218-3.293-.176-7.028-.266-11.203-.266-4.18 0-7.914.09-11.204.266-3.292.18-6.167.586-8.625 1.218-2.46.625-4.562 1.563-6.312 2.813-1.742 1.242-3.148 2.93-4.219 5.062-1.062 2.125-1.844 4.774-2.344 7.938-.5 3.156-.75 6.977-.75 11.453ZM3293.557 411.32c4.875 0 9.032.079 12.47.235 3.444.148 6.331.406 8.655.781 2.332.367 4.172.836 5.516 1.406 1.351.563 2.379 1.403 3.078 2.516.695 1.105 1.145 2.215 1.344 3.328.195 1.106.297 2.375.297 3.813 0 1.574-.102 3.007-.297 4.296a8.08 8.08 0 0 1-1.406 3.485c-.743 1.043-1.829 1.933-3.266 2.672-1.438.742-3.402 1.375-5.89 1.906-2.481.523-5.56.902-9.235 1.14-3.68.243-8.133.36-13.36.36-5.75 0-10.511-.16-14.28-.484-3.762-.332-6.759-.957-8.985-1.875-2.219-.914-3.777-2.188-4.672-3.813-.887-1.633-1.328-3.758-1.328-6.375h-12.547c0 3.969.707 7.324 2.125 10.063 1.414 2.742 3.754 4.976 7.016 6.703 3.27 1.718 7.57 2.968 12.906 3.75 5.344.781 11.93 1.172 19.766 1.172 6.27 0 11.77-.188 16.5-.563 4.726-.363 8.789-.926 12.187-1.687 3.395-.758 6.211-1.758 8.453-3 2.238-1.25 4.008-2.735 5.313-4.454 1.312-1.718 2.226-3.695 2.75-5.937.53-2.25.797-4.785.797-7.61 0-2.831-.266-5.328-.797-7.484-.524-2.156-1.422-4.023-2.703-5.61-1.282-1.593-2.993-3.062-5.125-4.405-2.137-1.352-4.84-2.36-8.11-3.016-3.262-.656-7.125-1.113-11.594-1.375-4.46-.258-9.652-.39-15.578-.39-4.875 0-9.039-.008-12.484-.032-3.438-.02-6.324-.148-8.656-.39-2.325-.239-4.164-.598-5.516-1.079-1.355-.476-2.383-1.175-3.078-2.093-.688-.914-1.133-2.082-1.328-3.5a31.12 31.12 0 0 1-.297-4.344c0-2.52.562-4.5 1.687-5.938 1.133-1.437 3.008-2.504 5.625-3.203 2.614-.695 6.055-1.133 10.329-1.312 4.27-.176 9.539-.266 15.812-.266 5.75 0 10.504.168 14.266.5 3.77.324 6.765.914 8.984 1.766 2.219.843 3.773 2.011 4.672 3.5.894 1.48 1.344 3.39 1.344 5.734h12.547c0-3.781-.637-7.039-1.907-9.781-1.261-2.75-3.468-5.024-6.625-6.828-3.156-1.813-7.43-3.149-12.812-4.016-5.375-.875-12.2-1.312-20.469-1.312-8.367 0-15.469.37-21.312 1.109-5.836.742-10.579 1.95-14.235 3.625-3.656 1.68-6.312 3.855-7.969 6.531-1.656 2.68-2.484 5.977-2.484 9.89 0 2.876.258 5.548.781 8.016.532 2.461 1.426 4.528 2.688 6.204 1.258 1.68 2.969 3.015 5.125 4.015 2.156 1 4.851 1.774 8.094 2.313 3.25.543 7.113.902 11.593 1.078 4.489.18 9.696.265 15.625.265Zm0 0" fill="#fff"/><g clip-path="url(#E)"><path fill="#6c4892" d="M4608.145 1051.832v97.5l116.273 90-116.273 90v97.5l242.296-187.5Zm4.875 279.75 119.273-92.25-119.273-92.625v-85.125l229.542 177.375-229.542 177.75Zm219.417-279.75v97.5l116.27 90-116.27 90v97.5l242.293-187.5Zm4.876 279.75 119.273-92.25-119.274-92.625v-85.125l229.543 177.375-229.542 177.75Zm219.414-279.75v97.5l116.273 90-116.273 90v97.5l242.296-187.5Zm4.878 279.75 119.27-92.25-119.27-92.25v-85.5l229.54 177.375-229.54 177.375Zm0 0"/></g><g clip-path="url(#F)"><path fill="#43e8ed" d="M4642.86 488.91v97.5l116.269 90-116.27 90v97.5l242.293-187.5Zm4.874 279.75 119.274-92.25-119.274-92.625V498.66l229.543 177.375-229.543 177.75Zm219.414-279.75v97.5l116.274 90-116.274 90v97.5l242.297-187.5Zm4.875 279.75 119.274-92.25-119.274-92.625V498.66l229.543 177.375-229.543 177.75Zm219.418-279.75v97.5l116.27 90-116.27 90v97.5l242.293-187.5Zm4.875 279.75 119.274-92.25-119.274-92.25v-85.5l229.543 177.375-229.543 177.371Zm0 0"/></g><g clip-path="url(#G)"><path fill="#43e8ed" d="M1202.047 488.91v97.5l116.27 90-116.27 90v97.5l242.293-187.5Zm4.875 279.75 119.27-92.25-119.27-92.625V498.66l229.543 177.375-229.543 177.75Zm219.414-279.75v97.5l116.273 90-116.273 90v97.5l242.297-187.5Zm4.875 279.75 119.273-92.25-119.273-92.625V498.66l229.543 177.375-229.543 177.75Zm219.418-279.75v97.5l116.27 90-116.27 90v97.5l242.293-187.5Zm4.875 279.75 119.273-92.25-119.273-92.25v-85.5l229.543 177.375-229.543 177.371Zm0 0"/></g></svg>